Gidole-Hairline.sfdir
StartChar: exclam
Encoding: 33 33 82
Width: 120
VWidth: 0
Flags: W
HStem: -6 20<50.0031 69.9969> 647 20G<55 63>
VStem: 50 20<-5.99705 13.997> 55 8<98 667>
LayerCount: 4
Back
Fore
SplineSet
56 98 m 5xd0
 55 351 l 5
 55 667 l 5
 63 667 l 5
 63 351 l 5
 62 98 l 5
 56 98 l 5xd0
59.787109375 14 m 4
 65.7451171875 14 70 9.95703125 70 4 c 4
 70 -1.95703125 65.7451171875 -6 59.787109375 -6 c 4
 54.2548828125 -6 50 -1.95703125 50 4 c 4xe0
 50 9.95703125 54.2548828125 14 59.787109375 14 c 4
EndSplineSet
Layer: 2
Layer: 3
EndChar
StartChar: quotedbl
Encoding: 34 34 90
Width: 218
Flags: W
HStem: 653 20<50.0031 60.8837 148.003 158.884>
VStem: 50 20<653.046 672.997> 148 20<653.046 672.997>
LayerCount: 4
Back
Fore
SplineSet
148 663 m 4
 148 668.95703125 152.254882812 673 157.787109375 673 c 4
 163.745117188 673 168 669 168 663 c 4
 168 660 167.541015625 655.010742188 167 649 c 6
 157 538 l 5
 150 538 l 5
 159 653 l 6
 159 653 158.529296875 653 157.787109375 653 c 4
 152.254882812 653 148 657.04296875 148 663 c 4
50 663 m 4
 50 668.95703125 54.2548828125 673 59.787109375 673 c 4
 65.7451171875 673 70 669 70 663 c 4
 70 660 69.541015625 655.010742188 69 649 c 6
 59 538 l 5
 52 538 l 5
 61 653 l 6
 61 653 60.529296875 653 59.787109375 653 c 4
 54.2548828125 653 50 657.04296875 50 663 c 4
EndSplineSet
Layer: 2
Layer: 3
EndChar
StartChar: numbersign
Encoding: 35 35 99
Width: 590
VWidth: 0
Flags: HW
HStem: 0 21G<86 154.211 300 368.211> 190 57<45 126 202 340 416 510> 420 57<80 174 250 388 464 545> 647 20G<221.789 290 435.789 504>
LayerCount: 4
Back
Fore
SplineSet
100 445 m 1
 100 453 l 1
 201.08203125 453 l 1
 246 667 l 1
 254.170898438 667 l 1
 209.25390625 453 l 1
 430.908203125 453 l 1
 475.826171875 667 l 1
 484 667 l 1
 439.08203125 453 l 1
 525 453 l 1
 525 445 l 1
 437.403320312 445 l 1
 390.596679688 222 l 1
 490 222 l 1
 490 214 l 1
 388.91796875 214 l 1
 344 0 l 1
 335.825195312 0 l 1
 380.743164062 214 l 1
 159.090820312 214 l 1
 114.173828125 0 l 1
 106 0 l 1
 150.91796875 214 l 1
 65 214 l 1
 65 222 l 1
 152.596679688 222 l 1
 199.403320312 445 l 1
 100 445 l 1
382.421875 222 m 1
 429.229492188 445 l 1
 207.575195312 445 l 1
 160.76953125 222 l 1
 382.421875 222 l 1
EndSplineSet
Layer: 2
Layer: 3
EndChar
StartChar: dollar
Encoding: 36 36 97
Width: 528
Flags: W
HStem: -6 70<147.561 231 285 351.403> 603 70<162.559 231 285 364.649>
VStem: 47 74<444.333 563.58> 231 54<-70 -4.30316 65 305 393 602 671.041 737> 404 74<112.656 243.611>
LayerCount: 4
Back
Fore
SplineSet
231 737 m 1
 285 737 l 1
 285 672 l 1
 348 668 406 646 457 613 c 1
 415 555 l 1
 375 581 330 598 285 602 c 1
 285 381 l 1
 361 354 478 309 478 177 c 0
 478 62 381 2 285 -5 c 1
 285 -70 l 1
 231 -70 l 1
 231 -6 l 1
 163 -2 98 24 46 62 c 1
 92 118 l 1
 133 87 182 68 231 64 c 1
 231 317 l 1
 164 341 47 381 47 506 c 0
 47 616 143 668 231 673 c 1
 231 737 l 1
231 603 m 1
 169 598 121 566 121 506 c 0
 121 442 169 416 231 393 c 1
 231 603 l 1
285 65 m 1
 352 71 404 110 404 177 c 0
 404 249 351 280 285 305 c 1
 285 65 l 1
EndSplineSet
Validated: 1
Layer: 2
Layer: 3
EndChar
StartChar: percent
Encoding: 37 37 98
Width: 712
Flags: W
HStem: -6 60<485.218 576.782> 237 60<485.218 576.782> 370 60<135.218 226.782> 613 60<135.218 226.782>
VStem: 60 62<442.447 600.553> 240 62<442.447 600.553> 410 62<66.4473 224.553> 590 62<66.4473 224.553>
LayerCount: 4
Back
Fore
SplineSet
124 474 m 0
 130 448 150 430 181 430 c 0
 212 430 232 448 238 474 c 0
 240 483 240 494 240 507 c 0
 240 536 l 0
 240 549 240 560 238 569 c 0
 232 595 212 613 181 613 c 0
 150 613 130 595 124 569 c 0
 122 560 122 549 122 536 c 0
 122 507 l 0
 122 494 122 483 124 474 c 0
64 461 m 0
 60 478 60 493 60 507 c 0
 60 536 l 0
 60 550 60 565 64 582 c 0
 75 633 120 673 181 673 c 0
 242 673 287 633 298 582 c 0
 302 565 302 550 302 536 c 0
 302 507 l 0
 302 493 302 478 298 461 c 0
 287 410 242 370 181 370 c 0
 120 370 75 410 64 461 c 0
474 98 m 0
 480 72 500 54 531 54 c 0
 562 54 582 72 588 98 c 0
 590 107 590 118 590 131 c 0
 590 160 l 0
 590 173 590 184 588 193 c 0
 582 219 562 237 531 237 c 0
 500 237 480 219 474 193 c 0
 472 184 472 173 472 160 c 0
 472 131 l 0
 472 118 472 107 474 98 c 0
414 85 m 0
 410 102 410 117 410 131 c 0
 410 160 l 0
 410 174 410 189 414 206 c 0
 425 257 470 297 531 297 c 0
 592 297 637 257 648 206 c 0
 652 189 652 174 652 160 c 0
 652 131 l 0
 652 117 652 102 648 85 c 0
 637 34 592 -6 531 -6 c 0
 470 -6 425 34 414 85 c 0
496 667 m 1
 570 667 l 1
 210 0 l 1
 136 0 l 1
 496 667 l 1
EndSplineSet
Validated: 1
Layer: 2
Layer: 3
EndChar
StartChar: ampersand
Encoding: 38 38 104
Width: 639
Flags: W
HStem: -6 70<183.531 372.607 474.023 585.559> 308 70<185.83 395 465 575> 603 70<189.146 368.171>
VStem: 60 74<112.403 259.285> 70 74<418.627 558.973> 395 70<86.1174 308 378 490>
LayerCount: 4
Back
Fore
SplineSet
272 673 m 0xf4
 335 673 391 656 432 624 c 1
 386 570 l 1
 360 590 321 603 272 603 c 0
 230 603 202 593 182 576 c 0
 161 559 144 530 144 490 c 0xec
 144 429 179 392 225 382 c 0
 241 379 260 378 282 378 c 2
 395 378 l 1
 395 490 l 1
 465 490 l 1
 465 378 l 1
 575 378 l 1
 575 308 l 1
 465 308 l 1
 465 132 l 2
 465 119 465 108 468 99 c 0
 474 74 495 60 526 60 c 0
 543 60 562 64 579 72 c 1
 609 12 l 1
 583 1 555 -6 526 -6 c 0
 483 -6 448 10 426 35 c 1
 384 7 331 -6 272 -6 c 0
 216 -6 165 8 127 38 c 0
 87 71 60 122 60 185 c 0xf4
 60 253 91 311 144 344 c 1
 95 378 70 429 70 490 c 0xec
 70 549 96 599 134 630 c 0
 170 659 217 673 272 673 c 0xf4
282 308 m 2
 259 308 239 307 222 304 c 0
 172 292 134 252 134 185 c 0xf4
 134 141 152 110 175 92 c 0
 196 75 228 64 272 64 c 0
 326 64 367 78 395 100 c 1
 395 308 l 1
 282 308 l 2
EndSplineSet
Validated: 1
Layer: 2
Layer: 3
EndChar
StartChar: quotesingle
Encoding: 39 39 95
Width: 120
Flags: W
HStem: 653 20<50.0031 60.8837>
VStem: 50 20<653.046 672.997>
LayerCount: 4
Back
Fore
SplineSet
50 663 m 0
 50 668.95703125 54.2548828125 673 59.787109375 673 c 0
 65.7451171875 673 70 669 70 663 c 0
 70 660 69.541015625 655.010742188 69 649 c 2
 59 538 l 1
 52 538 l 1
 61 653 l 2
 61 653 60.529296875 653 59.787109375 653 c 0
 54.2548828125 653 50 657.04296875 50 663 c 0
EndSplineSet
Layer: 2
Layer: 3
EndChar
StartChar: parenleft
Encoding: 40 40 80
Width: 250
Flags: HW
HStem: -191 8<229.802 250> 789 8<229.623 250>
VStem: 75 8<122.517 482.516>
LayerCount: 4
Back
Fore
SplineSet
250 -183 m 5
 250 -191 l 5
 163.845703125 -191 75 -45 75 199 c 6
 75 406 l 6
 75 650 162.94921875 797 250 797 c 5
 250 789 l 5
 166.926757812 788.998046875 83 644.37890625 83 404.33203125 c 6
 83 200.68359375 l 6
 83 -39.3623046875 167.783203125 -182.998046875 250 -183 c 5
EndSplineSet
Layer: 2
Layer: 3
EndChar
StartChar: parenright
Encoding: 41 41 78
Width: 250
Flags: HW
HStem: -191 8<0 20.198> 789 8<0 20.3766>
VStem: 167 8<122.517 200.684 404.332 482.516>
LayerCount: 4
Back
Fore
SplineSet
40 797 m 5
 107.154296875 797 175 650 175 406 c 2
 175 199 l 2
 175 -45 106.461914062 -191 40 -191 c 1
 40 -183 l 1
 102.5234375 -183 167 -39.3642578125 167 200.68359375 c 2
 167 404.33203125 l 2
 167 644.380859375 103.173828125 789 40 789 c 1
 40 797 l 5
EndSplineSet
Layer: 2
Layer: 3
EndChar
StartChar: plus
Encoding: 43 43 84
Width: 540
Flags: W
HStem: 246 8<90 266 274 450>
VStem: 266 8<70 246 254 430>
LayerCount: 4
Back
SplineSet
240 71 m 5
 300 71 l 5
 300 431 l 5
 240 431 l 5
 240 71 l 5
90 279 m 5
 90 223 l 5
 450 223 l 5
 450 279 l 5
 90 279 l 5
EndSplineSet
Fore
SplineSet
90 254 m 1
 266 254 l 1
 266 430 l 1
 274 430 l 1
 274 254 l 1
 450 254 l 1
 450 246 l 1
 274 246 l 1
 274 70 l 1
 266 70 l 1
 266 246 l 1
 90 246 l 1
 90 254 l 1
EndSplineSet
Layer: 2
Layer: 3
EndChar
StartChar: comma
Encoding: 44 44 39
Width: 120
Flags: W
HStem: -6 20<50.0031 60.8837>
VStem: 50 20<-5.95451 13.997>
LayerCount: 4
Back
Fore
SplineSet
50 4 m 4
 50 9.95703125 54.2548828125 14 59.787109375 14 c 4
 65.7451171875 14 70 10 70 4 c 4
 70 1 69.5415035525 -3.98931056779 69 -10 c 6
 59 -121 l 5
 52 -121 l 5
 61 -6 l 6
 61 -6 60.5293738094 -6 59.787109375 -6 c 4
 54.2548828125 -6 50 -1.95703125 50 4 c 4
EndSplineSet
Layer: 2
Layer: 3
EndChar
StartChar: hyphen
Encoding: 45 45 81
Width: 370
Flags: W
HStem: 246 8<80 290>
VStem: 80 210<246 254>
LayerCount: 4
Back
Fore
SplineSet
80 254 m 5
 290 254 l 5
 290 246 l 1
 80 246 l 1
 80 254 l 5
EndSplineSet
Layer: 2
Layer: 3
EndChar
StartChar: period
Encoding: 46 46 1
Width: 120
VWidth: 0
Flags: W
HStem: -6 20<50.0031 69.9969>
VStem: 50 20<-5.99705 13.997>
LayerCount: 4
Back
Fore
SplineSet
59.787109375 14 m 4
 65.7451171875 14 70 9.95703125 70 4 c 4
 70 -1.95703125 65.7451171875 -6 59.787109375 -6 c 4
 54.2548828125 -6 50 -1.95703125 50 4 c 4
 50 9.95703125 54.2548828125 14 59.787109375 14 c 4
EndSplineSet
Layer: 2
Layer: 3
EndChar
StartChar: slash
Encoding: 47 47 73
Width: 342
VWidth: 0
Flags: W
VStem: 20 302
LayerCount: 4
Back
Fore
SplineSet
260 797 m 1
 322 797 l 1
 82 -130 l 1
 20 -130 l 1
 260 797 l 1
EndSplineSet
Layer: 2
Layer: 3
EndChar
StartChar: zero
Encoding: 48 48 2
Width: 480
Flags: HW
HStem: -6 70<187.122 332.878> 603 70<187.122 332.878>
VStem: 65 74<111.847 555.153> 381 74<111.847 555.153>
LayerCount: 4
Back
Fore
SplineSet
415 189 m 5
 415 71 348 -6 240 -6 c 4
 132 -6 65 71 65 189 c 5
 65 478 l 5
 65 596 132 673 240 673 c 4
 348 673 415 596 415 478 c 5
 415 189 l 5
407 478 m 5
 407 591.159179688 343.063476562 665 240 665 c 4
 136.936523438 665 73 591.159179688 73 478 c 5
 73 189 l 5
 73 75.8408203125 136.936523438 2 240 2 c 4
 343.063476562 2 407 75.8408203125 407 189 c 5
 407 478 l 5
EndSplineSet
Layer: 2
Layer: 3
EndChar
StartChar: one
Encoding: 49 49 3
Width: 361
Flags: W
HStem: 0 21G<187 261> 647 20G<157.339 261>
VStem: 187 74<0 582>
LayerCount: 4
Back
Fore
SplineSet
197 667 m 1
 261 667 l 1
 261 0 l 1
 187 0 l 1
 187 582 l 1
 113 543 l 1
 80 608 l 1
 197 667 l 1
EndSplineSet
Validated: 1
Layer: 2
Layer: 3
EndChar
StartChar: two
Encoding: 50 50 4
Width: 515
Flags: W
HStem: 0 70<165 455> 603 70<132.065 308.485>
VStem: 354 74<412.65 558.865>
LayerCount: 4
Back
Fore
SplineSet
226 673 m 0
 279 673 328 659 364 630 c 0
 402 599 428 549 428 489 c 0
 428 460 422 432 410 405 c 0
 399 378 382 356 367 336 c 2
 165 70 l 1
 455 70 l 1
 455 0 l 1
 60 0 l 1
 60 50 l 1
 307 376 l 2
 321 395 334 413 342 432 c 0
 350 450 354 470 354 489 c 0
 354 530 337 559 316 576 c 0
 296 592 266 603 226 603 c 0
 178 603 139 589 112 569 c 1
 66 623 l 1
 107 655 163 673 226 673 c 0
EndSplineSet
Validated: 1
Layer: 2
Layer: 3
EndChar
StartChar: three
Encoding: 51 51 5
Width: 488
Flags: W
HStem: -6 70<120.662 309.469> 308 70<170 307.17> 603 70<124.829 303.854>
VStem: 349 74<418.627 558.973> 359 74<112.403 259.285>
LayerCount: 4
Back
Fore
SplineSet
50 48 m 1xe8
 98 100 l 1
 126 78 167 64 221 64 c 0
 265 64 297 75 318 92 c 0
 341 110 359 141 359 185 c 0xe8
 359 252 321 292 271 304 c 0
 254 307 234 308 211 308 c 2
 170 308 l 1
 170 378 l 1
 211 378 l 2
 233 378 252 379 268 382 c 0
 314 392 349 429 349 490 c 0xf0
 349 530 332 559 311 576 c 0
 291 593 263 603 221 603 c 0
 172 603 133 590 107 570 c 1
 61 624 l 1
 102 656 158 673 221 673 c 0
 276 673 323 659 359 630 c 0xe8
 397 599 423 549 423 490 c 0
 423 429 398 378 349 344 c 1xf0
 402 311 433 253 433 185 c 0
 433 122 406 71 366 38 c 0
 328 8 277 -6 221 -6 c 0
 154 -6 94 11 50 48 c 1xe8
EndSplineSet
Validated: 1
Layer: 2
Layer: 3
EndChar
StartChar: four
Encoding: 52 52 6
Width: 535
Flags: W
HStem: 0 21G<353 423> 165 68<137 353 423 480> 647 20G<247.106 330>
VStem: 353 70<0 165 233 403>
LayerCount: 4
Back
Fore
SplineSet
256 667 m 1
 330 667 l 1
 137 233 l 1
 353 233 l 1
 353 403 l 1
 423 403 l 1
 423 233 l 1
 480 233 l 1
 480 165 l 1
 423 165 l 1
 423 0 l 1
 353 0 l 1
 353 165 l 1
 55 165 l 1
 55 215 l 1
 256 667 l 1
EndSplineSet
Validated: 1
Layer: 2
Layer: 3
EndChar
StartChar: five
Encoding: 53 53 7
Width: 495
Flags: W
HStem: -6 70<137.245 318.531> 332 70<157.948 318.044> 597 70<157 404>
VStem: 85 72<389 597> 371 74<117.641 278.635>
LayerCount: 4
Back
Fore
SplineSet
85 667 m 1
 404 667 l 1
 404 597 l 1
 157 597 l 1
 157 389 l 1
 180 398 206 402 233 402 c 0
 294 402 348 384 386 348 c 0
 424 312 445 260 445 198 c 0
 445 137 424 84 386 48 c 0
 349 12 295 -6 233 -6 c 0
 166 -6 104 14 60 51 c 1
 110 103 l 1
 137 80 181 64 233 64 c 0
 281 64 312 77 334 98 c 0
 355 118 371 152 371 198 c 0
 371 245 355 278 334 298 c 0
 312 319 279 332 233 332 c 0
 198 332 171 324 151 312 c 1
 85 341 l 1
 85 667 l 1
EndSplineSet
Validated: 1
Layer: 2
Layer: 3
EndChar
StartChar: six
Encoding: 54 54 8
Width: 500
Flags: W
HStem: -6 8<209.511 290.489> 364 8<207.811 290.489> 647 20G<267.15 285.526>
VStem: 75 8<136.291 230.211> 417 8<136.291 229.709>
LayerCount: 4
Back
Fore
SplineSet
83 183 m 0
 83 51 158 2 250 2 c 4
 342 2 417 51 417 183 c 4
 417 315 342 364 250 364 c 4
 158 364 83 315 83 183 c 0
285.526367188 667 m 1
 123.438476562 326.265625 l 1
 155.40625 358.40625 200.4375 372 250 372 c 4
 346 372 425 321 425 183 c 4
 425 45 346 -6 250 -6 c 4
 154 -6 75 45 75 183 c 0
 75 227.872070312 83 259 96.9267578125 289.258789062 c 2
 276.666992188 667 l 1
 285.526367188 667 l 1
EndSplineSet
Layer: 2
Layer: 3
EndChar
StartChar: eight
Encoding: 56 56 10
Width: 520
Flags: W
HStem: -6 68<185.754 334.246> 310 66<187.636 332.364> 605 68<188.948 331.052>
VStem: 65 72<110.793 263.434> 74 72<418.21 561.838> 374 72<418.21 561.838> 383 72<110.793 263.434>
LayerCount: 4
Back
SplineSet
427 448 m 5
 427 589 376 665 260 665 c 4
 144 665 93 589 93 448 c 5
 93 219 l 5
 93 78 144 2 260 2 c 4
 376 2 427 78 427 219 c 5
 427 448 l 5
435 219 m 5
 435 73 381 -6 260 -6 c 4
 139 -6 85 73 85 219 c 5
 85 448 l 5
 85 594 139 673 260 673 c 4
 381 673 435 594 435 448 c 5
 435 219 l 5
EndSplineSet
Fore
SplineSet
260 310 m 5xf2
 167 310 137 246 137 186 c 4
 137 115 179 62 260 62 c 4
 341 62 383 115 383 186 c 4
 383 246 353 310 260 310 c 5xf2
260 605 m 4
 185 605 146 555 146 490 c 4
 146 423 187 376 260 376 c 5
 333 376 374 423 374 490 c 4xec
 374 555 335 605 260 605 c 4
260 673 m 4
 380 673 446 593 446 490 c 4xec
 446 422 412 371 369 344 c 5
 418 315 455 259 455 186 c 4
 455 79 385 -6 260 -6 c 4
 135 -6 65 79 65 186 c 4xf2
 65 259 102 315 151 344 c 5
 108 371 74 422 74 490 c 4
 74 593 140 673 260 673 c 4
EndSplineSet
Layer: 2
Layer: 3
EndChar
StartChar: nine
Encoding: 57 57 11
Width: 500
Flags: HW
HStem: 0 21G<214.474 232.85> 295 8<209.511 292.189> 665 8<209.511 290.489>
VStem: 75 8<437.291 530.709> 417 8<436.789 530.709>
LayerCount: 4
Back
Fore
SplineSet
417 484 m 4
 417 616 342 665 250 665 c 4
 158 665 83 616 83 484 c 4
 83 352 158 303 250 303 c 4
 342 303 417 352 417 484 c 4
214.473632812 0 m 5
 376.561523438 340.734375 l 5
 344.59375 308.59375 299.5625 295 250 295 c 4
 154 295 75 346 75 484 c 4
 75 622 154 673 250 673 c 4
 346 673 425 622 425 484 c 4
 425 439.127929688 417 408 403.073242188 377.741210938 c 6
 223.333007812 0 l 5
 214.473632812 0 l 5
EndSplineSet
Layer: 2
SplineSet
229 0 m 1053
417 484 m 4,8,9
 417 616 342 665 250 665 c 4,10,11
 158 665 83 616 83 484 c 4,12,13
 83 352 158 303 250 303 c 4,14,15
 342 303 417 352 417 484 c 4,8,9
425 484 m 4,8,9
 425 346 346 295 250 295 c 4,14,15
 154 295 75 346 75 484 c 4,12,13
 75 622 154 673 250 673 c 4,10,11
 346 673 425 622 425 484 c 4,8,9
EndSplineSet
Layer: 3
EndChar
StartChar: colon
Encoding: 58 58 12
Width: 120
VWidth: 0
Flags: HW
HStem: -6 20<50.0031 60.8837> 324 20<50.0031 69.9969>
VStem: 50 20<-5.95451 13.997 324.003 343.997>
LayerCount: 4
Back
Fore
SplineSet
59.787109375 14 m 0
 65.7451171875 14 70 9.95703125 70 4 c 0
 70 -1.95703125 65.7451171875 -6 59.787109375 -6 c 0
 54.2548828125 -6 50 -1.95703125 50 4 c 0
 50 9.95703125 54.2548828125 14 59.787109375 14 c 0
59.787109375 344 m 4
 65.7451171875 344 70 339.95703125 70 334 c 4
 70 328.04296875 65.7451171875 324 59.787109375 324 c 4
 54.2548828125 324 50 328.04296875 50 334 c 4
 50 339.95703125 54.2548828125 344 59.787109375 344 c 4
EndSplineSet
Layer: 2
Layer: 3
EndChar
StartChar: semicolon
Encoding: 59 59 40
Width: 120
VWidth: 0
Flags: W
HStem: -6 20<50.0031 60.8837> 324 20<50.0031 69.9969>
VStem: 50 20<-5.95451 13.997 324.003 343.997>
LayerCount: 4
Back
Fore
SplineSet
59.787109375 344 m 4
 65.7451171875 344 70 339.95703125 70 334 c 4
 70 328.04296875 65.7451171875 324 59.787109375 324 c 4
 54.2548828125 324 50 328.04296875 50 334 c 4
 50 339.95703125 54.2548828125 344 59.787109375 344 c 4
50 4 m 4
 50 9.95703125 54.2548828125 14 59.787109375 14 c 4
 65.7451171875 14 70 10 70 4 c 4
 70 1 69.5415035525 -3.98931056779 69 -10 c 6
 59 -121 l 5
 52 -121 l 5
 61 -6 l 6
 61 -6 60.5293738094 -6 59.787109375 -6 c 4
 54.2548828125 -6 50 -1.95703125 50 4 c 4
EndSplineSet
Layer: 2
Layer: 3
EndChar
StartChar: less
Encoding: 60 60 106
Width: 520
Flags: HW
LayerCount: 4
Back
Fore
SplineSet
440 453 m 1
 440 443.859375 l 1
 89.2998046875 250 l 1
 440 56.140625 l 1
 440 47 l 1
 80 246 l 1
 80 254 l 1
 440 453 l 1
EndSplineSet
Layer: 2
Layer: 3
EndChar
StartChar: equal
Encoding: 61 61 83
Width: 540
Flags: W
HStem: 179 8<90 450> 313 8<90 450>
LayerCount: 4
Back
Fore
SplineSet
90 321 m 5
 450 321 l 5
 450 313 l 1
 90 313 l 1
 90 321 l 5
90 187 m 1
 450 187 l 1
 450 179 l 1
 90 179 l 1
 90 187 l 1
EndSplineSet
Layer: 2
Layer: 3
EndChar
StartChar: greater
Encoding: 62 62 107
Width: 540
Flags: W
LayerCount: 4
Back
Fore
SplineSet
90 453 m 5
 90 443.859375 l 5
 440.700195312 250 l 5
 90 56.140625 l 5
 90 47 l 5
 450 246 l 5
 450 254 l 5
 90 453 l 5
EndSplineSet
Layer: 2
Layer: 3
EndChar
StartChar: question
Encoding: 63 63 43
Width: 472
Flags: W
HStem: -6 102<174.227 259.773> 603 70<114.478 292.67>
VStem: 166 102<2.22656 87.7734> 188 58<169.027 288.335> 338 74<423.285 558.973>
LayerCount: 4
Back
Fore
SplineSet
217 96 m 0xe8
 247 96 268 75 268 45 c 0
 268 15 247 -6 217 -6 c 0
 187 -6 166 15 166 45 c 0
 166 75 187 96 217 96 c 0xe8
210 673 m 0
 264 673 312 659 348 630 c 0
 386 599 412 549 412 490 c 0
 412 427 382 380 346 350 c 0
 307 318 266 306 253 262 c 0
 250 253 247 240 246 216 c 2
 244 169 l 1
 190 169 l 1
 190 169 188 206 188 224 c 0xd8
 188 245 189 257 193 276 c 0
 207 344 265 376 297 402 c 0
 320 422 338 449 338 490 c 0
 338 530 321 559 300 576 c 0
 280 593 251 603 210 603 c 0
 161 603 123 590 97 570 c 1
 50 624 l 1
 92 656 147 673 210 673 c 0
EndSplineSet
Validated: 1
Layer: 2
Layer: 3
EndChar
StartChar: at
Encoding: 64 64 116
Width: 864
VWidth: 0
Flags: W
HStem: -190 64<212.862 651.309> -6 65<343.27 480.562> 233 61<351.742 535> 418 64<212.862 496.922> 608 66<340 559.804>
VStem: 75 68<-57.8079 349.808> 245 68<87.8244 197.43> 535 68<0 52 114.99 231.079 289 379.236> 721 68<-57.0245 447.266>
LayerCount: 4
Back
SplineSet
535 229 m 5
 509 232 485 233 464 233 c 4
 402 233 313 225 313 143 c 4
 313 94 350 59 410 59 c 4
 459.50390625 59 509.6015625 85.7900390625 527.846679688 149 c 4
 534.779296875 173.01953125 535 193.240234375 535 229 c 5
789 45 m 6
 789 15 788 -9 782 -34 c 4
 760 -136 685 -190 554 -190 c 4
 310 -190 l 4
 179 -190 105 -136 82 -35 c 4
 76 -10 75 15 75 45 c 6
 75 247 l 6
 75 277 76 302 82 327 c 4
 105 428 179 482 310 482 c 4
 430 482 l 4
 497 482 574 456 597 352 c 4
 603 325 603 299 603 261 c 6
 603 0 l 5
 535 0 l 5
 535 52 l 5
 503 19 465 -6 402 -6 c 4
 315 -6 245 53 245 143 c 4
 245 250 331 294 456 294 c 4
 478 294 509 293 535 289 c 5
 535 299 535 326 527 352 c 4
 509 407 466 418 430 418 c 4
 310 418 l 4
 224 418 172 384 153 327 c 4
 145 302 143 279 143 247 c 6
 143 45 l 6
 143 13 145 -10 153 -35 c 4
 172 -92 224 -126 310 -126 c 4
 554 -126 l 4
 640 -126 692 -92 711 -35 c 4
 719 -11 721 13 721 45 c 6
 721 306 l 6
 721 529 611 608 416 608 c 6
 340 608 l 5
 340 674 l 5
 416 674 l 6
 648 674 789 577 789 306 c 6
 789 45 l 6
EndSplineSet
Fore
SplineSet
535 229 m 1
 509 232 485 233 464 233 c 0
 402 233 313 225 313 143 c 0
 313 94 350 59 410 59 c 0
 460 59 510 86 528 149 c 0
 535 173 535 193 535 229 c 1
789 45 m 2
 789 15 788 -9 782 -34 c 0
 760 -136 685 -190 554 -190 c 0
 310 -190 l 0
 179 -190 105 -136 82 -35 c 0
 76 -10 75 15 75 45 c 2
 75 247 l 2
 75 277 76 302 82 327 c 0
 105 428 179 482 310 482 c 0
 430 482 l 0
 497 482 574 456 597 352 c 0
 603 325 603 299 603 261 c 2
 603 0 l 1
 535 0 l 1
 535 52 l 1
 503 19 465 -6 402 -6 c 0
 315 -6 245 53 245 143 c 0
 245 250 331 294 456 294 c 0
 478 294 509 293 535 289 c 1
 535 299 535 326 527 352 c 0
 509 407 466 418 430 418 c 0
 310 418 l 0
 224 418 172 384 153 327 c 0
 145 302 143 279 143 247 c 2
 143 45 l 2
 143 13 145 -10 153 -35 c 0
 172 -92 224 -126 310 -126 c 0
 554 -126 l 0
 640 -126 692 -92 711 -35 c 0
 719 -11 721 13 721 45 c 2
 721 306 l 2
 721 529 611 608 416 608 c 2
 340 608 l 1
 340 674 l 1
 416 674 l 2
 648 674 789 577 789 306 c 2
 789 45 l 2
EndSplineSet
Validated: 1
Layer: 2
SplineSet
313 140 m 4
 313 92 354 60 408 60 c 4
 470 60 533 106 533 204 c 6
 533 229 l 5
 507 231 483 232 462 232 c 4
 361 232 313 206 313 140 c 4
533 289 m 5
 533 381 490 418 416 418 c 6
 312 418 l 6
 222 418 149 372 149 254 c 6
 149 38 l 6
 149 -80 220 -122 310 -122 c 6
 556 -122 l 6
 646 -122 721 -80 721 38 c 6
 721 306 l 6
 721 529 611 608 416 608 c 6
 340 608 l 5
 340 674 l 5
 416 674 l 6
 648 674 789 577 789 306 c 6
 789 38 l 6
 789 -128 683 -190 556 -190 c 6
 310 -190 l 6
 183 -190 75 -128 75 38 c 6
 75 254 l 6
 75 420 185 482 312 482 c 6
 426 482 l 6
 522 482 601 427 601 289 c 6
 601 0 l 5
 533 0 l 5
 533 59 l 5
 501 15 452 -6 398 -6 c 4
 310 -6 243 55 243 146 c 4
 243 236.123046875 321.090820312 293.831054688 459.567382812 293.831054688 c 4
 482.42578125 293.831054688 506.9296875 292.258789062 533 289 c 5
EndSplineSet
Layer: 3
EndChar
StartChar: A
Encoding: 65 65 13
Width: 590
Flags: HW
HStem: 0 21G<25 107.909 482.091 565> 165 70<180 409> 647 20G<255.864 334.136>
AnchorPoint: "DoubleTop" -10 0 basechar 0
AnchorPoint: "Apos" -10 0 basechar 0
AnchorPoint: "Center" 0 0 basechar 0
AnchorPoint: "Bottom" 526 0 basechar 0
AnchorPoint: "Top" 295 667 basechar 0
LayerCount: 4
Back
Fore
SplineSet
53.52734375 0 m 1
 45 0 l 1
 291 667 l 1
 299 667 l 1
 545 0 l 1
 536.47265625 0 l 1
 295 654.725585938 l 1
 53.52734375 0 l 1
125 196 m 1
 125 204 l 1
 465 204 l 1
 465 196 l 1
 125 196 l 1
EndSplineSet
Layer: 2
Layer: 3
EndChar
StartChar: B
Encoding: 66 66 14
Width: 520
VWidth: 0
Flags: HW
HStem: 0 8<93 317.953> 338 8<93 316.174> 659 8<93 318.04>
VStem: 85 8<8 338 346 659> 437 8<464.884 542.003> 447 8<134.161 213.24>
LayerCount: 4
Back
Fore
SplineSet
85 0 m 1
 85 667 l 25
 280 667 l 2
 380 667 445 603 445 503 c 0
 445 417.4609375 397.439453125 358.3359375 321.095703125 342.157226562 c 1
 403.484375 326.069335938 455 263.7265625 455 173 c 4
 455 68 386 0 280 0 c 14
 85 0 l 1
437 502.975585938 m 0
 437 598.200195312 375 659 280 659 c 2
 93 659 l 1
 93 346 l 1
 280 346 l 2
 375 346 437 407.751953125 437 502.975585938 c 0
447 173 m 4
 447 273.2265625 381 338 280 338 c 2
 93 338 l 1
 93 8 l 1
 280 8 l 6
 381 8 447 72.7734375 447 173 c 4
EndSplineSet
Layer: 2
Layer: 3
EndChar
StartChar: C
Encoding: 67 67 15
Width: 535
VWidth: 0
Flags: W
HStem: -6 8<233.034 328.407> 665 8<233.034 327.826>
VStem: 75 8<167.414 219 448 499.586>
AnchorPoint: "DoubleTop" 0 0 basechar 0
AnchorPoint: "Apos" 0 0 basechar 0
AnchorPoint: "Center" 0 0 basechar 0
AnchorPoint: "Bottom" 290 0 basechar 0
AnchorPoint: "Top" 290 667 basechar 0
LayerCount: 4
Back
Fore
SplineSet
280 2 m 4
 149 2 83 78 83 219 c 5
 83 448 l 5
 83 589 149 665 280 665 c 4
 352.450195312 665 411.13671875 641.75390625 449.122070312 597.122070312 c 5
 455.010742188 603.010742188 l 5
 415.640625 649.000976562 354.958984375 673 280 673 c 4
 144 673 75 594 75 448 c 5
 75 219 l 5
 75 73 144 -6 280 -6 c 4
 361.630859375 -6 426.329101562 22.4619140625 465.012695312 76.7900390625 c 5
 458.53515625 81.9716796875 l 5
 421.212890625 29.453125 358.734375 2 280 2 c 4
EndSplineSet
Layer: 2
Layer: 3
EndChar
StartChar: D
Encoding: 68 68 17
Width: 550
VWidth: 0
Flags: W
HStem: 0 8<93 345.636> 659 8<93 341.659>
VStem: 85 8<8 659> 467 8<130.883 526.547>
LayerCount: 4
Back
Fore
SplineSet
85 667 m 1
 300 667 l 2
 396 667 475 619 475 481 c 2
 475 176 l 2
 475 38 396 0 300 0 c 2
 300 0 156.666992188 0 85 0 c 1
 85 667 l 1
93 659 m 1
 93 8 l 1
 300 8 l 2
 392 8 467 44 467 176 c 2
 467 481 l 2
 467 613 392 659 300 659 c 2
 93 659 l 1
EndSplineSet
Layer: 2
Layer: 3
EndChar
StartChar: E
Encoding: 69 69 18
Width: 480
VWidth: 0
Flags: HW
HStem: 0 70<139 425> 308 70<139 374> 597 70<137 424>
VStem: 65 74<70 308 378 597>
AnchorPoint: "DoubleTop" -10 0 basechar 0
AnchorPoint: "Apos" -10 0 basechar 0
AnchorPoint: "Center" -15 0 basechar 0
AnchorPoint: "Bottom" 241 0 basechar 0
AnchorPoint: "Top" 241 667 basechar 0
LayerCount: 4
Back
Fore
SplineSet
85 667 m 5
 405 667 l 1
 405 659 l 1
 93 659 l 1
 93 346 l 1
 354 346 l 1
 354 338 l 1
 93 338 l 1
 93 8 l 1
 405 8 l 1
 405 0 l 1
 298.333007812 0 191.666992188 0 85 0 c 1
 85 667 l 5
EndSplineSet
Layer: 2
Layer: 3
EndChar
StartChar: F
Encoding: 70 70 19
Width: 494
VWidth: 0
Flags: W
HStem: 0 21G<85 93> 338 8<93 354> 659 8<93 405>
VStem: 85 8<0 338 346 659>
LayerCount: 4
Back
Fore
SplineSet
85 667 m 1
 405 667 l 1
 405 659 l 1
 93 659 l 1
 93 346 l 1
 354 346 l 1
 354 338 l 1
 93 338 l 1
 93 338 93 0 93 0 c 1
 85 0 l 1
 85 667 l 1
EndSplineSet
Layer: 2
Layer: 3
EndChar
StartChar: G
Encoding: 71 71 28
Width: 560
VWidth: 0
Flags: W
HStem: -6 8<234.103 325.897> 317 8<293 477> 665 8<234.103 327.826>
VStem: 75 8<163.241 503.759> 477 8<163.217 317>
LayerCount: 4
Back
SplineSet
293 325 m 5
 480 325 l 5
 480 317 l 5
 293 317 l 5
 293 325 l 5
485 325 m 5
 485 219 l 5
 485 73 416 -6 280 -6 c 4
 144 -6 75 73 75 219 c 5
 75 448 l 5
 75 594 144 673 280 673 c 4
 354.958984375 673 415.640625 649.000976562 455.010742188 603.010742188 c 5
 449.122070312 597.122070312 l 5
 411.13671875 641.75390625 352.450195312 665 280 665 c 4
 149 665 83 589 83 448 c 5
 83 219 l 5
 83 78 149 2 280 2 c 4
 411 2 477 78 477 219 c 5
 477 325 l 5
 485 325 l 5
EndSplineSet
Fore
SplineSet
280 673 m 0
 354.958984375 673 415.640625 649.000976562 455.010742188 603.010742188 c 1
 449.122070312 597.122070312 l 1
 411.13671875 641.75390625 352.450195312 665 280 665 c 0
 172.669921875 665 108.986328125 613.983398438 89.4580078125 518 c 0
 83.2783203125 487.622070312 83 458 83 418 c 2
 83 249 l 2
 83 209 83.2780771376 179.377686709 89.4584831045 149.000020866 c 0
 108.986572281 53.0163960482 172.670215765 2 280 2 c 0
 387.32976868 2 451.013419235 53.0163543166 470.541508411 148.999979134 c 0
 476.721914378 179.377644977 477 208.522460938 477 249 c 2
 477 317 l 1
 293 317 l 1
 293 325 l 1
 485 325 l 1
 485 249 l 2
 485 208.62109375 484.72397794 179.420093386 478.755796977 149.000020802 c 0
 458.927959645 47.9366893378 392.359467926 -6 280 -6 c 0
 167.64054749 -6 101.072048492 47.9366477331 81.2442111595 148.999979198 c 0
 75.2760301972 179.420051781 75 209 75 249 c 2
 75 418 l 2
 75 458 75.2763671875 487.580078125 81.244140625 518 c 0
 101.072265625 619.063476562 167.640625 673 280 673 c 0
EndSplineSet
Layer: 2
SplineSet
75 219 m 0
 75 365 144 444 280 444 c 4
 416 444 485 365 485 219 c 4
 485 73 416 -6 280 -6 c 4
 144 -6 75 73 75 219 c 0
EndSplineSet
Layer: 3
EndChar
StartChar: H
Encoding: 72 72 20
Width: 570
VWidth: 0
Flags: HW
HStem: 0 21G<65 139 431 505> 308 70<139 431> 647 20G<65 139 431 505>
VStem: 65 74<0 308 378 667> 431 74<0 308 378 667>
AnchorPoint: "DoubleTop" -10 0 basechar 0
AnchorPoint: "Apos" -10 0 basechar 0
AnchorPoint: "Center" -15 0 basechar 0
AnchorPoint: "Bottom" 285 0 basechar 0
AnchorPoint: "Top" 285 667 basechar 0
LayerCount: 4
Back
Fore
SplineSet
85 667 m 1
 93 667 l 1
 93 347 l 1
 477 347 l 1
 477 667 l 1
 485 667 l 1
 485 0 l 1
 477 0 l 1
 477 339 l 5
 93 339 l 5
 93 0 l 1
 85 0 l 1
 85 667 l 1
EndSplineSet
Layer: 2
Layer: 3
EndChar
StartChar: I
Encoding: 73 73 21
Width: 178
VWidth: 0
Flags: W
HStem: 0 21G<85 93> 647 20G<85 93>
VStem: 85 8<0 667>
LayerCount: 4
Back
Fore
SplineSet
93 667 m 5
 93 0 l 5
 85 0 l 5
 85 667 l 5
 93 667 l 5
EndSplineSet
Layer: 2
Layer: 3
EndChar
StartChar: J
Encoding: 74 74 22
Width: 456
VWidth: 0
Flags: W
HStem: -6 8<157.78 241.43> 647 20G<368 376>
VStem: 368 8<157.581 667>
LayerCount: 4
Back
Fore
SplineSet
376 667 m 1
 376 249 l 1
 376 208.62109375 375.832752534 179.626776641 371.036730558 149.000020802 c 0
 355.208310936 47.9218469355 300.966879552 -6 201 -6 c 0
 132.415337883 -6 78.9308209923 19.3810951667 45.4633186206 67.9580102585 c 1
 52.17578125 72.783203125 l 1
 84.296875 26.255859375 135.467726454 2 201 2 c 0
 296.040100511 2 347.378550968 53.0305914438 362.922200036 148.999979134 c 0
 367.878516854 179.601203351 368 208.522460938 368 249 c 1
 368 667 l 1
 376 667 l 1
EndSplineSet
Layer: 2
SplineSet
396 194 m 22
 396 48 298 -6 201 -6 c 5
 104 -6 6 48 6 194 c 14
 6 473 l 22
 6 619 104 673 201 673 c 5
 298 673 396 619 396 473 c 14
 396 194 l 22
80 194 m 22
 80 97 140 64 201 64 c 5
 262 64 322 97 322 194 c 14
 322 473 l 22
 322 570 262 603 201 603 c 5
 140 603 80 570 80 473 c 14
 80 194 l 22
EndSplineSet
Layer: 3
EndChar
StartChar: K
Encoding: 75 75 34
Width: 550
VWidth: 0
Flags: W
HStem: 0 21G<85 93 465.418 495> 647 20G<85 93 445.41 475>
VStem: 85 8<0 257.354 269.086 667>
LayerCount: 4
Back
Fore
SplineSet
85 667 m 5
 93 667 l 5
 93 269.0859375 l 5
 464.060546875 667 l 5
 475 667 l 5
 174.009765625 344.2265625 l 5
 495 0 l 5
 484.068359375 0 l 5
 168.540039062 338.362304688 l 5
 93 257.354492188 l 5
 93 0 l 5
 85 0 l 5
 85 667 l 5
EndSplineSet
Layer: 2
Layer: 3
EndChar
StartChar: L
Encoding: 76 76 23
Width: 490
VWidth: 0
Flags: HW
HStem: 0 70<139 445> 647 20G<65 139>
VStem: 65 74<70 667>
AnchorPoint: "DoubleTop" -10 0 basechar 0
AnchorPoint: "Apos" 202 667 basechar 0
AnchorPoint: "Bottom" 252 0 basechar 0
AnchorPoint: "Center" 255 334 basechar 0
AnchorPoint: "Top" 103 667 basechar 0
LayerCount: 4
Back
Fore
SplineSet
85 667 m 1
 93 667 l 1
 93 8 l 5
 425 8 l 5
 425 0 l 1
 85 0 l 1
 85 667 l 1
EndSplineSet
Layer: 2
Layer: 3
EndChar
StartChar: M
Encoding: 77 77 27
Width: 700
VWidth: 0
Flags: HW
HStem: 0 21G<85 93 607 615> 647 20G<85 102.479 597.521 615>
VStem: 85 8<0 647.913> 607 8<0 647.913>
LayerCount: 4
Back
Fore
SplineSet
85 667 m 1
 92 667 l 1
 350 174.603515625 l 1
 608 667 l 1
 615 667 l 1
 615 0 l 1
 607 0 l 1
 607 647.913085938 l 1
 354 165 l 5
 354 165 346 165 346 165 c 1
 93 647.913085938 l 1
 93 0 l 1
 85 0 l 1
 85 667 l 1
EndSplineSet
Layer: 2
Layer: 3
EndChar
StartChar: N
Encoding: 78 78 33
Width: 570
VWidth: 0
Flags: W
HStem: 0 21G<85 93 466.147 485> 647 20G<85 103.853 477 485>
VStem: 85 8<0 649.65> 477 8<17.3496 667>
AnchorPoint: "DoubleTop" -10 0 basechar 0
AnchorPoint: "Apos" -10 0 basechar 0
AnchorPoint: "Center" -13 0 basechar 0
AnchorPoint: "Bottom" 287 0 basechar 0
AnchorPoint: "Top" 285 667 basechar 0
LayerCount: 4
Back
Fore
SplineSet
85 667 m 5
 92 667 l 5
 477 17.349609375 l 5
 477 667 l 5
 485 667 l 5
 485 0 l 5
 478 0 l 5
 93 649.650390625 l 5
 93 0 l 5
 85 0 l 5
 85 667 l 5
EndSplineSet
Layer: 2
Layer: 3
EndChar
StartChar: O
Encoding: 79 79 16
Width: 580
VWidth: 0
Flags: HW
HStem: -6 8<242.604 337.396> 665 8<242.604 337.396>
VStem: 75 8<169.193 219 448 497.807> 497 8<169.193 219 448 497.807>
AnchorPoint: "DoubleTop" -10 0 basechar 0
AnchorPoint: "Apos" -10 0 basechar 0
AnchorPoint: "Center" -10 0 basechar 0
AnchorPoint: "Bottom" 290 0 basechar 0
AnchorPoint: "Top" 290 667 basechar 0
LayerCount: 4
Back
SplineSet
497 219 m 5
 497 78 421 2 290 2 c 4
 159 2 83 78 83 219 c 5
 83 448 l 5
 83 589 159 665 290 665 c 4
 421 665 497 589 497 448 c 5
 497 219 l 5
505 448 m 5
 505 594 426 673 290 673 c 4
 154 673 75 594 75 448 c 5
 75 219 l 5
 75 73 154 -6 290 -6 c 4
 426 -6 505 73 505 219 c 5
 505 448 l 5
EndSplineSet
Fore
SplineSet
497 418 m 5
 497 458.477539062 496.600585938 487.782226562 489.6796875 518 c 4
 467.69921875 613.974609375 397.330078125 665 290 665 c 4
 182.669921875 665 112.30078125 613.974609375 90.3203125 518 c 4
 83.3994140625 487.782226562 83 458.477539062 83 418 c 5
 83 249 l 5
 83 208.522460938 83.399207008 179.217576154 90.3199606043 148.999979134 c 4
 112.301167027 53.0249919541 182.67023132 2 290 2 c 4
 397.329784235 2 467.698842512 53.0250336857 489.680048935 149.000020866 c 4
 496.600802531 179.217617886 497 208.522460938 497 249 c 5
 497 418 l 5
505 249 m 5
 505 208.62109375 504.611150949 179.276819826 497.954355807 148.999979198 c 4
 475.735691505 47.9436985584 402.35945251 -6 290 -6 c 4
 177.640532074 -6 104.264299381 47.9437401631 82.0456350791 149.000020802 c 4
 75.3888399369 179.276861431 75 208.62109375 75 249 c 5
 75 418 l 5
 75 458.37890625 75.388671875 487.72265625 82.0458984375 518 c 4
 104.264648438 619.056640625 177.640625 673 290 673 c 4
 402.359375 673 475.735351562 619.056640625 497.954101562 518 c 4
 504.611328125 487.723632812 505 458.37890625 505 418 c 5
 505 249 l 5
EndSplineSet
Layer: 2
Layer: 3
EndChar
StartChar: P
Encoding: 80 80 31
Width: 502
VWidth: 0
Flags: HW
HStem: 0 21G<85 93> 295 8<93 303.659> 659 8<93 303.659>
VStem: 85 8<0 295 303 659> 429 8<434.42 527.58>
LayerCount: 4
Back
Fore
SplineSet
93 659 m 1
 93 303 l 1
 262 303 l 6
 354 303 429 349 429 481 c 0
 429 613 354 659 262 659 c 6
 93 659 l 1
85 667 m 1
 262 667 l 6
 358 667 437 619 437 481 c 0
 437 343 358 295 262 295 c 6
 93 295 l 1
 93 0 l 1
 85 0 l 1
 85 667 l 1
EndSplineSet
Layer: 2
Layer: 3
EndChar
StartChar: Q
Encoding: 81 81 30
Width: 580
VWidth: 0
Flags: W
HStem: -6 8<243.692 336.308> 665 8<243.692 336.308>
VStem: 75 8<167.435 499.565> 497 8<167.435 499.565>
LayerCount: 4
Back
SplineSet
509.453125 -58.578125 m 5
 513.927734375 -51.9462890625 l 5
 398.546875 23.578125 l 5
 394.072265625 16.9462890625 l 5
 509.453125 -58.578125 l 5
497 418 m 5
 497 458.477539062 496.600585938 487.782226562 489.6796875 518 c 4
 467.69921875 613.974609375 397.330078125 665 290 665 c 4
 182.669921875 665 112.30078125 613.974609375 90.3203125 518 c 4
 83.3994140625 487.782226562 83 458.477539062 83 418 c 5
 83 249 l 5
 83 208.522460938 83.3994140625 179.217773438 90.3203125 149 c 4
 112.30078125 53.025390625 182.669921875 2 290 2 c 4
 397.330078125 2 467.69921875 53.025390625 489.6796875 149 c 4
 496.600585938 179.217773438 497 208.522460938 497 249 c 5
 497 418 l 5
505 249 m 5
 505 208.62109375 504.611328125 179.276367188 497.954101562 149 c 4
 475.735351562 47.943359375 402.359375 -6 290 -6 c 4
 177.640625 -6 104.264648438 47.943359375 82.0458984375 149 c 4
 75.388671875 179.27734375 75 208.62109375 75 249 c 5
 75 418 l 5
 75 458.37890625 75.388671875 487.72265625 82.0458984375 518 c 4
 104.264648438 619.056640625 177.640625 673 290 673 c 4
 402.359375 673 475.735351562 619.056640625 497.954101562 518 c 4
 504.611328125 487.723632812 505 458.37890625 505 418 c 5
 505 249 l 5
EndSplineSet
Fore
SplineSet
509.453125 -58.578125 m 1
 513.927734375 -51.9462890625 l 1
 398.546875 23.578125 l 1
 394.072265625 16.9462890625 l 1
 509.453125 -58.578125 l 1
497 418 m 1
 497 458.477539062 496.600585938 487.782226562 489.6796875 518 c 0
 467.69921875 613.974609375 397.330078125 665 290 665 c 0
 182.669921875 665 112.30078125 613.974609375 90.3203125 518 c 0
 83.3994140625 487.782226562 83 458.477539062 83 418 c 1
 83 249 l 1
 83 208.522460938 83.3994140625 179.217773438 90.3203125 149 c 0
 112.30078125 53.025390625 182.669921875 2 290 2 c 0
 397.330078125 2 467.69921875 53.025390625 489.6796875 149 c 0
 496.600585938 179.217773438 497 208.522460938 497 249 c 1
 497 418 l 1
505 249 m 1
 505 208.62109375 504.611328125 179.276367188 497.954101562 149 c 0
 475.735351562 47.943359375 402.359375 -6 290 -6 c 0
 177.640625 -6 104.264648438 47.943359375 82.0458984375 149 c 0
 75.388671875 179.27734375 75 208.62109375 75 249 c 1
 75 418 l 1
 75 458.37890625 75.388671875 487.72265625 82.0458984375 518 c 0
 104.264648438 619.056640625 177.640625 673 290 673 c 0
 402.359375 673 475.735351562 619.056640625 497.954101562 518 c 0
 504.611328125 487.723632812 505 458.37890625 505 418 c 1
 505 249 l 1
EndSplineSet
Layer: 2
Layer: 3
EndChar
StartChar: R
Encoding: 82 82 32
Width: 527
VWidth: 0
Flags: HW
HStem: 0 21G<85 93 439.398 457> 295 8<93 313.659> 659 8<93 313.659>
VStem: 85 8<0 295 303 659> 439 8<434.105 527.58>
AnchorPoint: "DoubleTop" -10 0 basechar 0
AnchorPoint: "Apos" -10 0 basechar 0
AnchorPoint: "Center" -15 0 basechar 0
AnchorPoint: "Bottom" 267 0 basechar 0
AnchorPoint: "Top" 245 667 basechar 0
LayerCount: 4
Back
SplineSet
272 303 m 4
 364 303 439 349 439 481 c 4
 439 613 364 659 272 659 c 4
 93 659 l 5
 93 303 l 5
 272 303 l 4
272 295 m 4
 93 295 l 5
 93 0 l 5
 85 0 l 5
 85 667 l 5
 272 667 l 4
 368 667 447 619 447 481 c 4
 447 343 368 295 272 295 c 4
322 305 m 5
 457 0 l 5
 448.25 0 l 5
 313.25 305 l 5
 322 305 l 5
EndSplineSet
Fore
SplineSet
85 667 m 5
 272 667 l 2
 368 667 447 619 447 481 c 0
 447 369.001953125 394.965820312 316.283203125 324.0390625 300.393554688 c 1
 457 0 l 1
 448.25 0 l 1
 316.009765625 298.764648438 l 1
 301.927734375 296.19921875 287.176757812 295 272 295 c 2
 93 295 l 1
 93 0 l 1
 85 0 l 1
 85 667 l 5
93 659 m 1
 93 303 l 1
 272 303 l 2
 364 303 439 349 439 481 c 0
 439 613 364 659 272 659 c 2
 93 659 l 1
EndSplineSet
Layer: 2
Layer: 3
EndChar
StartChar: S
Encoding: 83 83 35
Width: 515
VWidth: 0
Flags: W
HStem: -6 8<196.605 288.987> 665 8<205.413 291.531>
VStem: 65.0127 8<475.725 543.342> 427.013 8<128.236 201.797>
LayerCount: 4
Back
SplineSet
245 348 m 0
 135 348 65 414 65 511 c 0
 65 608 145 673 245 673 c 1024
245 665 m 0
 150 665 73 603 73 511 c 0
 73 419 140 356 245 356 c 1024
245 336 m 0
 361 336 435 267 435 165 c 0
 435 63 361 -6 245 -6 c 1024
245 2 m 0
 356 2 427 68 427 165 c 0
 427 262 356 328 245 328 c 1024
EndSplineSet
Fore
SplineSet
245.012695312 673 m 4
 319.971679688 673 370.653320312 649.000976562 410.0234375 603.010742188 c 1
 404.134765625 597.122070312 l 1
 366.149414062 641.75390625 317.462890625 665 245.012695312 665 c 0
 142.848632812 665 73.0126953125 597.56132108 73.0126953125 511 c 0
 73.0126953125 398.063941698 165.702320424 362.7825781 245.836642541 345.914219075 c 0
 332.919868399 327.583108508 435.012695312 289.059000942 435.012695312 165 c 0
 435.012695312 66.7004197116 363.844726562 -6 245.012695312 -6 c 0
 163.381835938 -6 98.68359375 22.4619140625 60 76.7900390625 c 1
 66.4775390625 81.9716796875 l 1
 103.799804688 29.453125 166.278320312 2 245.012695312 2 c 0
 360.180664062 2 427.012695312 71.2995802884 427.012695312 165 c 0
 427.012695312 282.940999058 331.080446304 319.794987128 244.188748084 338.085780925 c 0
 163.840088143 354.999258288 65.0126953125 391.936058302 65.0126953125 511 c 0
 65.0126953125 602.43867892 139.176757812 673 245.012695312 673 c 4
EndSplineSet
Layer: 2
SplineSet
245.012695312 -2 m 4
 362.012695312 -2 431.012695312 69 431.012695312 165 c 4
 431.012695312 286 332.000157352 323.689047818 245.012695312 342 c 4
 164.771204284 358.890918194 69.0126953125 395 69.0126953125 511 c 4
 69.0126953125 600 141.012695312 669 245.012695312 669 c 1028
EndSplineSet
Layer: 3
EndChar
StartChar: T
Encoding: 84 84 29
Width: 540
VWidth: 0
Flags: W
HStem: 0 21G<266 274> 659 8<65 266 274 475>
VStem: 266 8<0 659>
LayerCount: 4
Back
Fore
SplineSet
65 667 m 1
 475 667 l 1
 475 659 l 1
 274 659 l 1
 274 0 l 1
 266 0 l 5
 266 659 l 1
 65 659 l 1
 65 667 l 1
EndSplineSet
Layer: 2
Layer: 3
EndChar
StartChar: U
Encoding: 85 85 24
Width: 550
VWidth: 0
Flags: W
HStem: -6 8<233.408 316.592> 647 20G<80 88 462 470>
VStem: 80 8<163.224 667> 462 8<163.224 667>
AnchorPoint: "DoubleTop" -10 0 basechar 0
AnchorPoint: "Apos" -10 0 basechar 0
AnchorPoint: "Center" -10 0 basechar 0
AnchorPoint: "Bottom" 273 0 basechar 0
AnchorPoint: "Top" 275 667 basechar 0
LayerCount: 4
Back
Fore
SplineSet
80 249 m 14
 80 667 l 21
 88 667 l 5
 88 249 l 6
 88 208.522460938 88.3251606815 179.399075281 94.399491153 149.000020866 c 4
 113.580659213 53.0076519407 175.863329065 2 275 2 c 4
 374.136656567 2 436.419332419 53.0076102091 455.600500479 148.999979134 c 4
 461.67483095 179.399033549 462 208.522460938 462 249 c 6
 462 667 l 21
 470 667 l 13
 470 249 l 6
 470 208.62109375 469.670279374 179.440740896 463.808320642 149.000020802 c 4
 444.340944786 47.9073713303 379.097742343 -6 275 -6 c 4
 170.902271939 -6 105.659063248 47.9073297255 86.1916873926 148.999979198 c 4
 80.3297286599 179.440699291 80 208.62109375 80 249 c 14
EndSplineSet
Layer: 2
Layer: 3
EndChar
StartChar: V
Encoding: 86 86 25
Width: 590
Flags: W
HStem: 0 21G<283.624 306.376> 647 20G<45 60.9027 529.096 545>
LayerCount: 4
Back
Fore
SplineSet
45 667 m 5
 53.5263671875 667 l 1
 295 12.275390625 l 1
 536.47265625 667 l 1
 545 667 l 1
 299 0 l 1
 291 0 l 1
 45 667 l 5
EndSplineSet
Layer: 2
Layer: 3
EndChar
StartChar: W
Encoding: 87 87 26
Width: 784
VWidth: 0
Flags: HW
HStem: 0 21G<203.483 281 503 579.487> 647 20G<25 105.035 676.991 757>
VStem: 25 75<641.625 667> 682 75<641.486 667>
AnchorPoint: "DoubleTop" -10 0 basechar 0
AnchorPoint: "Apos" -10 0 basechar 0
AnchorPoint: "Bottom" 0 0 basechar 0
AnchorPoint: "Center" 0 0 basechar 0
AnchorPoint: "Top" 391 667 basechar 0
LayerCount: 4
Back
Fore
SplineSet
739 667 m 5
 546 0 l 5
 538 0 l 5
 392 490.700195312 l 5
 343.333007812 327.1328125 294.666992188 163.567382812 246 0 c 5
 238 0 l 5
 45 667 l 5
 53.328125 667 l 5
 242.05078125 14.78125 l 5
 387.01953125 502.013671875 l 5
 396.98046875 502.013671875 l 5
 445.302734375 339.602539062 493.625976562 177.192382812 541.94921875 14.78125 c 5
 730.671875 667 l 5
 739 667 l 5
EndSplineSet
Layer: 2
Layer: 3
EndChar
StartChar: X
Encoding: 88 88 36
Width: 548
VWidth: 0
Flags: HW
HStem: 0 21G<35 127.408 419.664 512> 647 20G<36 130.232 420.551 512>
LayerCount: 4
Back
Fore
SplineSet
64.5029296875 0 m 5
 55 0 l 5
 268.794921875 333.5 l 5
 55 667 l 5
 64.5029296875 667 l 5
 274 340.204101562 l 5
 483.497070312 667 l 5
 493 667 l 5
 279.205078125 333.5 l 5
 493 0 l 5
 483.497070312 0 l 5
 274 326.795898438 l 5
 64.5029296875 0 l 5
EndSplineSet
Layer: 2
Layer: 3
EndChar
StartChar: Y
Encoding: 89 89 37
Width: 521
VWidth: 0
Flags: HW
HStem: 0 21G<256 264> 647 20G<45 64.9162 456.022 476>
VStem: 256 8<0 277>
AnchorPoint: "DoubleTop" -10 0 basechar 0
AnchorPoint: "Apos" -10 0 basechar 0
AnchorPoint: "Bottom" 0 0 basechar 0
AnchorPoint: "Center" 0 0 basechar 0
AnchorPoint: "Top" 260.5 667 basechar 0
LayerCount: 4
Back
Fore
SplineSet
45 667 m 5
 54.095703125 667 l 1
 260.006835938 286.40625 l 1
 466.893554688 667 l 1
 476 667 l 1
 264 277 l 1
 264 0 l 1
 256 0 l 1
 256 277 l 1
 45 667 l 5
EndSplineSet
Layer: 2
Layer: 3
EndChar
StartChar: Z
Encoding: 90 90 38
Width: 520
VWidth: 0
Flags: W
HStem: 0 8<79.6504 450> 659 8<80 430.35>
AnchorPoint: "DoubleTop" -10 0 basechar 0
AnchorPoint: "Apos" -10 0 basechar 0
AnchorPoint: "Center" -5 0 basechar 0
AnchorPoint: "Bottom" 260 0 basechar 0
AnchorPoint: "Top" 260 667 basechar 0
LayerCount: 4
Back
Fore
SplineSet
80 667 m 5
 440 667 l 5
 440 660 l 5
 79.650390625 8 l 5
 450 8 l 5
 450 0 l 5
 70 0 l 5
 70 7 l 5
 430.349609375 659 l 5
 80 659 l 5
 80 667 l 5
EndSplineSet
Layer: 2
Layer: 3
EndChar
StartChar: bracketleft
Encoding: 91 91 72
Width: 269
VWidth: 0
Flags: W
HStem: -190 8<103 209> 789 8<103 209>
VStem: 95 8<-182 789>
LayerCount: 4
Back
Fore
SplineSet
95 797 m 5
 209 797 l 5
 209 789 l 5
 103 789 l 5
 103 -182 l 5
 209 -182 l 5
 209 -190 l 5
 95 -190 l 5
 95 797 l 5
EndSplineSet
Layer: 2
Layer: 3
EndChar
StartChar: bracketright
Encoding: 93 93 50
Width: 269
VWidth: 0
Flags: W
VStem: 60 114
LayerCount: 4
Back
Fore
SplineSet
174 797 m 5
 60 797 l 5
 60 789 l 5
 166 789 l 5
 166 -182 l 5
 60 -182 l 5
 60 -190 l 5
 174 -190 l 5
 174 797 l 5
EndSplineSet
Layer: 2
Layer: 3
EndChar
StartChar: asciicircum
Encoding: 94 94 113
Width: 368
Flags: W
HStem: 546 121
VStem: 50 268
AnchorPoint: "Top" 184 477 mark 0
LayerCount: 4
Back
Fore
SplineSet
145 667 m 1
 223 667 l 1
 318 546 l 1
 252 546 l 1
 184 623 l 1
 116 546 l 1
 50 546 l 1
 145 667 l 1
EndSplineSet
Validated: 1
Layer: 2
SplineSet
179 619 m 5
 100 546 l 5
 30 546 l 5
 161 667 l 5
 197 667 l 5
 328 546 l 5
 258 546 l 5
 179 619 l 5
EndSplineSet
Layer: 3
EndChar
StartChar: underscore
Encoding: 95 95 130
Width: 440
VWidth: 0
Flags: W
HStem: -18 8<35 405>
LayerCount: 4
Back
Fore
SplineSet
35 -10 m 1
 405 -10 l 1
 405 -18 l 5
 35 -18 l 5
 35 -10 l 1
EndSplineSet
Layer: 2
Layer: 3
EndChar
StartChar: a
Encoding: 97 97 47
Width: 458
VWidth: 0
Flags: W
HStem: -6 65<138.27 279.489> 233 61<146.742 330> 419 64<121.403 291.705>
VStem: 40 68<87.8244 197.43> 330 68<0 52 110.406 231.079 289 378.147>
AnchorPoint: "DoubleTop" -5 0 basechar 0
AnchorPoint: "Apos" -5 0 basechar 0
AnchorPoint: "Center" -5 0 basechar 0
AnchorPoint: "Bottom" 364 0 basechar 0
AnchorPoint: "Top" 223 476 basechar 0
LayerCount: 4
Back
Fore
SplineSet
223 483 m 4
 320 483 373 433 391 353 c 4
 398 325 398 296 398 258 c 6
 398 0 l 5
 330 0 l 5
 330 52 l 5
 298 19 260 -6 197 -6 c 4
 110 -6 40 53 40 143 c 4
 40 250 126 294 251 294 c 4
 273 294 304 293 330 289 c 5
 330 299 330 326 322 352 c 4
 304 407 259 419 223 419 c 4
 180 419 138 409 102 387 c 5
 68 442 l 5
 110 469 162 483 223 483 c 4
330 229 m 5
 304 232 280 233 259 233 c 4
 197 233 108 225 108 143 c 4
 108 94 145 59 205 59 c 4
 255 59 305 82 323 143 c 4
 329 164 330 183 330 210 c 6
 330 229 l 5
EndSplineSet
Validated: 1
Layer: 2
Layer: 3
EndChar
StartChar: b
Encoding: 98 98 55
Width: 470
VWidth: 0
Flags: W
HStem: -6 8<201.356 278.628> 0 21G<75 83> 475 8<202.954 277.102> 647 20G<75 83>
VStem: 75 8<0 121.58 139.371 338.036 355.42 667> 397 8<139.401 338.009>
LayerCount: 4
Back
Fore
SplineSet
75 667 m 5x7c
 83 667 l 1
 83 355.419921875 l 1
 100.96484375 434.46875 153.46484375 483 240 483 c 0
 326.612304688 483 380.354492188 433.463867188 398.340820312 353 c 0
 404.884765625 323.72265625 405 296.368164062 405 258 c 2
 405 219 l 2
 405 180.239257812 404.76171875 152.254882812 398.116210938 123 c 0
 379.966796875 43.1162109375 326.252929688 -6 240 -6 c 0xbc
 153.46484375 -6 100.96484375 42.53125 83 121.580078125 c 1
 83 0 l 1
 75 0 l 1
 75 667 l 5x7c
240 475 m 0
 158.302734375 475 107.501953125 428.58984375 89.9111328125 353 c 0
 83.111328125 323.780273438 83 296.458984375 83 258 c 2
 83 219 l 2
 83 180.14453125 83.244140625 152.1953125 90.1455078125 123 c 0
 107.880859375 47.9775390625 158.663085938 2 240 2 c 0
 321.336914062 2 372.119140625 47.9775390625 389.854492188 123 c 0
 396.755859375 152.1953125 397 180.14453125 397 219 c 2
 397 258 l 2
 397 296.458984375 396.888671875 323.780273438 390.088867188 353 c 0
 372.498046875 428.58984375 321.697265625 475 240 475 c 0
EndSplineSet
Layer: 2
SplineSet
75 667 m 1
 83 667 l 1
 83 0 l 1
 75 0 l 1
 75 667 l 1
405 189 m 5
 405 71 348 -6 240 -6 c 4
 131 -6 76 71 76 189 c 5
 76 288 l 5
 76 406 131 483 240 483 c 4
 348 483 405 406 405 288 c 5
 405 189 l 5
397 288 m 5
 397 401.159179688 343.063476562 475 240 475 c 4
 136.936523438 475 83 401.159179688 83 288 c 5
 83 189 l 5
 83 75.8408203125 136.936523438 2 240 2 c 4
 343.063476562 2 397 75.8408203125 397 189 c 5
 397 288 l 5
EndSplineSet
Layer: 3
SplineSet
405 219 m 1
 405 180.239257812 404.76171875 152.254882812 398.116210938 123 c 0
 379.966796875 43.1162109375 326.252929688 -6 240 -6 c 0
 131 -6 76 71 76 189 c 1
 76 288 l 1
 76 406 131 483 240 483 c 0
 326.612304688 483 380.354492188 433.463867188 398.340820312 353 c 0
 404.884765625 323.72265625 405 296.368164062 405 258 c 1
 405 219 l 1
397 258 m 1
 397 296.458984375 396.888671875 323.780273438 390.088867188 353 c 0
 372.498046875 428.58984375 321.697265625 475 240 475 c 0
 158.302734375 475 107.501953125 428.58984375 89.9111328125 353 c 0
 83.111328125 323.780273438 83 296.458984375 83 258 c 1
 83 219 l 1
 83 180.14453125 83.244140625 152.1953125 90.1455078125 123 c 0
 107.880859375 47.9775390625 158.663085938 2 240 2 c 0
 321.336914062 2 372.119140625 47.9775390625 389.854492188 123 c 0
 396.755859375 152.1953125 397 180.14453125 397 219 c 1
 397 258 l 1
75 667 m 1
 83 667 l 1
 83 0 l 1
 75 0 l 1
 75 667 l 1
EndSplineSet
EndChar
StartChar: c
Encoding: 99 99 54
Width: 422
VWidth: 0
Flags: W
HStem: -6 8<200.906 286.86> 475 8<202.468 286.06>
VStem: 65 8<143.429 334.01>
AnchorPoint: "DoubleTop" 9.63086 0 basechar 0
AnchorPoint: "Apos" 9.63086 0 basechar 0
AnchorPoint: "Center" 14.6309 0 basechar 0
AnchorPoint: "Bottom" 254.631 0 basechar 0
AnchorPoint: "Top" 254.631 477 basechar 0
LayerCount: 4
Back
Fore
SplineSet
352.440429688 447.21484375 m 5
 323.287109375 464.805664062 285.725585938 475 240 475 c 4
 158.302734375 475 101.142578125 428.619140625 81.0224609375 353 c 0
 73.30859375 324.008789062 73 296.458984375 73 258 c 1
 73 219 l 1
 73 180.14453125 73.42578125 151.950195312 81.2919921875 123 c 0
 101.674804688 47.9794921875 158.663085938 2 240 2 c 0
 291.16015625 2 332.100585938 14.76171875 362.478515625 36.3662109375 c 1
 367.333007812 29.7236328125 l 1
 335.661132812 7.23828125 293.07421875 -6 240 -6 c 0
 153.747070312 -6 93.6015625 43.0986328125 72.9375 123 c 0
 65.42578125 152.043945312 65 180.239257812 65 219 c 1
 65 258 l 1
 65 296.368164062 65.2705078125 323.9296875 72.6806640625 353 c 0
 93.19140625 433.466796875 153.387695312 483 240 483 c 4
 287.501953125 483 326.603515625 472.395507812 356.99609375 454.047851562 c 5
 352.440429688 447.21484375 l 5
EndSplineSet
Layer: 2
Layer: 3
EndChar
StartChar: d
Encoding: 100 100 49
Width: 470
VWidth: 0
Flags: W
HStem: -6 8<191.372 268.644> 0 21G<387 395> 475 8<192.898 267.046> 647 20G<387 395>
VStem: 65 8<139.401 338.009> 387 8<0 121.58 139.371 338.036 355.42 667>
LayerCount: 4
Back
Fore
SplineSet
230 483 m 4xbc
 316.53515625 483 369.03515625 434.46875 387 355.419921875 c 1
 387 667 l 1
 395 667 l 1
 395 0 l 1
 387 0 l 1x7c
 387 121.580078125 l 1
 369.03515625 42.53125 316.53515625 -6 230 -6 c 0
 143.747070312 -6 90.033203125 43.1162109375 71.8837890625 123 c 0
 65.23828125 152.254882812 65 180.239257812 65 219 c 2
 65 258 l 2
 65 296.368164062 65.115234375 323.72265625 71.6591796875 353 c 0
 89.6455078125 433.463867188 143.387695312 483 230 483 c 4xbc
230 475 m 0
 148.302734375 475 97.501953125 428.58984375 79.9111328125 353 c 0
 73.111328125 323.780273438 73 296.458984375 73 258 c 2
 73 219 l 2
 73 180.14453125 73.244140625 152.1953125 80.1455078125 123 c 0
 97.880859375 47.9775390625 148.663085938 2 230 2 c 0xbc
 311.336914062 2 362.119140625 47.9775390625 379.854492188 123 c 0
 386.755859375 152.1953125 387 180.14453125 387 219 c 2
 387 258 l 2
 387 296.458984375 386.888671875 323.780273438 380.088867188 353 c 0
 362.498046875 428.58984375 311.697265625 475 230 475 c 0
EndSplineSet
Layer: 2
Layer: 3
EndChar
StartChar: e
Encoding: 101 101 57
Width: 490
VWidth: 0
Flags: HW
HStem: -6 64<173.645 354.722> 218 64<123.16 366.84> 419 64<172.484 317.516>
VStem: 55 68.0001<109.277 218 282 367.723> 366.84 68.16<282 367.723>
AnchorPoint: "DoubleTop" 0 0 basechar 0
AnchorPoint: "Apos" 0 0 basechar 0
AnchorPoint: "Center" 5 0 basechar 0
AnchorPoint: "Bottom" 250 0 basechar 0
AnchorPoint: "Top" 245 477 basechar 0
LayerCount: 4
Back
SplineSet
78 246 m 5
 78 254 l 5
 414 254 l 5
 414 246 l 5
 78 246 l 5
249 -6 m 4
 135 -6 75 71 75 189 c 5
 75 258 l 5
 75 296.368164062 75.1740106147 323.780715126 81.9735498378 352.999994145 c 4
 100.699480858 433.469888561 156.585451268 483 244 483 c 4
 330.612576194 483 387.657474659 433.47775426 406.829978715 353.000005855 c 4
 413.78241582 323.816729509 414 296.368164062 414 258 c 5
 414 246 l 5
 406 246 l 5
 406 258 l 5
 406 296.458984375 405.790808989 323.891122651 398.533152121 352.999994439 c 4
 379.682598016 428.605437431 325.69742478 475 244 475 c 4
 162.302579226 475 108.317404759 428.605448552 89.4668506539 353.000005561 c 4
 82.209193786 323.891133772 82 296.458984375 82 258 c 5
 82 189 l 5
 82 75.8408203125 140.936523438 2 249 2 c 4
 249 -6 l 4
EndSplineSet
Fore
SplineSet
244 483 m 0
 330.612576194 483 387.657474659 433.47775426 406.829978715 353.000005855 c 0
 413.78241582 323.816729509 414 296.368164062 414 258 c 2
 414 246 l 1
 82 246 l 1
 82 189 l 2
 82 75.8408203125 140.936523438 2 249 2 c 1
 249 -6 l 1
 135 -6 75 71 75 189 c 2
 75 258 l 2
 75 296.368164062 75.1740106147 323.780715126 81.9735498378 352.999994145 c 0
 100.699480858 433.469888561 156.585451268 483 244 483 c 0
406 254 m 1
 406 258 l 2
 406 296.458984375 405.790808989 323.891122651 398.533152121 352.999994439 c 0
 379.682598016 428.605437431 325.69742478 475 244 475 c 0
 162.302579226 475 108.317404759 428.605448552 89.4668506539 353.000005561 c 0
 82.209193786 323.891133772 82 296.458984375 82 258 c 2
 82 254 l 1
 406 254 l 1
EndSplineSet
Layer: 2
SplineSet
250 58 m 5
 299 58 340.914321512 67.5117193384 378 93 c 5
 413 39 l 5
 368.335406021 6.90523337541 317 -6 250 -6 c 5
 250 58 l 5
245 419 m 5
 192.890625 419 153.831054688 393.220703125 135.670898438 353 c 4
 125.971211518 331.518285527 123.69157046 309.628465518 123.159958673 282 c 5
 366.840041327 282 l 5
 366.30842954 309.628465518 364.028788482 331.518285527 354.329101562 353 c 4
 336.168945312 393.220703125 297.109375 419 245 419 c 5
 245 483 l 5
 339.631835938 483 404.713867188 433.482421875 426.731445312 353 c 4
 434.647460938 324.063476562 435 296.368164062 435 258 c 6
 435 218 l 5
 123.000076272 218 l 5
 123.006334116 178.872835358 123.429227433 151.111398892 135.670898438 124 c 4
 153.831054688 83.779296875 192.890625 58 250 58 c 5
 250 -6 l 5
 150.368164062 -6 85.2861328125 43.517578125 63.2685546875 124 c 4
 55.3525390625 152.936523438 55 180.631835938 55 219 c 6
 55 258 l 6
 55 296.368164062 55.3525390625 324.063476562 63.2685546875 353 c 4
 85.2861328125 433.482421875 150.368164062 483 245 483 c 5
 245 419 l 5
EndSplineSet
Layer: 3
EndChar
StartChar: f
Encoding: 102 102 60
Width: 370
VWidth: 0
Flags: HW
HStem: 0 21G<135.004 143.004> 469 8<55.0039 135.004 143.004 285.004> 665 8<235.976 309.979>
VStem: 135.004 8<0 469 477 559.815>
LayerCount: 4
Back
SplineSet
115 520 m 2
 115 612 175.237304688 673 267.422851562 673 c 0
 291.225585938 673 302.958984375 669.936523438 322.108398438 662.32421875 c 1
 301.784179688 600.3515625 l 1
 289.59765625 606.25 284.04296875 608 267.686523438 608 c 0
 217.677734375 608 185 573 185 520 c 2
 185 477 l 1
 295 477 l 1
 295 416 l 1
 185 416 l 1
 185 0 l 1
 115 0 l 1
 115 416 l 1
 35 416 l 1
 35 477 l 1
 115 477 l 1
 115 520 l 2
EndSplineSet
Fore
SplineSet
135.00390625 500 m 18
 135.00390625 523.970703125 135.120707941 534.081947378 136.520756786 545.999995172 c 0
 145.608240499 623.358057065 195.173243108 673 267.498046875 673 c 0
 286.629821906 673 305.363224701 669.52619632 322.80078125 662.984375 c 1
 320.092773438 655.3515625 l 1
 303.480912336 661.652332935 285.660099314 665 267.528320312 665 c 0
 199.974013967 665 153.630091351 618.529545893 144.596059416 546.000004553 c 0
 143.112841695 534.092021299 143.00390625 523.990234375 143.00390625 500 c 10
 143.00390625 477 l 1
 285.00390625 477 l 1
 285.00390625 469 l 1
 143.00390625 469 l 1
 143.00390625 0 l 1
 135.00390625 0 l 1
 135.00390625 469 l 1
 55.00390625 469 l 1
 55.00390625 477 l 1
 135.00390625 477 l 1
 135.00390625 500 l 18
EndSplineSet
Layer: 2
Layer: 3
EndChar
StartChar: g
Encoding: 103 103 59
Width: 450
VWidth: 0
Flags: W
HStem: -6 8<181.372 258.644> 475 8<182.898 257.046>
VStem: 55 8<139.401 338.009> 377 8<0 121.58 139.371 338.036 355.42 477>
AnchorPoint: "DoubleTop" -20 0 basechar 0
AnchorPoint: "Apos" -20 0 basechar 0
AnchorPoint: "Center" -20 0 basechar 0
AnchorPoint: "Bottom" 215 -185 basechar 0
AnchorPoint: "Top" 210 477 basechar 0
LayerCount: 4
Back
SplineSet
215 -125 m 4
 267.109375 -125 304.168945312 -101.220703125 322.329101562 -61 c 4
 334.674804688 -33.658203125 335 -5.6552734375 335 34 c 6
 335 45.052734375 l 5
 308.447265625 12.421875 267.716796875 -6 210 -6 c 4
 124.991210938 -6 63.8291015625 43.53515625 42.869140625 124 c 4
 35.3076171875 153.03125 35 180.631835938 35 219 c 6
 35 258 l 6
 35 296.368164062 35.3076171875 323.96875 42.869140625 353 c 4
 63.8291015625 433.46484375 124.991210938 483 210 483 c 4
 267.716796875 483 308.447265625 464.578125 335 431.947265625 c 5
 335 477 l 5
 405 477 l 5
 405 34 l 6
 405 -4.3681640625 404.647460938 -32.0634765625 396.731445312 -61 c 4
 374.713867188 -141.482421875 309.631835938 -191 215 -191 c 4
 148 -191 96.6650390625 -178.094726562 52 -146 c 5
 88 -91 l 5
 125.0859375 -116.48828125 166 -125 215 -125 c 4
220 417 m 4
 167.890625 417 133.165039062 393.235351562 116.499023438 353 c 4
 105.401367188 326.20703125 105 297.655273438 105 258 c 6
 105 219 l 6
 105 179.344726562 105.401367188 150.79296875 116.499023438 124 c 4
 133.165039062 83.7646484375 167.890625 60 220 60 c 4
 271.67578125 60 306.259765625 83.3720703125 323.081054688 123 c 4
 334.802734375 150.615234375 335 178.897460938 335 219 c 6
 335 258 l 6
 335 298.102539062 334.802734375 326.384765625 323.081054688 354 c 4
 306.259765625 393.627929688 271.67578125 417 220 417 c 4
EndSplineSet
Fore
SplineSet
385 477 m 1
 385 0 l 1
 377 0 l 1
 377 121.580078125 l 1
 359.03515625 42.53125 306.53515625 -6 220 -6 c 0
 133.747070312 -6 80.033203125 43.1162109375 61.8837890625 123 c 0
 55.23828125 152.254882812 55 180.239257812 55 219 c 2
 55 258 l 2
 55 296.368164062 55.115234375 323.72265625 61.6591796875 353 c 0
 79.6455078125 433.463867188 133.387695312 483 220 483 c 0
 306.53515625 483 359.03515625 434.46875 377 355.419921875 c 1
 377 477 l 1
 385 477 l 1
63 258 m 2
 63 219 l 2
 63 180.14453125 63.244140625 152.1953125 70.1455078125 123 c 0
 87.880859375 47.9775390625 138.663085938 2 220 2 c 0
 301.336914062 2 352.119140625 47.9775390625 369.854492188 123 c 0
 376.755859375 152.1953125 377 180.14453125 377 219 c 2
 377 258 l 2
 377 296.458984375 376.888671875 323.780273438 370.088867188 353 c 0
 352.498046875 428.58984375 301.697265625 475 220 475 c 0
 138.302734375 475 87.501953125 428.58984375 69.9111328125 353 c 0
 63.111328125 323.780273438 63 296.458984375 63 258 c 2
EndSplineSet
Layer: 2
Layer: 3
EndChar
StartChar: h
Encoding: 104 104 56
Width: 465
VWidth: 0
Flags: W
HStem: 0 21G<75 83 387 395> 475 8<198.352 271.893> 647 20G<75 83>
VStem: 75 8<0 339.355 357.962 667> 387 8<0 339.334>
LayerCount: 4
Back
SplineSet
75 667 m 5
 83 667 l 5
 83 0 l 5
 75 0 l 5
 75 667 l 5
76 288 m 5
 76 406 126 483 235 483 c 4
 321.612304688 483 372.186523438 433.47265625 388.8515625 353 c 4
 394.934570312 323.623046875 395 296.368164062 395 258 c 5
 395 0 l 5
 387 0 l 5
 387 258 l 5
 387 296.458984375 386.932617188 323.666015625 380.64453125 353 c 4
 364.434570312 428.612304688 316.697265625 475 235 475 c 4
 153.302734375 475 105.565429688 428.612304688 89.35546875 353 c 4
 83.0673828125 323.666992188 83 296.458984375 83 258 c 5
 76 288 l 5
EndSplineSet
Fore
SplineSet
75 667 m 5
 83 667 l 5
 83 357.961914062 l 5
 100.182617188 435.5078125 149.396484375 483 235 483 c 4
 321.612304688 483 372.186523438 433.47265625 388.8515625 353 c 4
 394.934570312 323.623046875 395 296.368164062 395 258 c 6
 395 0 l 5
 387 0 l 5
 387 258 l 6
 387 296.458984375 386.932617188 323.666015625 380.64453125 353 c 4
 364.434570312 428.612304688 316.697265625 475 235 475 c 4
 153.302734375 475 105.565429688 428.612304688 89.35546875 353 c 4
 83.0673828125 323.666992188 83 296.458984375 83 258 c 6
 83 0 l 5
 75 0 l 5
 75 667 l 5
EndSplineSet
Layer: 2
Layer: 3
EndChar
StartChar: i
Encoding: 105 105 52
Width: 158
VWidth: 0
Flags: HW
HStem: 0 21G<75 83> 550 20<69.0031 88.9969>
VStem: 75 8<0 477 550.003 569.997>
LayerCount: 4
Back
Fore
SplineSet
75 0 m 1
 75 477 l 1
 83 477 l 1
 83 0 l 1
 75 0 l 1
79 570 m 4
 85 570 89 566 89 560 c 4
 89 554 85 550 79 550 c 4
 73 550 69 554 69 560 c 4
 69 566 73 570 79 570 c 4
EndSplineSet
Layer: 2
Layer: 3
EndChar
StartChar: j
Encoding: 106 106 61
Width: 158
VWidth: 0
Flags: HW
HStem: -191 8<-66.5609 -4.42837> 550 20<69.0031 88.9969>
VStem: 69 20<550.003 569.997> 75 8<-92.0577 477>
LayerCount: 4
Back
Fore
SplineSet
83 -54 m 6xd0
 83 -135 37.6328125 -191 -33 -191 c 4
 -61.2666015625 -191 -85.6533203125 -184.108398438 -104.736328125 -170.213867188 c 5
 -100.040039062 -163.840820312 l 5
 -82.1884765625 -176.787109375 -59.365234375 -183 -33 -183 c 4
 32.3671875 -183 75 -133 75 -54 c 6
 75 477 l 5
 83 477 l 5
 83 -54 l 6xd0
78.787109375 570 m 4
 84.7451171875 570 89 565.95703125 89 560 c 4
 89 554.04296875 84.7451171875 550 78.787109375 550 c 4
 73.2548828125 550 69 554.04296875 69 560 c 4xe0
 69 565.95703125 73.2548828125 570 78.787109375 570 c 4
EndSplineSet
Layer: 2
Layer: 3
EndChar
StartChar: k
Encoding: 107 107 68
Width: 433
VWidth: 0
Flags: HW
HStem: 0 21G<75 83 355.15 384.521> 647 20G<75 83>
VStem: 75 8<0 667>
AnchorPoint: "DoubleTop" -10 0 basechar 0
AnchorPoint: "Apos" -10 0 basechar 0
AnchorPoint: "Top" -18 0 basechar 0
AnchorPoint: "Center" -18 0 basechar 0
AnchorPoint: "Bottom" 219 0 basechar 0
LayerCount: 4
Back
SplineSet
74.521484375 667 m 5
 82.521484375 667 l 5
 82.521484375 0 l 5
 74.521484375 0 l 5
 74.521484375 667 l 5
EndSplineSet
Fore
SplineSet
75 667 m 1
 83 667 l 1
 83 0 l 1
 75 0 l 1
 75 667 l 1
373.629882812 0 m 1
 143.34765625 249.223632812 l 1
 149.223632812 254.65234375 l 1
 384.521484375 0 l 1
 373.629882812 0 l 1
374.608398438 477 m 1
 363.446289062 477 l 1
 75.34375 180.922851562 l 1
 81.0771484375 175.34375 l 1
 374.608398438 477 l 1
EndSplineSet
Layer: 2
Layer: 3
EndChar
StartChar: l
Encoding: 108 108 51
Width: 158
VWidth: 0
Flags: HW
HStem: 0 21G<75 83> 647 20G<75 83>
VStem: 75 8<0 667>
AnchorPoint: "DoubleTop" -21 0 basechar 0
AnchorPoint: "Center" 115 334 basechar 0
AnchorPoint: "Apos" 178 667 basechar 0
AnchorPoint: "Bottom" 79 0 basechar 0
AnchorPoint: "Top" 79 667 basechar 0
LayerCount: 4
Back
Fore
SplineSet
75 667 m 5
 83 667 l 5
 83 0 l 5
 75 0 l 5
 75 667 l 5
EndSplineSet
Layer: 2
Layer: 3
EndChar
StartChar: m
Encoding: 109 109 46
Width: 737
VWidth: 0
Flags: HW
HStem: 0 21G<75 83 367 375 659 667> 475 8<189.212 260.173 481.827 553.424>
VStem: 75 8<0 344.978 363.914 477> 367 8<0 344.978> 659 8<0 344.978>
CounterMasks: 1 38
LayerCount: 4
Back
Fore
SplineSet
75 477 m 1
 83 477 l 1
 83 363.9140625 l 1
 98.6044921875 437.931640625 141.609375 483 225 483 c 0
 314.0703125 483 358.25 430.626953125 371 346.07421875 c 1
 383.75 430.626953125 427.9296875 483 517 483 c 4
 625 483 667 406 667 288 c 6
 667 0 l 5
 659 0 l 5
 659 258 l 6
 659 296.458984375 658.890625 324.458007812 653.755859375 353 c 4
 640.151367188 428.60546875 598.697265625 475 517 475 c 4
 435.302734375 475 393.848632812 428.60546875 380.244140625 353 c 0
 375.109375 324.458007812 375 296.458984375 375 258 c 2
 375 0 l 1
 367 0 l 1
 367 258 l 2
 367 296.458984375 366.890625 324.458007812 361.755859375 353 c 0
 348.151367188 428.60546875 306.697265625 475 225 475 c 0
 143.302734375 475 101.848632812 428.60546875 88.244140625 353 c 0
 83.109375 324.458007812 83 296.458984375 83 258 c 2
 83 0 l 1
 75 0 l 1
 75 477 l 1
EndSplineSet
Layer: 2
Layer: 3
EndChar
StartChar: n
Encoding: 110 110 58
Width: 445
VWidth: 0
Flags: W
HStem: 0 21G<65 73 377 385> 475 8<188.352 261.893>
VStem: 65 8<0 339.355 357.962 477> 377 8<0 339.334>
AnchorPoint: "DoubleTop" -20 0 basechar 0
AnchorPoint: "Center" -20 0 basechar 0
AnchorPoint: "Apos" 65 667 basechar 0
AnchorPoint: "Bottom" 225 0 basechar 0
AnchorPoint: "Top" 225 477 basechar 0
LayerCount: 4
Back
Fore
SplineSet
65 477 m 1
 73 477 l 1
 73 357.961914062 l 1
 90.1826171875 435.5078125 139.396484375 483 225 483 c 4
 311.612304688 483 362.186523438 433.47265625 378.8515625 353 c 4
 384.934570312 323.623046875 385 296.368164062 385 258 c 6
 385 0 l 5
 377 0 l 5
 377 258 l 6
 377 296.458984375 376.932617188 323.666015625 370.64453125 353 c 4
 354.434570312 428.612304688 306.697265625 475 225 475 c 4
 143.302734375 475 95.5654296875 428.612304688 79.35546875 353 c 0
 73.0673828125 323.666992188 73 296.458984375 73 258 c 2
 73 0 l 1
 65 0 l 1
 65 477 l 1
EndSplineSet
Layer: 2
Layer: 3
EndChar
StartChar: o
Encoding: 111 111 53
Width: 470
VWidth: 0
Flags: HW
HStem: -6 8<196.144 273.856> 475 8<196.144 273.856>
VStem: 65 8<142.099 219 258 334.901> 397 8<142.099 219 258 334.901>
AnchorPoint: "DoubleTop" -10 0 basechar 0
AnchorPoint: "Apos" -10 0 basechar 0
AnchorPoint: "Center" -10 0 basechar 0
AnchorPoint: "Bottom" 235 0 basechar 0
AnchorPoint: "Top" 235 477 basechar 0
LayerCount: 4
Back
Fore
SplineSet
405 258 m 5
 405 296.760742188 404.694335938 324.853515625 397.588867188 354 c 4
 378.119140625 433.87109375 321.252929688 483 235 483 c 4
 148.747070312 483 91.880859375 433.87109375 72.4111328125 354 c 4
 65.3056640625 324.853515625 65 296.760742188 65 258 c 5
 65 219 l 5
 65 180.239257812 65.3056640625 152.146484375 72.4111328125 123 c 4
 91.880859375 43.12890625 148.747070312 -6 235 -6 c 4
 321.252929688 -6 378.119140625 43.12890625 397.588867188 123 c 4
 404.694335938 152.146484375 405 180.239257812 405 219 c 5
 405 258 l 5
397 219 m 5
 397 180.14453125 396.69140625 152.0703125 389.28125 123 c 4
 370.163085938 47.998046875 316.336914062 2 235 2 c 4
 153.663085938 2 99.8369140625 47.998046875 80.71875 123 c 4
 73.30859375 152.0703125 73 180.14453125 73 219 c 5
 73 258 l 5
 73 296.85546875 73.30859375 324.9296875 80.71875 354 c 4
 99.8369140625 429.001953125 153.663085938 475 235 475 c 4
 316.336914062 475 370.163085938 429.001953125 389.28125 354 c 4
 396.69140625 324.9296875 397 296.85546875 397 258 c 5
 397 219 l 5
EndSplineSet
Layer: 2
Layer: 3
EndChar
StartChar: p
Encoding: 112 112 63
Width: 470
VWidth: 0
Flags: W
HStem: -185 21G<75 83> -6 8<201.356 278.628> 475 8<202.954 277.102>
VStem: 75 8<-185 121.58 139.371 338.036 355.42 477> 397 8<139.401 338.009>
LayerCount: 4
Back
Fore
SplineSet
75 477 m 1
 83 477 l 1
 83 355.419921875 l 1
 100.96484375 434.46875 153.46484375 483 240 483 c 0
 326.612304688 483 380.354492188 433.463867188 398.340820312 353 c 0
 404.884765625 323.72265625 405 296.368164062 405 258 c 2
 405 219 l 2
 405 180.239257812 404.76171875 152.254882812 398.116210938 123 c 0
 379.966796875 43.1162109375 326.252929688 -6 240 -6 c 0
 153.46484375 -6 100.96484375 42.53125 83 121.580078125 c 1
 83 -185 l 1
 75 -185 l 1
 75 477 l 1
240 475 m 4
 158.302734375 475 107.501953125 428.58984375 89.9111328125 353 c 0
 83.111328125 323.780273438 83 296.458984375 83 258 c 2
 83 219 l 2
 83 180.14453125 83.244140625 152.1953125 90.1455078125 123 c 0
 107.880859375 47.9775390625 158.663085938 2 240 2 c 0
 321.336914062 2 372.119140625 47.9775390625 389.854492188 123 c 0
 396.755859375 152.1953125 397 180.14453125 397 219 c 2
 397 258 l 2
 397 296.458984375 396.888671875 323.780273438 390.088867188 353 c 0
 372.498046875 428.58984375 321.697265625 475 240 475 c 4
EndSplineSet
Layer: 2
Layer: 3
EndChar
StartChar: q
Encoding: 113 113 64
Width: 450
VWidth: 0
Flags: HW
HStem: -6 8<181.372 258.644> 475 8<182.898 257.046>
VStem: 55 8<139.401 219 258 338.009> 377 8<139.371 219 258 338.036>
LayerCount: 4
Back
Fore
SplineSet
385 477 m 5
 385 -185 l 5
 377 -185 l 5
 377 121.580078125 l 5
 359.03515625 42.53125 306.53515625 -6 220 -6 c 4
 133.747070312 -6 80.033203125 43.1162109375 61.8837890625 123 c 4
 55.23828125 152.254882812 55 180.239257812 55 219 c 6
 55 258 l 6
 55 296.368164062 55.115234375 323.72265625 61.6591796875 353 c 4
 79.6455078125 433.463867188 133.387695312 483 220 483 c 4
 306.53515625 483 359.03515625 434.46875 377 355.419921875 c 5
 377 477 l 5
 385 477 l 5
63 258 m 6
 63 219 l 6
 63 180.14453125 63.244140625 152.1953125 70.1455078125 123 c 4
 87.880859375 47.9775390625 138.663085938 2 220 2 c 4
 301.336914062 2 352.119140625 47.9775390625 369.854492188 123 c 4
 376.755859375 152.1953125 377 180.14453125 377 219 c 6
 377 258 l 6
 377 296.458984375 376.888671875 323.780273438 370.088867188 353 c 4
 352.498046875 428.58984375 301.697265625 475 220 475 c 4
 138.302734375 475 87.501953125 428.58984375 69.9111328125 353 c 4
 63.111328125 323.780273438 63 296.458984375 63 258 c 6
EndSplineSet
Layer: 2
Layer: 3
EndChar
StartChar: r
Encoding: 114 114 62
Width: 358
VWidth: 0
Flags: HW
HStem: 0 21G<75 83> 475 8<202.661 278.599>
VStem: 75 8<0 477>
AnchorPoint: "DoubleTop" -10 0 basechar 0
AnchorPoint: "Apos" -10 0 basechar 0
AnchorPoint: "Center" -20 0 basechar 0
AnchorPoint: "Bottom" 89 0 basechar 0
AnchorPoint: "Top" 190 477 basechar 0
LayerCount: 4
Back
Fore
SplineSet
75 477 m 1
 83 477 l 1
 83 355.419604839 l 1
 100.964798375 434.46868167 153.464923929 483 240 483 c 0
 263.517578125 483 284.616210938 479.348632812 303.235351562 472.418945312 c 1
 300.922851562 464.61328125 l 1
 283.034179688 471.415039062 262.709960938 475 240 475 c 0
 158.302579226 475 107.50169521 428.590280381 89.9112872395 353.000005561 c 0
 83.1117480164 323.780726542 83 296.458984375 83 258 c 2
 83 0 l 1
 75 0 l 1
 75 477 l 1
EndSplineSet
Layer: 2
SplineSet
75.2353515625 667 m 5
 83.2353515625 667 l 5
 83.2353515625 0 l 5
 75.2353515625 0 l 5
 75.2353515625 667 l 5
405.235351562 189 m 5
 405.235351562 71 348.235351562 -6 240.235351562 -6 c 4
 131.235351562 -6 76.2353515625 71 76.2353515625 189 c 5
 76.2353515625 288 l 5
 76.2353515625 406 131.235351562 483 240.235351562 483 c 4
 348.235351562 483 405.235351562 406 405.235351562 288 c 5
 405.235351562 189 l 5
397.235351562 288 m 5
 397.235351562 401.159179688 343.298828125 475 240.235351562 475 c 4
 137.171875 475 83.2353515625 401.159179688 83.2353515625 288 c 5
 83.2353515625 189 l 5
 83.2353515625 75.8408203125 137.171875 2 240.235351562 2 c 4
 343.298828125 2 397.235351562 75.8408203125 397.235351562 189 c 5
 397.235351562 288 l 5
EndSplineSet
Layer: 3
EndChar
StartChar: s
Encoding: 115 115 48
Width: 422
VWidth: 0
Flags: HWO
HStem: -6 8<144.711 240.855> 475 8<160.622 253.139>
VStem: 55 8<334.953 394.347> 345 8<91.7891 153.521>
LayerCount: 4
Back
SplineSet
330 452 m 4
 288.41876043 468.532894923 244.024794669 479.000135485 199.278797128 479.000135485 c 4
 166.475395218 478.984194248 132.949294357 472.620038655 105.655611238 454.551654826 c 4
 92.0529887275 445.546735866 80.2661885804 433.667468756 72.0079117267 419.599037144 c 4
 63.6361049017 405.337200942 58.9973946257 389.064786666 58.9973946257 372.319755462 c 4
 58.9973946257 355.775397111 63.6167266243 339.308210579 71.8519493788 324.95654504 c 4
 80.2000333737 310.408194261 92.1393847419 298.073932171 105.813959102 288.360486188 c 4
 133.163107822 268.933594222 166.48860975 260.26979874 199 252 c 4
 234.189277561 243.049037245 270.193780476 233.189580692 299.304195882 211.487306516 c 4
 313.859403585 200.636169428 326.441425899 186.986883104 335.235948864 171.104263257 c 4
 344.089882755 155.114349228 349.00066237 137.018683196 349.00066237 118.631841614 c 4
 349.00066237 100.844264411 344.3637141 83.1072795864 335.875067143 67.4750618837 c 4
 327.327856638 51.7349968224 314.965775166 38.1687474005 300.469008479 27.6498020553 c 4
 271.467390711 6.60604527741 234.812962247 -1.99808837974 198.973729542 -2.00000140226 c 4
 149.253740283 -2.00000140226 100.017601133 13.0684881497 57 38 c 1028
  Spiro
    330 452 {
    199 479 o
    59 373 o
    199 252 o
    349 119 o
    199 -2 o
    57 38 o
    0 0 z
  EndSpiro
EndSplineSet
Fore
SplineSet
345.00066237 118.631841614 m 4
 345.00066237 208.551980031 268.444297683 227.672874694 194.00000208 248.319315449 c 0
 123.553027581 267.857135958 54.9973946257 288.761071203 54.9973946257 372.319755462 c 0
 54.9973946257 447.60696013 128.043183974 482.96551809 199.276853276 483.000135013 c 0
 244.652902319 483.000135013 289.530668346 472.395377767 331.477884208 455.716968963 c 1
 328.522115792 448.283031037 l 1
 287.306852515 464.670412078 243.396687019 475.000135957 199.280740979 475.000135957 c 0
 132.136808549 474.967506495 62.9973946257 442.769755462 62.9973946257 372.319755462 c 0
 62.9973946257 291.734335794 132.856405096 273.403066346 203.999997919 253.90496988 c 0
 277.809010092 233.676370475 353.00066237 212.191875075 353.00066237 118.631841614 c 4
 353.00066237 36.9980104679 275.877309817 -5.99589645162 198.973729542 -6.00000140226 c 0
 148.443788879 -6.00000140226 98.5443032738 9.29912184629 54.9942532806 34.5392226166 c 1
 59.0057467194 41.4607773834 l 1
 101.490898992 16.837854453 150.063691686 1.99999859774 198.973729542 1.99999859774 c 0
 271.799062987 2.00388586018 345.00066237 41.7762098864 345.00066237 118.631841614 c 4
EndSplineSet
Layer: 2
Layer: 3
EndChar
StartChar: t
Encoding: 116 116 65
Width: 368
VWidth: 0
Flags: HW
HStem: -6 8<222.428 284.561> 469 8<55 135 143 285>
VStem: 135 8<92.9423 469 477 581>
AnchorPoint: "DoubleTop" -10 0 basechar 0
AnchorPoint: "Apos" 316 667 basechar 0
AnchorPoint: "Top" 5 0 basechar 0
AnchorPoint: "Center" 5 0 basechar 0
AnchorPoint: "Bottom" 247 0 basechar 0
LayerCount: 4
Back
Fore
SplineSet
319.251953125 24.4970703125 m 1
 298.188476562 10.0244140625 273.00131799 2 247.603515625 2 c 0
 184.338867188 2 143 52 143 127 c 2
 143 469 l 1
 285 469 l 1
 285 477 l 1
 143 477 l 1
 143 581 l 1
 135 581 l 1
 135 477 l 1
 55 477 l 1
 55 469 l 1
 135 469 l 1
 135 127 l 2
 135 47 179.489257812 -6 247.57421875 -6 c 0
 274.717058875 -6 301.39453125 2.419921875 323.674804688 17.6171875 c 1
 319.251953125 24.4970703125 l 1
EndSplineSet
Layer: 2
Layer: 3
EndChar
StartChar: u
Encoding: 117 117 66
Width: 440
VWidth: 0
Flags: W
HStem: 0 8<183.107 256.893>
VStem: 60 8<143.666 483> 372 8<143.666 483>
AnchorPoint: "DoubleTop" -20 0 basechar 0
AnchorPoint: "Apos" -20 0 basechar 0
AnchorPoint: "Center" -35 0 basechar 0
AnchorPoint: "Bottom" 220 0 basechar 0
AnchorPoint: "Top" 220 476 basechar 0
LayerCount: 4
Back
Fore
SplineSet
60 483 m 5
 68 483 l 5
 68 225 l 6
 68 186.541015625 68.0673828125 159.333984375 74.35546875 130 c 4
 90.5654296875 54.3876953125 138.302734375 8 220 8 c 4
 301.697265625 8 349.434570312 54.3876953125 365.64453125 130 c 4
 371.932617188 159.333984375 372 186.541015625 372 225 c 6
 372 483 l 5
 380 483 l 5
 380 225 l 6
 380 186.631835938 379.934570312 159.376953125 373.8515625 130 c 4
 357.186523438 49.52734375 306.612304688 0 220 0 c 4
 133.387695312 0 82.8134765625 49.52734375 66.1484375 130 c 4
 60.0654296875 159.376953125 60 186.631835938 60 225 c 6
 60 483 l 5
EndSplineSet
Layer: 2
Layer: 3
EndChar
StartChar: v
Encoding: 118 118 45
Width: 456
Flags: HW
HStem: 0 21G<216.109 239.891>
AnchorPoint: "DoubleTop" -10 0 basechar 0
AnchorPoint: "Apos" -10 0 basechar 0
AnchorPoint: "Bottom" -20 0 basechar 0
AnchorPoint: "Center" -20 0 basechar 0
AnchorPoint: "Top" 228.5 476 basechar 0
LayerCount: 4
Back
Fore
SplineSet
40 477 m 1
 48.57421875 477 l 1
 228 11.380859375 l 1
 407.424804688 477 l 1
 416 477 l 1
 232.18359375 0 l 17
 232.18359375 0 223.81640625 0 223.81640625 0 c 9
 40 477 l 1
EndSplineSet
Layer: 2
Layer: 3
EndChar
StartChar: w
Encoding: 119 119 44
Width: 692
Flags: W
HStem: 0 21G<197.124 217.8 474.2 494.876> 457 20G<40 55.3363 336.2 355.8 636.664 652>
LayerCount: 4
Back
Fore
SplineSet
40 477 m 5
 48.4599609375 477 l 1
 207.688476562 13.8798828125 l 1
 342 477 l 1
 350 477 l 1
 484.311523438 13.8798828125 l 1
 643.540039062 477 l 1
 652 477 l 1
 488 0 l 1
 480 0 l 1
 346 462.075195312 l 1
 212 0 l 1
 204 0 l 1
 40 477 l 5
EndSplineSet
Layer: 2
Layer: 3
EndChar
StartChar: x
Encoding: 120 120 69
Width: 422
VWidth: 0
Flags: HW
HStem: 0 21G<45 68.1499 353.85 377>
VStem: 45 332
LayerCount: 4
Back
SplineSet
216.33984375 238.5 m 5
 377 0 l 5
 367.327148438 0 l 5
 211 232.290039062 l 5
 54.6728515625 0 l 5
 45 0 l 5
 205.559570312 238.500976562 l 5
 45 477 l 5
 54.6728515625 477 l 5
 211 244.709960938 l 5
 367.327148438 477 l 5
 377 477 l 5
 216.33984375 238.5 l 5
EndSplineSet
Fore
SplineSet
216.040039062 238.5 m 5
 377 0 l 5
 367.327148438 0 l 5
 211 231.990234375 l 5
 54.6728515625 0 l 5
 45 0 l 5
 205.860351562 238.500976562 l 5
 45 477 l 5
 54.6728515625 477 l 5
 211 245.009765625 l 5
 367.327148438 477 l 5
 377 477 l 5
 216.040039062 238.5 l 5
EndSplineSet
Layer: 2
Layer: 3
EndChar
StartChar: y
Encoding: 121 121 70
Width: 456
Flags: W
HStem: -185 21G<152.5 168.801> 457 20G<40 56.2749 399.725 416>
LayerCount: 4
Back
SplineSet
416 477 m 1
 232.18359375 0 l 2
 229.39453125 0 226.60546875 0 223.81640625 0 c 2
 40 477 l 1
 48.57421875 477 l 1
 228 11.380859375 l 1
 407.424804688 477 l 1
 416 477 l 1
EndSplineSet
Fore
SplineSet
40 477 m 5
 48.57421875 477 l 1
 228 11 l 1
 407.42578125 477 l 1
 416 477 l 1
 161.099609375 -185 l 1
 152.5 -185 l 1
 223.629882812 0 l 1
 40 477 l 5
EndSplineSet
Layer: 2
Layer: 3
EndChar
StartChar: z
Encoding: 122 122 71
Width: 380
VWidth: 0
Flags: W
HStem: 0 8<59.8691 330> 469 8<50 320.151>
VStem: 50 280<0 7 469.996 477>
LayerCount: 4
Back
Fore
SplineSet
50 477 m 5
 330 477 l 1
 330 469.99609375 l 1
 59.869140625 8 l 1
 330 8 l 1
 330 0 l 1
 50 0 l 1
 50 7 l 1
 320.151367188 469 l 1
 50 469 l 1
 50 477 l 5
EndSplineSet
Layer: 2
Layer: 3
EndChar
StartChar: braceleft
Encoding: 123 123 76
Width: 336
Flags: W
HStem: -185 56<221.858 286> 269 56<60 124.975> 723 56<221.813 286>
VStem: 142 62<-112.643 251.995 341.357 706.643>
CounterMasks: 1 e0
LayerCount: 4
Back
Fore
SplineSet
286 -129 m 1
 286 -185 l 1
 268 -185 246 -185 224 -177 c 0
 178 -161 152 -121 145 -77 c 0
 142 -57 142 -38 142 -21 c 2
 142 161 l 2
 142 178 142 194 140 209 c 0
 135 241 120 258 100 265 c 0
 90 268 77 269 60 269 c 1
 60 269 60 325 60 325 c 1
 77 325 90 326 100 329 c 0
 120 336 135 353 140 385 c 0
 142 400 142 416 142 433 c 2
 142 615 l 2
 142 632 142 651 145 671 c 0
 152 715 177 755 224 771 c 0
 246 779 268 779 286 779 c 1
 286 723 l 1
 269 723 256 722 246 719 c 0
 226 712 211 695 206 663 c 0
 204 648 204 632 204 615 c 2
 204 433 l 2
 204 416 204 397 201 377 c 0
 196 346 184 319 158 297 c 1
 182 277 196 248 201 217 c 0
 204 197 204 178 204 161 c 2
 204 -21 l 2
 204 -38 204 -54 206 -69 c 0
 211 -101 226 -118 246 -125 c 0
 256 -128 269 -129 286 -129 c 1
EndSplineSet
Validated: 1
Layer: 2
Layer: 3
EndChar
StartChar: bar
Encoding: 124 124 77
Width: 198
VWidth: 0
Flags: W
VStem: 95 8<-130 797>
LayerCount: 4
Back
Fore
SplineSet
95 797 m 5
 103 797 l 1
 103 -130 l 1
 95 -130 l 1
 95 797 l 5
EndSplineSet
Layer: 2
Layer: 3
EndChar
StartChar: braceright
Encoding: 125 125 79
Width: 334
VWidth: 0
Flags: W
HStem: -191 56<50 114.637> 288 50<217.698 274> 741 56<50 114.637>
VStem: 132 62<-117.433 264.5 357 723.433>
LayerCount: 4
Back
Fore
SplineSet
50 797 m 1
 64 797 l 2
 143 797 194 756 194 647 c 2
 194 423 l 2
 194 359 225 338 270 338 c 2
 274 338 l 1
 274 288 l 1
 270 288 l 2
 225 288 194 257 194 193 c 2
 194 -41 l 2
 194 -150 143 -191 64 -191 c 2
 50 -191 l 1
 50 -135 l 1
 64 -135 l 2
 114 -135 132 -105 132 -41 c 2
 132 183 l 2
 132 245 158 287 191 311 c 1
 158 333 132 371 132 433 c 2
 132 647 l 2
 132 711 114 741 64 741 c 2
 50 741 l 1
 50 797 l 1
EndSplineSet
Layer: 2
Layer: 3
EndChar
StartChar: asciitilde
Encoding: 126 126 180
Width: 520
VWidth: 0
Flags: HW
HStem: 184 65<288.958 394.242> 249 66<120.778 236.867>
LayerCount: 4
Back
Fore
SplineSet
86.3362250814 231.217888771 m 5
 80.7497124186 236.944220605 l 5
 147.360018254 301.928110438 208.763840058 293.911597169 262.203043695 253.18130736 c 4
 322.817306741 206.982432399 369.046521555 206.1734899 433.32360517 268.784268588 c 5
 438.905691706 263.053622036 l 5
 372.435900321 198.30697885 320.510818259 198.681630101 257.353596929 246.81869264 c 4
 206.361159942 285.684105955 150.270841122 293.591420812 86.3362250814 231.217888771 c 5
EndSplineSet
Layer: 2
SplineSet
83.54296875 234.081054688 m 21
 148.815429688 297.759765625 207.5625 289.797851562 259.778320312 250 c 4
 321.6640625 202.83203125 370.741210938 202.240234375 436.014648438 265.918945312 c 1028
EndSplineSet
Layer: 3
EndChar
StartChar: exclamdown
Encoding: 161 161 91
Width: 260
VWidth: 0
Flags: W
HStem: -185 21G<92 166> 386 102<87.2266 172.773>
VStem: 79 102<394.227 479.773> 92 74<-185 229.1> 102 54<131.9 302>
LayerCount: 4
Back
Fore
SplineSet
130 488 m 0xe0
 160 488 181 467 181 437 c 0
 181 407 160 386 130 386 c 0
 100 386 79 407 79 437 c 0
 79 467 100 488 130 488 c 0xe0
102 302 m 1xc8
 156 302 l 1xc8
 166 59 l 1
 166 -185 l 1
 92 -185 l 1
 92 59 l 1xd0
 102 302 l 1xc8
EndSplineSet
Validated: 1
Layer: 2
Layer: 3
EndChar
StartChar: cent
Encoding: 162 162 354
Width: 550
VWidth: 0
Flags: W
HStem: -6 66<206.467 279 329 415.809> 417 66<206.467 279 329 416.638>
VStem: 89 70<109.277 367.723> 279 50<-86 -6 60 417 483 563>
LayerCount: 4
Back
SplineSet
279 563 m 5
 329 563 l 5
 329 -86 l 5
 279 -86 l 5
 279 563 l 5
EndSplineSet
Fore
SplineSet
279 563 m 1
 329 563 l 1
 329 483 l 1
 388 483 435 467 467 442 c 1
 431 386 l 1
 406 405 370 417 329 417 c 1
 329 60 l 1
 373 60 410 73 436 95 c 1
 472 39 l 1
 439 11 391 -6 329 -6 c 1
 329 -86 l 1
 279 -86 l 1
 279 -6 l 1
 184.368164062 -6 119.286132812 43.517578125 97.2685546875 124 c 0
 89.3525390625 152.936523438 89 180.631835938 89 219 c 2
 89 258 l 2
 89 296.368164062 89.3525390625 324.063476562 97.2685546875 353 c 0
 119.286132812 433.482421875 184.368164062 483 279 483 c 1
 279 563 l 1
279 417 m 1
 226.890625 417 189.831054688 393.220703125 171.670898438 353 c 0
 159.325195312 325.658203125 159 297.655273438 159 258 c 2
 159 219 l 2
 159 179.344726562 159.325195312 151.341796875 171.670898438 124 c 0
 189.831054688 83.779296875 226.890625 60 279 60 c 1
 279 417 l 1
EndSplineSet
Layer: 2
SplineSet
64 289 m 0
 64 407 141 484 279 484 c 4
 417 484 494 407 494 289 c 4
 494 171 417 94 279 94 c 4
 141 94 64 171 64 289 c 0
EndSplineSet
Layer: 3
SplineSet
279 483 m 5
 329 483 l 5
 393 483 440 467 472 442 c 5
 436 386 l 5
 411 405 375 417 329 417 c 5
 279 417 l 5
 216.890625 417 179.831054688 393.220703125 161.670898438 353 c 4
 149.325195312 325.658203125 149 297.655273438 149 258 c 14
 149 219 l 22
 149 179.344726562 149.325195312 151.341796875 161.670898438 124 c 4
 179.831054688 83.779296875 216.890625 60 279 60 c 5
 329 60 l 5
 378 60 415 73 441 95 c 5
 477 39 l 5
 444 11 396 -6 329 -6 c 5
 279 -6 l 5
 174.368164062 -6 109.286132812 43.517578125 87.2685546875 124 c 4
 79.3525390625 152.936523438 79 180.631835938 79 219 c 14
 79 258 l 22
 79 296.368164062 79.3525390625 324.063476562 87.2685546875 353 c 4
 109.286132812 433.482421875 174.368164062 483 279 483 c 5
EndSplineSet
EndChar
StartChar: sterling
Encoding: 163 163 114
Width: 535
VWidth: 0
Flags: W
HStem: 0 70<45 107 181 475> 292 61<47 107 181 405> 603 70<229.122 376.747>
VStem: 107 74<70 292 353 555.153>
LayerCount: 4
Back
Fore
SplineSet
107 468 m 2
 107 486 107 501 110 518 c 0
 126 613 198 673 302 673 c 0
 340 673 423 664 468 590 c 1
 413 546 l 1
 377 598 330 603 302 603 c 0
 241 603 199 570 186 518 c 0
 182 502 181 486 181 468 c 2
 181 353 l 1
 405 353 l 1
 405 292 l 1
 181 292 l 1
 181 70 l 1
 475 70 l 1
 475 0 l 1
 181 0 l 1
 107 0 l 1
 45 0 l 1
 45 70 l 1
 107 70 l 1
 107 292 l 1
 47 292 l 1
 47 353 l 1
 107 353 l 1
 107 468 l 2
EndSplineSet
Validated: 1
Layer: 2
Layer: 3
EndChar
StartChar: yen
Encoding: 165 165 355
Width: 550
VWidth: 0
Flags: W
HStem: 0 21G<237 311> 243 56<94 227 321 454> 368 56<84 162 386 464> 647 20G<39 127.72 423.093 510>
VStem: 237 74<0 243>
LayerCount: 4
Back
Fore
SplineSet
39 667 m 1
 118 667 l 1
 274 346 l 1
 433 667 l 1
 510 667 l 1
 386 424 l 1
 464 424 l 1
 464 368 l 1
 356 368 l 1
 321 299 l 1
 454 299 l 1
 454 243 l 1
 311 243 l 1
 311 0 l 1
 237 0 l 1
 237 243 l 1
 94 243 l 1
 94 299 l 1
 227 299 l 1
 192 368 l 1
 84 368 l 1
 84 424 l 1
 162 424 l 1
 39 667 l 1
EndSplineSet
Layer: 2
Layer: 3
EndChar
StartChar: section
Encoding: 167 167 115
Width: 469
VWidth: 0
Flags: W
HStem: -6 65<139.498 312.279> 608 65<160.15 324.348>
VStem: 68 70<300.602 417.794 496.953 586.926> 334 70<80.8587 175.25 250.892 371.391>
LayerCount: 4
Back
SplineSet
231 673 m 4
 307 673 364 643 389 626 c 5
 351 571 l 5
 316 597 269 608 231 608 c 4
 176 608 138 583 138 541 c 4
 138 502 160 485 237 471 c 4
 320 455 404 421 404 328 c 4
 404 241 342 202 290 202 c 4
 205 202 183 256 162 272 c 5
 197 258 l 5
 226 235 243 237 290 237 c 4
 318 237 334 276 334 318 c 4
 334 369 301 392 225 406 c 4
 142 421 68 450 68 541 c 4
 68 632 158 673 231 673 c 4
181 465 m 4
 257 465 313 430 338 413 c 5
 351 373 l 5
 316 399 219 430 181 430 c 4
 156 430 138 395 138 353 c 4
 138 304 160 287 237 273 c 4
 320 257 404 223 404 130 c 4
 404 43 332 -6 230 -6 c 4
 145 -6 86 31 65 47 c 5
 107 100 l 5
 136 77 183 59 230 59 c 4
 308 59 334 88 334 130 c 4
 334 171 301 194 225 208 c 4
 142 223 68 252 68 343 c 4
 68 434 138 465 181 465 c 4
EndSplineSet
Fore
SplineSet
231 673 m 0
 307 673 364 643 389 626 c 1
 351 571 l 1
 316 597 269 608 231 608 c 0
 176 608 138 583 138 541 c 0
 138 502 160 485 237 471 c 0
 320 455 404 421 404 328 c 0
 404 279 385 246 358 225 c 1
 386 204 404 173 404 130 c 0
 404 43 332 -6 230 -6 c 0
 145 -6 86 31 65 47 c 1
 107 100 l 1
 136 77 183 59 230 59 c 0
 308 59 334 88 334 130 c 0
 334 171 301 194 225 208 c 0
 142 223 68 252 68 343 c 0
 68 394 90 426 116 444 c 1
 87 465 68 495 68 541 c 0
 68 632 158 673 231 673 c 0
161 422 m 1
 147 409 138 383 138 353 c 0
 138 304 160 287 237 273 c 0
 264 268 291 261 315 250 c 1
 327 265 334 291 334 318 c 0
 334 369 301 392 225 406 c 0
 203 410 181 415 161 422 c 1
EndSplineSet
Validated: 1
Layer: 2
Layer: 3
EndChar
StartChar: dieresis
Encoding: 168 168 131
Width: 320
VWidth: 0
Flags: W
HStem: 550 20<60.0031 79.9969 240.003 259.997>
VStem: 60 20<550.003 569.997> 240 20<550.003 569.997>
AnchorPoint: "Top" 160 477 mark 0
LayerCount: 4
Back
Fore
SplineSet
249.787109375 570 m 4
 255.745117188 570 260 565.95703125 260 560 c 4
 260 554.04296875 255.745117188 550 249.787109375 550 c 4
 244.254882812 550 240 554.04296875 240 560 c 4
 240 565.95703125 244.254882812 570 249.787109375 570 c 4
69.787109375 570 m 4
 75.7451171875 570 80 565.95703125 80 560 c 4
 80 554.04296875 75.7451171875 550 69.787109375 550 c 4
 64.2548828125 550 60 554.04296875 60 560 c 4
 60 565.95703125 64.2548828125 570 69.787109375 570 c 4
EndSplineSet
Layer: 2
Layer: 3
EndChar
StartChar: copyright
Encoding: 169 169 74
Width: 640
VWidth: 0
Flags: W
HStem: -6 60<213.732 426.268> 124 61<262.964 387.049> 482 61<262.964 385.382> 613 60<211.817 428.183>
VStem: 65 64<134.415 532.933> 181 63<202.493 464.507> 511 64<134.415 532.933>
LayerCount: 4
Back
Fore
SplineSet
320 613 m 0
 210 613 129 563 129 446 c 2
 129 222 l 2
 129 104 210 54 320 54 c 0
 430 54 511 104 511 222 c 2
 511 446 l 2
 511 563 430 613 320 613 c 0
320 673 m 0
 467 673 575 611 575 446 c 2
 575 222 l 2
 575 56 467 -6 320 -6 c 0
 173 -6 65 56 65 222 c 2
 65 446 l 2
 65 611 173 673 320 673 c 0
319 543 m 0
 343 543 397 543 439 488 c 1
 392 453 l 1
 372 482 340 482 319 482 c 0
 280 482 244 465 244 403 c 2
 244 264 l 2
 244 202 280 185 319 185 c 0
 341 185 370 187 400 217 c 1
 443 182 l 1
 399 124 344 124 319 124 c 0
 247 124 181 162 181 264 c 2
 181 403 l 2
 181 505 247 543 319 543 c 0
EndSplineSet
Validated: 1
Layer: 2
Layer: 3
EndChar
StartChar: guillemotleft
Encoding: 171 171 129
Width: 545
Flags: W
LayerCount: 4
Back
Fore
SplineSet
223 437 m 1
 295 437 l 1
 136 250 l 1
 295 63 l 1
 223 63 l 1
 80 227 l 1
 80 273 l 1
 223 437 l 1
393 437 m 1
 465 437 l 1
 306 250 l 1
 465 63 l 1
 393 63 l 1
 250 227 l 1
 250 273 l 1
 393 437 l 1
EndSplineSet
Validated: 1
Layer: 2
Layer: 3
EndChar
StartChar: logicalnot
Encoding: 172 172 424
Width: 510
Flags: W
HStem: 223 56<80 370>
VStem: 370 60<74 223>
LayerCount: 4
Back
Fore
SplineSet
80 279 m 1
 430 279 l 1
 430 74 l 1
 370 74 l 1
 370 223 l 1
 80 223 l 1
 80 279 l 1
EndSplineSet
Validated: 1
Layer: 2
Layer: 3
EndChar
StartChar: registered
Encoding: 174 174 75
Width: 684
VWidth: 0
Flags: W
HStem: -6 62<237.797 446.203> 269 66<286 352> 471 66<286 395.635> 611 62<237.052 446.333>
VStem: 65 66<157.677 509.323> 216 70<129 269 335 471> 409 70<350.314 457.336> 553 66<157.677 509.323>
LayerCount: 4
Back
Fore
SplineSet
486 129 m 1
 411 129 l 1
 352 269 l 1
 286 269 l 1
 286 129 l 1
 216 129 l 1
 216 537 l 1
 330 537 l 2
 345 537 361 537 382 533 c 0
 442 519 479 467 479 404 c 0
 479 354 456 313 419 290 c 1
 486 129 l 1
365 339 m 0
 389 346 409 364 409 404 c 0
 409 442 390 463 366 469 c 0
 356 471 345 471 330 471 c 2
 286 471 l 1
 286 335 l 1
 330 335 l 2
 346 335 354 335 365 339 c 0
76 173 m 0
 66 210 65 247 65 281 c 2
 65 386 l 2
 65 420 66 457 76 494 c 0
 106 605 210 673 341 673 c 0
 474 673 578 605 608 494 c 0
 618 457 619 420 619 386 c 2
 619 281 l 2
 619 247 618 210 608 173 c 0
 578 62 473 -6 342 -6 c 0
 211 -6 106 62 76 173 c 0
140 188 m 0
 162 108 235 56 342 56 c 0
 449 56 522 108 544 188 c 0
 552 216 553 248 553 281 c 2
 553 386 l 2
 553 419 552 451 544 479 c 0
 522 559 450 611 341 611 c 0
 234 611 162 559 140 479 c 0
 132 451 131 419 131 386 c 2
 131 281 l 2
 131 248 132 216 140 188 c 0
EndSplineSet
Validated: 1
Layer: 2
Layer: 3
EndChar
StartChar: plusminus
Encoding: 177 177 105
Width: 520
Flags: W
HStem: 95 56<80 440> 293 56<80 230 290 440>
VStem: 230 60<201 293 349 441>
LayerCount: 4
Back
Fore
SplineSet
230 441 m 1
 290 441 l 1
 290 349 l 1
 440 349 l 1
 440 293 l 1
 290 293 l 1
 290 201 l 1
 230 201 l 1
 230 293 l 1
 80 293 l 1
 80 349 l 1
 230 349 l 1
 230 441 l 1
80 151 m 1
 440 151 l 1
 440 95 l 1
 80 95 l 1
 80 151 l 1
EndSplineSet
Validated: 1
Layer: 2
Layer: 3
EndChar
StartChar: uni00B2
Encoding: 178 178 478
Width: 339
Flags: HW
HStem: 334 57<132 328> 750 57<99.209 229.201>
VStem: 248 60<609.702 731.263>
LayerCount: 4
Back
Fore
SplineSet
49 612 m 5
 90 666 143 673 166 673 c 4
 236 673 281 619 281 559 c 4
 281 539 276 510 242 467 c 6
 129 323 l 5
 289 323 l 5
 289 267 l 5
 45 267 l 5
 45 307 l 5
 199 502 l 6
 218 527 223 544 223 559 c 4
 223 590 201 617 166 617 c 4
 147 617 120 612 94 578 c 5
 49 612 l 5
EndSplineSet
Layer: 2
Layer: 3
EndChar
StartChar: uni00B3
Encoding: 179 179 479
Width: 342
VWidth: 0
Flags: HW
HStem: 328 57<97.539 234.067> 544 58<126 231.73> 748 57<102.738 231.201>
VStem: 256 60<405.944 524.417 625.636 723.254>
LayerCount: 4
Back
Fore
SplineSet
44 609 m 5
 85 663 138 670 161 670 c 4
 231 670 277 616 277 556 c 4
 277 521 259 489 238 472 c 5
 264 452 282 418 282 380 c 4
 282 317 235 261 161 261 c 4
 137 261 84 267 40 324 c 5
 85 359 l 5
 113 322 142 317 161 317 c 4
 200 317 224 346 224 380 c 4
 224 407 205 443 161 443 c 6
 114 443 l 5
 114 499 l 5
 161 499 l 6
 195 499 219 525 219 556 c 4
 219 586 196 614 161 614 c 4
 142 614 115 609 89 575 c 5
 44 609 l 5
EndSplineSet
Layer: 2
Layer: 3
EndChar
StartChar: acute
Encoding: 180 180 169
Width: 336
Flags: W
HStem: 456 211
VStem: 50 236
LayerCount: 4
Back
Fore
SplineSet
204 667 m 1
 286 667 l 1
 121 456 l 1
 50 456 l 1
 204 667 l 1
EndSplineSet
Validated: 1
Layer: 2
Layer: 3
EndChar
StartChar: mu
Encoding: 181 181 123
Width: 560
VWidth: 0
Flags: W
HStem: -185 21G<75 145> -6 66<197.057 332.92 466.715 515> 457 20G<75 145 385 455>
VStem: 75 70<-185 55 115.371 477> 385 70<115.865 477>
LayerCount: 4
Back
SplineSet
145 204 m 5
 145 106 203 60 265 60 c 4
 327 60 385 106 385 204 c 6
 385 477 l 5
 455 477 l 29
 435 204 l 21
 435 60 361 -6 265 -6 c 4
 178 -6 105 61 105 204 c 5
 145 204 l 5
145 477 m 5
 145 -185 l 5
 75 -185 l 5
 75 477 l 5
 145 477 l 5
395 124 m 5
 396 124 l 5
 455 477 l 5
 455 124 l 6
 455 79 480 60 505 60 c 6
 515 60 l 5
 515 -6 l 5
 505 -6 l 6
 446 -6 395 35 395 124 c 5
EndSplineSet
Fore
SplineSet
75 477 m 1
 145 477 l 1
 145 204 l 2
 145 106 203 60 265 60 c 0
 327 60 385 106 385 204 c 2
 385 477 l 1
 455 477 l 1
 455 124 l 2
 455 79 480 60 505 60 c 2
 515 60 l 1
 515 -6 l 1
 505 -6 l 2
 460 -6 420 18 403 68 c 1
 373 18 323 -6 265 -6 c 0
 218 -6 175 14 145 55 c 1
 145 -185 l 1
 75 -185 l 1
 75 477 l 1
EndSplineSet
Validated: 1
Layer: 2
Layer: 3
EndChar
StartChar: paragraph
Encoding: 182 182 434
Width: 542
VWidth: 0
Flags: W
HStem: 0 21G<205 278 384 457> 598 69<278 384>
VStem: 55 223<360.292 562.55> 205 73<0 268.081> 384 73<0 598>
LayerCount: 4
Back
Fore
SplineSet
457 667 m 25xe8
 457 0 l 1
 384 0 l 1
 384 598 l 1
 278 598 l 1
 278 0 l 1
 205 0 l 1
 205 263 l 1xd8
 122 281 55 346 55 462 c 0
 55 602 149 667 255 667 c 2
 457 667 l 25xe8
EndSplineSet
Validated: 1
Layer: 2
Layer: 3
EndChar
StartChar: periodcentered
Encoding: 183 183 100
Width: 200
VWidth: 0
Flags: W
HStem: 240 20<90.0031 109.997>
VStem: 90 20<240.003 259.997>
LayerCount: 4
Back
Fore
SplineSet
99.787109375 260 m 4
 105.745117188 260 110 255.95703125 110 250 c 4
 110 244.04296875 105.745117188 240 99.787109375 240 c 4
 94.2548828125 240 90 244.04296875 90 250 c 4
 90 255.95703125 94.2548828125 260 99.787109375 260 c 4
EndSplineSet
Layer: 2
Layer: 3
EndChar
StartChar: cedilla
Encoding: 184 184 190
Width: 342
Flags: W
HStem: -191 55<69.1003 230.94> -70 70<163 197.605>
VStem: 234 58<-129.403 -75.8355>
AnchorPoint: "Bottom" 190 0 mark 0
LayerCount: 4
Back
SplineSet
167 0 m 5xd0
 221 0 l 5
 181 -79 l 5xd0
 127 -79 l 5xb0
 167 0 l 5xd0
77 -140 m 5
 98 -147 118 -151 157 -151 c 4
 202 -151 234 -144 234 -116 c 4
 234 -86 201 -79 167 -79 c 5xd0
 167 -45 l 5xb0
 244 -45 292 -62 292 -116 c 4
 292 -179 244 -206 157 -206 c 4
 105 -206 77 -201 50 -191 c 5
 77 -140 l 5
EndSplineSet
Fore
SplineSet
217 0 m 1
 198 -37 l 1
 257 -42 292 -58 292 -104 c 0
 292 -167 244 -191 157 -191 c 0
 105 -191 77 -186 50 -176 c 1
 77 -125 l 1
 98 -132 118 -136 157 -136 c 0
 202 -136 234 -132 234 -104 c 0
 234 -74 201 -70 167 -70 c 2
 127 -70 l 1
 163 0 l 1
 217 0 l 1
EndSplineSet
Validated: 1
Layer: 2
Layer: 3
EndChar
StartChar: ordmasculine
Encoding: 186 186 466
Width: 361
VWidth: 0
Flags: W
HStem: 328 54<124.061 235.957> 619 55<123.53 237.644>
VStem: 45 57<405.304 596.465> 259 57<405.304 596.465>
LayerCount: 4
Back
Fore
SplineSet
250 424 m 4
 258 441 259 460 259 487 c 6
 259 514 l 4
 259 542 258 560 250 578 c 4
 239 604 215 619 181 619 c 4
 146 619 122 604 111 578 c 4
 103 560 102 542 102 514 c 4
 102 487 l 4
 102 460 103 441 111 424 c 4
 122 397 146 382 181 382 c 4
 215 382 239 397 250 424 c 4
310 581 m 4
 316 560 316 541 316 514 c 6
 316 487 l 4
 316 461 316 441 310 421 c 4
 295 363 248 328 181 328 c 4
 113 328 67 363 51 421 c 4
 45 441 45 461 45 487 c 4
 45 514 l 4
 45 541 45 560 51 581 c 4
 66 638 113 674 181 674 c 4
 248 674 295 638 310 581 c 4
EndSplineSet
Layer: 2
Layer: 3
EndChar
StartChar: questiondown
Encoding: 191 191 92
Width: 387
Flags: W
HStem: -191 70<179.33 357.522> 386 102<212.227 297.773>
VStem: 60 74<-76.9732 58.7149> 204 102<394.227 479.773> 226 58<193.665 312.973>
LayerCount: 4
Back
Fore
SplineSet
255 386 m 0xf0
 225 386 204 407 204 437 c 0
 204 467 225 488 255 488 c 0
 285 488 306 467 306 437 c 0
 306 407 285 386 255 386 c 0xf0
375 -88 m 1
 422 -142 l 1
 380 -174 325 -191 262 -191 c 0
 208 -191 160 -177 124 -148 c 0
 86 -117 60 -67 60 -8 c 0
 60 55 90 102 126 132 c 0
 165 164 206 176 219 220 c 0
 222 229 225 242 226 266 c 2
 228 313 l 1
 282 313 l 1
 282 313 284 276 284 258 c 0xe8
 284 237 283 225 279 206 c 0
 265 138 207 106 175 80 c 0
 152 60 134 33 134 -8 c 0
 134 -48 151 -77 172 -94 c 0
 192 -111 221 -121 262 -121 c 0
 311 -121 349 -108 375 -88 c 1
EndSplineSet
Validated: 1
Layer: 2
Layer: 3
EndChar
StartChar: AE
Encoding: 198 198 41
Width: 792
Flags: W
HStem: 0 68<493 727> 164 69<237 422> 305 69<493 694> 592 69<493 717>
VStem: 422 71<68 164 233 305 374 583>
LayerCount: 4
Back
Fore
SplineSet
114 0 m 1
 88 -0 61 0 35 0 c 1
 153 220 271 441 389 661 c 1
 498 661 608 661 717 661 c 1
 717 638 717 615 717 592 c 1
 642 592 568 592 493 592 c 1
 493 519 493 446 493 374 c 1
 560 374 627 374 694 374 c 1
 694 351 694 328 694 305 c 1
 627 305 560 305 493 305 c 1
 493 226 493 147 493 68 c 1
 571 68 649 68 727 68 c 1
 727 46 727 23 727 0 c 1
 625 -0 524 0 422 0 c 1
 422 55 422 109 422 164 c 1
 348 164 275 164 201 164 c 1
 172 109 143 55 114 0 c 1
422 583 m 1
 360 466 299 349 237 233 c 1
 299 233 360 233 422 233 c 1
 422 349 422 466 422 583 c 1
EndSplineSet
Validated: 1
Layer: 2
Layer: 3
EndChar
StartChar: Eth
Encoding: 208 208 360
Width: 621
VWidth: 0
Flags: W
HStem: 0 70<200 435.768> 313 62<55 126 200 328> 597 70<200 435.768>
VStem: 126 74<70 313 375 597> 482 74<118.129 548.871>
AnchorPoint: "DoubleTop" 0 0 basechar 0
AnchorPoint: "Apos" 0 0 basechar 0
AnchorPoint: "Center" -5 0 basechar 0
AnchorPoint: "Bottom" 277 1 basechar 0
AnchorPoint: "Top" 280 667 basechar 0
LayerCount: 4
Back
Fore
SplineSet
126 667 m 1
 339 667 l 2
 365 667 395 667 427 658 c 0
 492 639 536 590 550 521 c 0
 556 491 556 463 556 437 c 2
 556 230 l 2
 556 204 556 176 550 146 c 0
 536 77 492 28 427 9 c 0
 395 0 365 0 339 0 c 2
 126 0 l 1
 126 313 l 1
 55 313 l 1
 55 375 l 1
 126 375 l 1
 126 667 l 1
200 597 m 1
 200 375 l 1
 328 375 l 1
 328 313 l 1
 200 313 l 1
 200 70 l 1
 339 70 l 2
 364 70 387 71 405 76 c 0
 444 88 468 118 477 160 c 0
 482 181 482 204 482 230 c 2
 482 437 l 2
 482 463 482 486 477 507 c 0
 468 549 444 579 405 591 c 0
 387 596 364 597 339 597 c 2
 200 597 l 1
EndSplineSet
Validated: 1
Layer: 2
Layer: 3
EndChar
StartChar: multiply
Encoding: 215 215 361
Width: 520
Flags: W
HStem: 97 308
VStem: 107 306
LayerCount: 4
Back
Fore
SplineSet
107 135 m 1
 222 250 l 1
 106 366 l 1
 145 405 l 1
 261 286 l 1
 376 404 l 1
 413 367 l 1
 298 252 l 1
 414 136 l 1
 375 97 l 1
 259 216 l 1
 144 98 l 1
 107 135 l 1
EndSplineSet
Validated: 1
Layer: 2
Layer: 3
EndChar
StartChar: Thorn
Encoding: 222 222 362
Width: 522
VWidth: 0
Flags: HW
HStem: 0 21G<75 148> 129 69<148 348.086> 469 69<148 348.498> 647 20G<75 148>
VStem: 75 73<0 129 198 469 538 667> 404 73<251.663 415.697>
LayerCount: 4
Back
Fore
SplineSet
262 538 m 6
 380 538 467 477 467 333 c 4
 467 189 380 128 262 128 c 6
 148 128 l 5
 148 0 l 5
 75 0 l 5
 75 667 l 5
 149 667 l 5
 149 538 l 5
 262 538 l 6
262 198 m 6
 343 198 393 237 393 333 c 4
 393 429 343 468 262 468 c 6
 149 468 l 5
 149 198 l 5
 262 198 l 6
EndSplineSet
Layer: 2
Layer: 3
EndChar
StartChar: germandbls
Encoding: 223 223 363
Width: 508
VWidth: 0
Flags: W
HStem: 0 66<195 345.381> 310 66<195 342.837> 601 66<178.744 340.67>
VStem: 65 70<0 557.906> 383 70<416.611 558.571> 393 70<111.887 266.293>
LayerCount: 4
Back
Fore
SplineSet
195 0 m 1xf4
 195 66 l 1
 234 66 l 2
 259 66 281 66 301 70 c 0
 358 80 393 122 393 189 c 0xf4
 393 250 363 294 313 306 c 0
 298 309 280 310 259 310 c 2
 195 310 l 25
 195 376 l 9
 259 376 l 2
 278 376 295 377 309 380 c 0
 354 392 383 433 383 490 c 0xf8
 383 527 368 557 347 575 c 0
 326 592 295 601 259 601 c 0
 195 601 155 576 141 527 c 0
 136 507 135 484 135 458 c 2
 135 0 l 1
 65 0 l 1
 65 458 l 2
 65 484 65 513 73 544 c 0
 94 620 160 667 259 667 c 0
 314 667 360 652 393 625 c 0xf4
 429 596 453 549 453 490 c 0xf8
 453 426 426 376 387 345 c 1
 433 314 463 260 463 189 c 0
 463 87 401 21 314 5 c 0
 286 -0 259 0 234 0 c 2
 195 0 l 1xf4
EndSplineSet
Validated: 1
Layer: 2
Layer: 3
EndChar
StartChar: ae
Encoding: 230 230 112
Width: 647
VWidth: 0
Flags: W
HStem: -8 66<129.92 243.379 377.785 521.182> 223 62<133.212 274 344 522> 415 66<94.1088 247.884 377.765 487.22>
VStem: 40 70<78.2194 199.329> 274 70<93.5957 223 285 378.719> 522 70<285 378.206>
LayerCount: 4
Back
Fore
SplineSet
344 285 m 1
 522 285 l 1
 522 303 521 320 518 335 c 0
 507 388 474 415 433 415 c 0
 392 415 359 388 348 335 c 0
 345 320 344 303 344 285 c 1
189 481 m 0
 241 481 285 459 312 422 c 1
 340 458 382 481 433 481 c 0
 515 481 572 422 587 348 c 0
 592 323 592 298 592 276 c 2
 592 223 l 1
 344 223 l 1
 344 196 l 2
 344 174 345 153 348 135 c 0
 360 84 391 58 441 58 c 0
 472 58 504 67 532 86 c 1
 572 32 l 1
 532 6 487 -8 441 -8 c 0
 385 -8 339 16 310 54 c 1
 283 16 239 -8 185 -8 c 0
 108 -8 40 49 40 139 c 0
 40 206 79 255 129 274 c 0
 159 285 188 285 213 285 c 2
 274 285 l 1
 274 295 l 2
 274 315 273 334 270 349 c 0
 260 395 232 415 189 415 c 0
 157 415 124 406 93 389 c 1
 57 445 l 1
 98 468 143 481 189 481 c 0
274 223 m 1
 213 223 l 2
 188 223 170 222 156 217 c 0
 135 209 110 185 110 139 c 0
 110 82 145 58 185 58 c 0
 228 58 259 82 270 130 c 0
 273 146 274 165 274 186 c 2
 274 223 l 1
EndSplineSet
Validated: 1
Layer: 2
Layer: 3
EndChar
StartChar: eth
Encoding: 240 240 364
Width: 508
VWidth: 0
Flags: W
HStem: -6 66<168.348 311.425> 367 66<169.828 311.239>
VStem: 55 70<105.233 321.767> 355 70<105.679 383.029>
LayerCount: 4
Back
Fore
SplineSet
240 367 m 0
 187.890625 367 153.165039062 343.235351562 136.499023438 303 c 0
 125.401367188 276.20703125 125 247.655273438 125 213 c 0
 125 183.344726562 125.401367188 150.79296875 136.499023438 124 c 0
 153.165039062 83.7646484375 187.890625 60 240 60 c 0
 291.67578125 60 326.259765625 83.3720703125 343.081054688 123 c 0
 354.802734375 150.615234375 355 182.897460938 355 213 c 0
 355 248.102539062 354.802734375 276.384765625 343.081054688 304 c 0
 326.259765625 343.627929688 291.67578125 367 240 367 c 0
348.434143999 389.419014371 m 1
 341.499265555 442.033027969 328.04806079 491.668897343 300 539 c 1
 235 493 l 1
 204 537 l 1
 269 583 l 1
 252 603 233 623 209 643 c 1
 249 677 l 1
 274 656 296 636 315 615 c 1
 375 657 l 1
 406 613 l 1
 347 572 l 1
 414 472 425 367 425 213 c 0
 425 184.631835938 424.692382812 153.03125 417.130859375 124 c 0
 396.170898438 43.53515625 335.008789062 -6 240 -6 c 0
 144.991210938 -6 83.8291015625 43.53515625 62.869140625 124 c 0
 55.3076171875 153.03125 55 184.631835938 55 213 c 0
 55 246.368164062 55.3076171875 273.96875 62.869140625 303 c 0
 83.8291015625 383.46484375 144.991210938 433 230 433 c 0
 283.153147687 433 321.899975828 417.376175007 348.434143999 389.419014371 c 1
EndSplineSet
Layer: 2
SplineSet
425 213 m 5
 425 184.631835938 424.692382812 153.03125 417.130859375 124 c 4
 396.170898438 43.53515625 335.008789062 -6 240 -6 c 4
 144.991210938 -6 83.8291015625 43.53515625 62.869140625 124 c 4
 55.3076171875 153.03125 55 184.631835938 55 213 c 4
 55 246.368164062 55.3076171875 273.96875 62.869140625 303 c 4
 83.8291015625 383.46484375 144.991210938 433 230 433 c 4
 287.716796875 433 328.447265625 414.578125 355 381.947265625 c 1029
240 367 m 4
 187.890625 367 153.165039062 343.235351562 136.499023438 303 c 4
 125.401367188 276.20703125 125 247.655273438 125 213 c 4
 125 183.344726562 125.401367188 150.79296875 136.499023438 124 c 4
 153.165039062 83.7646484375 187.890625 60 240 60 c 4
 291.67578125 60 326.259765625 83.3720703125 343.081054688 123 c 4
 354.802734375 150.615234375 355 182.897460938 355 213 c 4
 355 248.102539062 354.802734375 276.384765625 343.081054688 304 c 4
 326.259765625 343.627929688 291.67578125 367 240 367 c 4
EndSplineSet
Layer: 3
EndChar
StartChar: divide
Encoding: 247 247 89
Width: 520
Flags: W
HStem: 58 91<221.289 300.711> 223 56<80 440> 348 91<221.289 300.711>
VStem: 215 92<64.2479 142.711 354.289 432.752>
LayerCount: 4
Back
Fore
SplineSet
80 279 m 1
 440 279 l 1
 440 223 l 1
 80 223 l 1
 80 279 l 1
261 439 m 0
 288 439 307 420 307 394 c 0
 307 367 288 348 261 348 c 0
 234 348 215 367 215 394 c 0
 215 420 234 439 261 439 c 0
261 149 m 0
 288 149 307 130 307 103 c 0
 307 77 288 58 261 58 c 0
 234 58 215 77 215 103 c 0
 215 130 234 149 261 149 c 0
EndSplineSet
Validated: 1
Layer: 2
Layer: 3
EndChar
StartChar: oslash
Encoding: 248 248 124
Width: 470
VWidth: 0
Flags: W
HStem: -20 21G<56 78.6364> -4 8<194.853 273.473> 467 8<196.527 273.21>
VStem: 66 8<129.022 341.978> 396 8<129.022 341.978>
AnchorPoint: "DoubleTop" -10 0 basechar 0
AnchorPoint: "Apos" -10 0 basechar 0
AnchorPoint: "Bottom" -5 0 basechar 0
AnchorPoint: "Center" -5 0 basechar 0
AnchorPoint: "Top" 240 546 basechar 0
LayerCount: 4
Back
SplineSet
235 4 m 4
 306 4 358 39 381 92 c 4
 395 124 396 152 396 192 c 6
 396 279 l 6
 396 319 395 347 381 379 c 4
 375.6796875 391.259765625 368.80859375 402.555664062 360.508789062 412.678710938 c 5
 114.526367188 52.515625 l 5
 142.216796875 22.3173828125 183.63671875 4 235 4 c 4
365.27734375 419.66015625 m 5
 374.098632812 409.2421875 381.39453125 397.612304688 387 385 c 4
 402 351 404 323 404 279 c 6
 404 192 l 6
 404 148 402 120 387 86 c 4
 363 32 308 -4 235 -4 c 4
 182.233398438 -4 138.87109375 14.8095703125 109.82421875 45.6298828125 c 5
 65 -20 l 5
 56 -20 l 5
 104.72265625 51.33984375 l 5
 95.9013671875 61.7578125 88.60546875 73.3876953125 83 86 c 4
 68 120 66 148 66 192 c 6
 66 279 l 6
 66 323 68 351 83 385 c 4
 107 439 162 475 235 475 c 4
 287.766601562 475 331.12890625 456.190429688 360.17578125 425.370117188 c 5
 405 491 l 5
 414 491 l 5
 365.27734375 419.66015625 l 5
355.473632812 418.484375 m 5
 327.783203125 448.682617188 286.36328125 467 235 467 c 4
 164 467 112 432 89 379 c 4
 75 347 74 319 74 279 c 6
 74 192 l 6
 74 152 75 124 89 92 c 4
 94.3203125 79.740234375 101.19140625 68.4443359375 109.491210938 58.3212890625 c 5
 355.473632812 418.484375 l 5
EndSplineSet
Fore
SplineSet
235 4 m 4x78
 306 4 358 39 381 92 c 4
 395 124 396 152 396 192 c 6
 396 279 l 6
 396 319 395 347 381 379 c 4
 376 391 368 404 360 414 c 5
 115 52 l 5
 145 21 184 4 235 4 c 4x78
365 420 m 5
 374 409 381 398 387 385 c 4
 402 351 404 323 404 279 c 6
 404 192 l 6
 404 148 402 120 387 86 c 4
 363 32 308 -4 235 -4 c 4x78
 182 -4 139 15 110 46 c 5
 65 -20 l 5
 56 -20 l 5xb8
 105 51 l 5
 96 62 89 73 83 86 c 4
 68 120 66 148 66 192 c 6
 66 279 l 6
 66 323 68 351 83 385 c 4
 107 439 162 475 235 475 c 4
 288 475 332 456 360 425 c 5
 405 491 l 5
 414 491 l 5
 365 420 l 5
355 419 m 5
 327 449 286 467 235 467 c 4
 164 467 112 432 89 379 c 4
 75 347 74 319 74 279 c 6
 74 192 l 6
 74 152 75 124 89 92 c 4
 94 80 102 67 110 57 c 5
 355 419 l 5
EndSplineSet
Validated: 1
Layer: 2
Layer: 3
EndChar
StartChar: thorn
Encoding: 254 254 365
Width: 490
VWidth: 0
Flags: W
HStem: -185 21G<65 135> -6 66<178.684 320.172> 417 66<178.684 320.171> 647 20G<65 135>
VStem: 65 70<-185 45.0526 105.642 371.358 431.947 667> 365 70<105.716 371.284>
LayerCount: 4
Back
Fore
SplineSet
65 667 m 5
 135 667 l 5
 135 431.947411454 l 1
 161.552680965 464.578227437 202.283185599 483 260 483 c 0
 345.008639598 483 406.171121861 433.465023381 427.130688999 353.000005855 c 0
 434.692769746 323.968730741 435 296.368164062 435 258 c 2
 435 219 l 2
 435 180.631835938 434.692382812 153.03125 427.130859375 124 c 0
 406.170898438 43.53515625 345.008789062 -6 260 -6 c 0
 202.283185599 -6 161.552680965 12.4217725633 135 45.0525885455 c 1
 135 -185 l 1
 65 -185 l 1
 65 667 l 5
250 417 m 0
 198.324012002 417 163.740159846 393.627737436 146.919184765 354.000003495 c 0
 135.19725091 326.384857891 135 298.102539062 135 258 c 2
 135 219 l 2
 135 178.897460938 135.197265625 150.615234375 146.918945312 123 c 0
 163.740234375 83.3720703125 198.32421875 60 250 60 c 0
 302.109375 60 336.834960938 83.7646484375 353.500976562 124 c 0
 364.598632812 150.79296875 365 179.344726562 365 219 c 2
 365 258 l 2
 365 297.655273438 364.59834609 326.207490036 353.500526552 352.999996479 c 0
 336.834663072 393.23495012 302.109258254 417 250 417 c 0
EndSplineSet
Layer: 2
Layer: 3
EndChar
StartChar: dcroat
Encoding: 273 273 372
Width: 517
VWidth: 0
Flags: W
HStem: -6 66<168.153 312.22> 417 66<168.153 312.22> 532 62<207 355 425 487> 647 20G<355 425>
VStem: 55 70<103.462 373.538> 355 70<0 44 102.474 374.526 433 532 594 667>
LayerCount: 4
Back
Fore
SplineSet
240 417 m 0
 182 417 142 386 130 339 c 0
 126 323 125 304 125 283 c 2
 125 194 l 2
 125 173 126 154 130 138 c 0
 142 91 182 60 240 60 c 0
 298 60 338 91 350 138 c 0
 354 154 355 173 355 194 c 2
 355 283 l 2
 355 304 354 323 350 339 c 0
 338 386 298 417 240 417 c 0
235 483 m 0
 287 483 329 463 355 433 c 1
 355 532 l 1
 207 532 l 1
 207 594 l 1
 355 594 l 1
 355 667 l 1
 425 667 l 1
 425 594 l 1
 487 594 l 1
 487 532 l 1
 425 532 l 1
 425 0 l 1
 355 0 l 1
 355 44 l 1
 329 14 287 -6 235 -6 c 0
 144 -6 80 49 62 124 c 0
 56 149 55 175 55 201 c 2
 55 276 l 2
 55 302 56 328 62 353 c 0
 80 428 144 483 235 483 c 0
EndSplineSet
Validated: 1
Layer: 2
Layer: 3
EndChar
StartChar: Hbar
Encoding: 294 294 374
Width: 710
VWidth: 0
Flags: W
HStem: 0 21G<134 205 503 574> 310 66<205 503> 512 62<75 134 205 503 574 635> 647 20G<134 205 503 574>
VStem: 134 71<0 310 376 512 574 667> 503 71<0 310 376 512 574 667>
LayerCount: 4
Back
Fore
SplineSet
134 667 m 1
 205 667 l 1
 205 574 l 1
 503 574 l 1
 503 667 l 1
 574 667 l 1
 574 574 l 1
 635 574 l 1
 635 512 l 1
 574 512 l 1
 574 0 l 1
 503 0 l 1
 503 310 l 1
 205 310 l 1
 205 0 l 1
 134 0 l 1
 134 512 l 1
 75 512 l 1
 75 574 l 1
 134 574 l 1
 134 667 l 1
205 512 m 1
 205 376 l 1
 503 376 l 1
 503 512 l 1
 205 512 l 1
EndSplineSet
Validated: 1
Layer: 2
Layer: 3
EndChar
StartChar: hbar
Encoding: 295 295 375
Width: 529
VWidth: 0
Flags: W
HStem: 0 21G<109 179 399 469> 417 66<218.617 359.461> 532 62<35 109 179 315> 647 20G<109 179>
VStem: 109 70<0 377.72 433 532 594 667> 399 70<0 375.026>
LayerCount: 4
Back
Fore
SplineSet
109 667 m 1
 179 667 l 1
 179 594 l 1
 315 594 l 1
 315 532 l 1
 179 532 l 1
 179 433 l 1
 203 463 243 483 294 483 c 0
 383 483 445 428 463 355 c 0
 469 330 469 304 469 279 c 2
 469 0 l 1
 399 0 l 1
 399 288 l 2
 399 308 398 327 394 342 c 0
 383 387 345 417 289 417 c 0
 233 417 195 387 184 342 c 0
 180 327 179 308 179 288 c 2
 179 0 l 1
 109 0 l 1
 109 532 l 1
 35 532 l 1
 35 594 l 1
 109 594 l 1
 109 667 l 1
EndSplineSet
Validated: 1
Layer: 2
Layer: 3
EndChar
StartChar: dotlessi
Encoding: 305 305 156
Width: 168
VWidth: 0
Flags: HW
HStem: 0 21G<49 119>
VStem: 49 70<0 477>
AnchorPoint: "Center" -23 0 basechar 0
AnchorPoint: "Apos" -23 0 basechar 0
AnchorPoint: "DoubleTop" -23 0 basechar 0
AnchorPoint: "Bottom" 84 0 basechar 0
AnchorPoint: "Top" 84 477 basechar 0
LayerCount: 4
Back
Fore
SplineSet
82 477 m 5
 86 477 l 1
 86 0 l 1
 82 0 l 5
 82 477 l 5
EndSplineSet
Layer: 2
Layer: 3
EndChar
StartChar: IJ
Encoding: 306 306 378
Width: 636
VWidth: 0
Flags: W
HStem: -6 70<289.366 436.481> 647 20G<85 159 487 561>
VStem: 85 74<0 667> 487 74<115.213 667>
AnchorPoint: "DoubleTop" 0 0 basechar 0
AnchorPoint: "Apos" 0 0 basechar 0
AnchorPoint: "Center" 0 0 basechar 0
AnchorPoint: "Bottom" 201 0 basechar 0
AnchorPoint: "Top" 359 667 basechar 0
LayerCount: 4
Back
Fore
SplineSet
487 667 m 1
 561 667 l 1
 561 219 l 2
 561 195 561 169 555 142 c 0
 537 58 466 -6 366 -6 c 0
 310 -6 256 15 215 51 c 1
 265 103 l 1
 293 78 330 64 366 64 c 0
 429 64 471 103 482 156 c 0
 486 175 487 196 487 219 c 2
 487 667 l 1
85 667 m 1
 159 667 l 1
 159 0 l 1
 85 0 l 1
 85 667 l 1
EndSplineSet
Validated: 1
Layer: 2
Layer: 3
EndChar
StartChar: ij
Encoding: 307 307 379
Width: 382
VWidth: 0
Flags: W
HStem: -191 66<108.15 217.283> 0 21G<82 152> 457 20G<82 152 232 302> 540 94<75.5618 156.671 225.562 306.671>
VStem: 69 94<546.897 627.103> 82 70<0 477> 219 94<546.897 627.103> 232 70<-108.729 477>
LayerCount: 4
Back
Fore
SplineSet
302 -47 m 22xf1
 302 -68 301 -83 296 -101 c 4
 281 -157 234 -191 170 -191 c 4
 136 -191 108 -182 84 -164 c 5
 120 -108 l 5
 136 -120 152 -125 170 -125 c 4
 195 -125 214 -113 224 -93 c 4
 231 -79 232 -66 232 -47 c 6
 232 477 l 1
 302 477 l 1
 302 -47 l 22xf1
116 634 m 0
 144 634 163 615 163 587 c 0
 163 559 144 540 116 540 c 0
 89 540 69 559 69 587 c 0xf8
 69 615 89 634 116 634 c 0
82 477 m 1xf4
 152 477 l 1
 152 0 l 1
 82 0 l 1
 82 477 l 1xf4
266 634 m 0
 294 634 313 615 313 587 c 0
 313 559 294 540 266 540 c 0
 239 540 219 559 219 587 c 0xf2
 219 615 239 634 266 634 c 0
EndSplineSet
Validated: 1
Layer: 2
Layer: 3
EndChar
StartChar: kgreenlandic
Encoding: 312 312 425
Width: 433
VWidth: 0
Flags: HW
HStem: 0 21G<75 83 355.15 384.521> 647 20G<75 83>
VStem: 75 8<0 667>
AnchorPoint: "DoubleTop" -10 0 basechar 0
AnchorPoint: "Apos" -10 0 basechar 0
AnchorPoint: "Top" -18 0 basechar 0
AnchorPoint: "Center" -18 0 basechar 0
AnchorPoint: "Bottom" 219 0 basechar 0
LayerCount: 4
Back
Fore
SplineSet
75 477 m 5
 83 477 l 5
 83 188.791024731 l 1
 363.446289062 477 l 1
 374.608398438 477 l 1
 153.619881908 249.894479925 l 1
 384.521484375 0 l 1
 373.629882812 0 l 1
 148.032977894 244.152929361 l 1
 83 177.319826454 l 1
 83 0 l 1
 75 0 l 1
 75 477 l 5
EndSplineSet
Layer: 2
Layer: 3
EndChar
StartChar: Ldot
Encoding: 319 319 253
Width: 510
VWidth: 0
Flags: W
HStem: 0 70<159 465> 283 102<234.227 319.773> 647 20G<85 159>
VStem: 85 74<70 667> 226 102<291.227 376.773>
LayerCount: 4
Back
Fore
SplineSet
85 667 m 1
 159 667 l 1
 159 70 l 1
 465 70 l 1
 465 0 l 1
 85 0 l 1
 85 667 l 1
277 385 m 0
 307 385 328 364 328 334 c 0
 328 304 307 283 277 283 c 0
 247 283 226 304 226 334 c 0
 226 364 247 385 277 385 c 0
EndSplineSet
Validated: 1
Layer: 2
Layer: 3
EndChar
StartChar: ldot
Encoding: 320 320 254
Width: 364
VWidth: 0
Flags: W
HStem: 0 21G<75 145> 283 102<220.227 305.773> 647 20G<75 145>
VStem: 75 70<0 667> 212 102<291.227 376.773>
LayerCount: 4
Back
Fore
SplineSet
75 667 m 1
 145 667 l 1
 145 0 l 1
 75 0 l 1
 75 667 l 1
263 385 m 0
 293 385 314 364 314 334 c 0
 314 304 293 283 263 283 c 0
 233 283 212 304 212 334 c 0
 212 364 233 385 263 385 c 0
EndSplineSet
Validated: 1
Layer: 2
Layer: 3
EndChar
StartChar: Lslash
Encoding: 321 321 380
Width: 590
VWidth: 0
Flags: W
HStem: 0 70<225 535> 647 20G<155 225>
VStem: 155 70<70 270 366 667>
LayerCount: 4
Back
SplineSet
40 273 m 5
 360 433 l 5
 360 372 l 5
 40 212 l 5
 40 273 l 5
155 667 m 1
 229 667 l 1
 229 70 l 1
 535 70 l 1
 535 0 l 1
 155 0 l 1
 155 667 l 1
EndSplineSet
Fore
SplineSet
155 667 m 1
 225 667 l 1
 225 366 l 1
 360 433 l 1
 360 372 l 1
 225 304 l 1
 225 70 l 1
 535 70 l 1
 535 0 l 1
 155 0 l 1
 155 270 l 1
 40 212 l 1
 40 273 l 1
 155 330 l 1
 155 667 l 1
EndSplineSet
Layer: 2
Layer: 3
EndChar
StartChar: Eng
Encoding: 330 330 383
Width: 590
VWidth: 0
Flags: W
HStem: -191 70<322.444 432.263> 0 21G<75 149> 647 20G<75 151.577 441 515>
VStem: 75 74<0 520> 441 74<-97.4843 16 147 667>
LayerCount: 4
Back
Fore
SplineSet
75 667 m 1
 140 667 l 1
 441 147 l 1
 441 667 l 1
 515 667 l 1
 515 -51 l 2
 515 -78 513 -105 497 -132 c 0
 474 -169 432 -191 382 -191 c 0
 352 -191 324 -184 298 -173 c 1
 330 -109 l 1
 347 -117 365 -121 382 -121 c 0
 410 -121 425 -111 433 -98 c 0
 439 -87 441 -76 441 -51 c 2
 441 16 l 1
 149 520 l 1
 149 0 l 1
 75 0 l 1
 75 667 l 1
EndSplineSet
Validated: 1
Layer: 2
Layer: 3
EndChar
StartChar: eng
Encoding: 331 331 384
Width: 485
VWidth: 0
Flags: W
HStem: -191 66<233.188 343.959> 0 21G<65 135> 417 66<175.298 313.997>
VStem: 65 70<0 375.327 432 477> 355 70<-100.438 374.693>
LayerCount: 4
Back
Fore
SplineSet
425 -53 m 2
 425 -80 423 -107 407 -133 c 0
 385 -170 343 -191 294 -191 c 0
 265 -191 237 -184 211 -173 c 1
 241 -113 l 1
 258 -121 277 -125 294 -125 c 0
 322 -125 338 -115 346 -101 c 0
 353 -89 355 -78 355 -53 c 2
 355 258 l 2
 355 298 355 326 345 353 c 0
 329 393 297 417 245 417 c 0
 193 417 161 393 145 353 c 0
 135 326 135 298 135 258 c 2
 135 0 l 1
 65 0 l 1
 65 477 l 1
 135 477 l 1
 135 432 l 1
 161 465 200 483 255 483 c 0
 340 483 398 433 418 353 c 0
 425 324 425 296 425 258 c 2
 425 -53 l 2
EndSplineSet
Validated: 1
Layer: 2
Layer: 3
EndChar
StartChar: oe
Encoding: 339 339 102
Width: 676
VWidth: 0
Flags: W
HStem: -8 66<159.78 268.423 406.39 550.182> 223 62<373 551> 415 66<159.78 268.423 407.577 516.22>
VStem: 55 70<94.7935 378.206> 303 70<94.5422 223 285 378.739> 551 70<285 378.206>
CounterMasks: 1 1c
LayerCount: 4
Back
Fore
SplineSet
561 86 m 1
 601 32 l 1
 561 6 516 -8 470 -8 c 0
 413 -8 367 17 338 56 c 1
 311 17 268 -8 214 -8 c 0
 132 -8 75 51 60 125 c 0
 55 150 55 175 55 197 c 2
 55 276 l 2
 55 298 55 323 60 348 c 0
 75 422 132 481 214 481 c 0
 268 481 311 456 338 417 c 1
 365 456 408 481 462 481 c 0
 544 481 601 422 616 348 c 0
 621 323 621 298 621 276 c 2
 621 223 l 1
 373 223 l 1
 373 196 l 2
 373 174 374 153 377 135 c 0
 389 84 420 58 470 58 c 0
 501 58 533 67 561 86 c 1
129 138 m 0
 140 85 173 58 214 58 c 0
 255 58 288 85 299 138 c 0
 302 155 303 175 303 197 c 2
 303 276 l 2
 303 298 302 318 299 335 c 0
 288 388 255 415 214 415 c 0
 173 415 140 388 129 335 c 0
 126 318 125 298 125 276 c 2
 125 197 l 2
 125 175 126 155 129 138 c 0
551 285 m 1
 551 303 550 320 547 335 c 0
 536 388 503 415 462 415 c 0
 421 415 388 388 377 335 c 0
 374 320 373 303 373 285 c 1
 551 285 l 1
EndSplineSet
Validated: 1
Layer: 2
Layer: 3
EndChar
StartChar: uni018F
Encoding: 399 399 407
Width: 580
VWidth: 0
Flags: W
HStem: -6 70<198.551 381.363> 267 70<139 441> 603 70<194.734 381.363>
VStem: 65 74<124.401 267> 441 74<126.192 267 337 540.808>
LayerCount: 4
Back
Fore
SplineSet
290 673 m 4
 411 673 485 619 508 518 c 0
 514 493 515 468 515 438 c 2
 515 229 l 2
 515 199 514 174 508 149 c 0
 485 48 411 -6 290 -6 c 0
 169 -6 94 48 72 150 c 0
 66 175 65 199 65 229 c 2
 65 337 l 1
 441 337 l 1
 441 438 l 2
 441 470 439 493 431 518 c 0
 412 575 366 603 290 603 c 0
 238 603 189 589 153 550 c 1
 105 602 l 1
 154 656 219 673 290 673 c 4
441 267 m 1
 139 267 l 1
 139 229 l 2
 139 197 141 173 149 149 c 0
 168 92 214 64 290 64 c 0
 366 64 412 92 431 149 c 0
 439 174 441 197 441 229 c 2
 441 267 l 1
EndSplineSet
Validated: 1
Layer: 2
Layer: 3
EndChar
StartChar: florin
Encoding: 402 402 121
Width: 370
VWidth: 0
Flags: W
HStem: -185 62<35 133.346> 416 61<85 145 215 305> 595 62<226.654 325>
VStem: 145 70<-112.438 416 477 584.561>
LayerCount: 4
Back
Fore
SplineSet
215 -54 m 2
 215 -144 154 -185 95 -185 c 2
 35 -185 l 1
 35 -123 l 1
 95 -123 l 2
 120 -123 145 -103 145 -54 c 2
 145 416 l 1
 85 416 l 1
 85 477 l 1
 145 477 l 1
 145 527 l 2
 145 616 206 657 265 657 c 2
 325 657 l 1
 325 595 l 1
 265 595 l 2
 240 595 215 575 215 527 c 2
 215 477 l 1
 305 477 l 1
 305 416 l 1
 215 416 l 1
 215 -54 l 2
EndSplineSet
Validated: 1
Layer: 2
Layer: 3
EndChar
StartChar: uni01C7
Encoding: 455 455 396
Width: 926
VWidth: 0
Flags: W
HStem: 0 70<149 455 577.222 741.509> 647 20G<75 149 782 856>
VStem: 75 74<70 667> 782 74<111.847 667>
LayerCount: 4
Back
Fore
SplineSet
856 199 m 5
 856 181 856 166 853 149 c 4
 837 54 765 -6 661 -6 c 4
 623 -6 540 3 495 77 c 5
 550 121 l 5
 586 69 633 64 661 64 c 4
 722 64 764 97 777 149 c 4
 781 165 782 181 782 199 c 5
 782 667 l 5
 856 667 l 5
 856 199 l 5
75 667 m 1
 149 667 l 1
 149 70 l 1
 455 70 l 1
 455 0 l 1
 75 0 l 1
 75 667 l 1
EndSplineSet
Validated: 1
Layer: 2
Layer: 3
EndChar
StartChar: uni01C8
Encoding: 456 456 397
Width: 645
VWidth: 0
Flags: W
HStem: -191 66<382.15 491.283> 0 70<149 455> 457 20G<506 576> 540 94<498.562 579.671> 647 20G<75 149>
VStem: 75 74<70 667> 492 94<546.897 627.103> 506 70<-108.729 477>
LayerCount: 4
Back
Fore
SplineSet
576 -47 m 22xfd
 576 -68 575 -83 570 -101 c 4
 555 -157 508 -191 444 -191 c 4
 410 -191 382 -182 358 -164 c 5
 394 -108 l 5
 410 -120 426 -125 444 -125 c 4
 469 -125 488 -113 498 -93 c 4
 505 -79 506 -66 506 -47 c 6
 506 477 l 5
 576 477 l 5
 576 -47 l 22xfd
539 634 m 0
 567 634 586 615 586 587 c 0
 586 559 567 540 539 540 c 0
 512 540 492 559 492 587 c 0xfe
 492 615 512 634 539 634 c 0
75 667 m 1
 149 667 l 1
 149 70 l 1
 455 70 l 1
 455 0 l 1
 75 0 l 1
 75 667 l 1
EndSplineSet
Validated: 1
Layer: 2
Layer: 3
EndChar
StartChar: uni01C9
Encoding: 457 457 398
Width: 345
VWidth: 0
Flags: W
HStem: -191 66<81.1503 190.283> 0 21G<65 135> 540 94<198.562 279.671> 647 20G<65 135>
VStem: 65 70<0 667> 192 94<546.897 627.103> 205 70<-108.729 477>
LayerCount: 4
Back
Fore
SplineSet
275 -47 m 22xfa
 275 -68 274 -83 269 -101 c 4
 254 -157 207 -191 143 -191 c 4
 109 -191 81 -182 57 -164 c 5
 93 -108 l 5
 109 -120 125 -125 143 -125 c 4
 168 -125 187 -113 197 -93 c 4
 204 -79 205 -66 205 -47 c 6
 205 477 l 5
 275 477 l 5
 275 -47 l 22xfa
239 634 m 0
 267 634 286 615 286 587 c 0
 286 559 267 540 239 540 c 0
 212 540 192 559 192 587 c 0xfc
 192 615 212 634 239 634 c 0
65 667 m 1
 135 667 l 1
 135 0 l 1
 65 0 l 1
 65 667 l 1
EndSplineSet
Validated: 1
Layer: 2
Layer: 3
EndChar
StartChar: uni01CB
Encoding: 459 459 400
Width: 722
VWidth: 0
Flags: W
HStem: -191 66<458.15 567.283> 0 21G<75 147 436.423 511> 457 20G<582 652> 540 94<575.562 656.671> 647 20G<75 149.577 439 511>
VStem: 75 72<0 520> 439 72<147 667> 569 94<546.897 627.103> 582 70<-108.729 477>
LayerCount: 4
Back
Fore
SplineSet
652 -47 m 22xfe80
 652 -68 651 -83 646 -101 c 4
 631 -157 584 -191 520 -191 c 4
 486 -191 458 -182 434 -164 c 5
 470 -108 l 5
 486 -120 502 -125 520 -125 c 4
 545 -125 564 -113 574 -93 c 4
 581 -79 582 -66 582 -47 c 6
 582 477 l 5
 652 477 l 5
 652 -47 l 22xfe80
616 634 m 0
 644 634 663 615 663 587 c 0
 663 559 644 540 616 540 c 0
 589 540 569 559 569 587 c 0xff
 569 615 589 634 616 634 c 0
75 667 m 1
 138 667 l 1
 439 147 l 1
 439 667 l 1
 511 667 l 1
 511 0 l 1
 448 0 l 1
 147 520 l 1
 147 0 l 1
 75 0 l 1
 75 667 l 1
EndSplineSet
Validated: 1
Layer: 2
Layer: 3
EndChar
StartChar: uni01CC
Encoding: 460 460 401
Width: 637
VWidth: 0
Flags: W
HStem: -191 66<372.15 481.283> 0 21G<65 135 355 425> 417 66<175.298 313.997> 540 94<490.562 571.671>
VStem: 65 70<0 375.327 432 477> 355 70<0 374.693> 484 94<546.897 627.103> 496 70<-108.729 477>
LayerCount: 4
Back
Fore
SplineSet
65 477 m 1xfc
 135 477 l 1
 135 432 l 1
 161 465 200 483 255 483 c 0
 340 483 398 433 418 353 c 0
 425 324 425 296 425 258 c 2
 425 0 l 1
 355 0 l 1
 355 258 l 2
 355 298 355 326 345 353 c 0
 329 393 297 417 245 417 c 0
 193 417 161 393 145 353 c 0
 135 326 135 298 135 258 c 2
 135 0 l 1
 65 0 l 1
 65 477 l 1xfc
566 -47 m 18xfd
 566 -68 565 -83 560 -101 c 0
 545 -157 498 -191 434 -191 c 0
 400 -191 372 -182 348 -164 c 1
 384 -108 l 1
 400 -120 416 -125 434 -125 c 0
 459 -125 478 -113 488 -93 c 0
 495 -79 496 -66 496 -47 c 2
 496 477 l 1
 566 477 l 1
 566 -47 l 18xfd
531 634 m 0
 559 634 578 615 578 587 c 0
 578 559 559 540 531 540 c 0
 504 540 484 559 484 587 c 0xfe
 484 615 504 634 531 634 c 0
EndSplineSet
Layer: 2
Layer: 3
EndChar
StartChar: uni01F1
Encoding: 497 497 402
Width: 992
VWidth: 0
Flags: W
HStem: 0 70<149 383.41 599 932> 597 70<149 383.41 522 834>
VStem: 75 74<70 597> 431 74<114.611 552.389>
LayerCount: 4
Back
Fore
SplineSet
75 667 m 1
 300 667 l 18
 418 667 486 605 502 518 c 0
 505 500 505 487 505 468 c 1
 505 199 l 1
 505 180 505 167 502 149 c 0
 486 62 418 0 300 0 c 10
 75 0 l 1
 75 667 l 1
431 468 m 1
 431 487 431 501 426 518 c 0
 413 566 372 597 300 597 c 2
 149 597 l 1
 149 70 l 1
 300 70 l 2
 372 70 413 101 426 149 c 0
 431 166 431 180 431 199 c 1
 431 468 l 1
522 667 m 1
 922 667 l 1
 922 617 l 1
 599 70 l 1
 932 70 l 1
 932 0 l 1
 512 0 l 1
 512 50 l 1
 834 597 l 1
 522 597 l 1
 522 667 l 1
EndSplineSet
Validated: 1
Layer: 2
Layer: 3
EndChar
StartChar: uni0237
Encoding: 567 567 429
Width: 209
VWidth: 0
Flags: W
HStem: -191 66<-55.8497 53.283>
VStem: 68 70<-108.729 477>
LayerCount: 4
Back
Fore
SplineSet
138 -47 m 22
 138 -68 137 -83 132 -101 c 4
 117 -157 70 -191 6 -191 c 4
 -28 -191 -56 -182 -80 -164 c 5
 -44 -108 l 5
 -28 -120 -12 -125 6 -125 c 4
 31 -125 50 -113 60 -93 c 4
 67 -79 68 -66 68 -47 c 6
 68 477 l 5
 138 477 l 5
 138 -47 l 22
EndSplineSet
Validated: 1
Layer: 2
Layer: 3
EndChar
StartChar: uni0259
Encoding: 601 601 396
Width: 490
Flags: W
HStem: -6 66<171.265 318.735> 193 62<125 365> 417 66<130.57 319.112>
VStem: 55 70<104.951 193> 365 70<104.951 193 255 372.281>
AnchorPoint: "DoubleTop" 0 0 basechar 0
AnchorPoint: "Apos" 0 0 basechar 0
AnchorPoint: "Center" 5 0 basechar 0
AnchorPoint: "Bottom" 250 0 basechar 0
AnchorPoint: "Top" 245 477 basechar 0
LayerCount: 4
Back
Fore
SplineSet
235 483 m 0
 335 483 406 434 427 355 c 0
 435 328 435 302 435 279 c 2
 435 199 l 2
 435 177 435 152 428 126 c 0
 409 49 340 -6 245 -6 c 0
 150 -6 81 49 62 126 c 0
 55 152 55 177 55 199 c 2
 55 255 l 1
 365 255 l 1
 365 279 l 2
 365 301 364 321 360 338 c 0
 346 390 300 417 235 417 c 0
 193 417 150 407 113 387 c 1
 79 445 l 1
 127 470 181 483 235 483 c 0
245 60 m 0
 306 60 348 92 360 141 c 0
 364 156 365 174 365 193 c 1
 125 193 l 1
 125 174 126 156 130 141 c 0
 142 92 184 60 245 60 c 0
EndSplineSet
Validated: 1
Layer: 2
Layer: 3
EndChar
StartChar: uni02BC
Encoding: 700 700 448
Width: 202
Flags: W
HStem: 456 217<82.7301 98>
VStem: 50 102<578.953 665.037>
AnchorPoint: "Apos" 22 667 mark 0
LayerCount: 4
Back
Fore
SplineSet
50 622 m 0
 50 653 71 673 101 673 c 0
 131 673 152 653 152 622 c 0
 152 609 148 597 144 585 c 2
 98 456 l 1
 53 456 l 1
 82 574 l 0
 63 580 50 599 50 622 c 0
EndSplineSet
Validated: 1
Layer: 2
Layer: 3
EndChar
StartChar: ring
Encoding: 730 730 197
Width: 280
VWidth: 0
Flags: W
HStem: 519 41<102.865 177.691> 653 40<104.128 177.399>
VStem: 53 43<566.154 646.438> 185 42<566.424 646.157>
AnchorPoint: "Top" 140 477 mark 0
LayerCount: 4
Back
Fore
SplineSet
140 693 m 0
 192 693 227 659 227 606 c 0
 227 554 192 519 140 519 c 0
 89 519 53 554 53 606 c 0
 53 659 89 693 140 693 c 0
140 653 m 0
 113 653 96 633 96 606 c 0
 96 579 113 560 140 560 c 0
 167 560 185 579 185 606 c 0
 185 633 167 653 140 653 c 0
EndSplineSet
Validated: 1
Layer: 2
Layer: 3
EndChar
StartChar: ogonek
Encoding: 731 731 389
Width: 286
Flags: W
HStem: -191 55<106.172 179.693> -20 20G<72 156>
VStem: 50 50<-131.053 -35.7473>
AnchorPoint: "Bottom" 121 0 mark 0
LayerCount: 4
Back
Fore
SplineSet
156 0 m 1
 112 -39 100 -65 100 -89 c 0
 100 -115 115 -136 140 -136 c 0
 165 -136 179 -118 195 -95 c 1
 236 -123 l 1
 223 -145 197 -191 140 -191 c 0
 79 -191 50 -142 50 -92 c 0
 50 -66 58 -30 86 0 c 1
 156 0 l 1
EndSplineSet
Validated: 1
Layer: 2
Layer: 3
EndChar
StartChar: hungarumlaut
Encoding: 733 733 199
Width: 383
Flags: W
HStem: 546 121
VStem: 50 283
LayerCount: 4
Back
Fore
SplineSet
197 667 m 29
 114 546 l 5
 50 546 l 5
 125 667 l 29
 197 667 l 29
333 667 m 29
 246 546 l 5
 182 546 l 5
 261 667 l 29
 333 667 l 29
EndSplineSet
Validated: 1
Layer: 2
Layer: 3
EndChar
StartChar: tildecomb
Encoding: 771 771 470
Width: 392
Flags: W
HStem: 549 50<215.453 282.354> 609 50<109.612 176.546>
VStem: 48 52<557 589.576> 292 52<618.424 651>
AnchorPoint: "Top" 196 477 mark 0
LayerCount: 4
Back
Fore
SplineSet
248 549 m 0
 222 549 202 561 189 574 c 0
 173 589 164 609 143 609 c 0
 130 609 118 601 110 590 c 0
 104 581 100 569 100 557 c 1
 48 557 l 1
 48 578 54 600 67 618 c 0
 82 640 108 659 143 659 c 0
 170 659 190 647 203 634 c 0
 219 619 229 599 248 599 c 0
 262 599 274 607 282 618 c 0
 288 627 292 639 292 651 c 1
 344 651 l 1
 344 630 338 608 325 590 c 0
 309 568 282 549 248 549 c 0
EndSplineSet
Validated: 1
Layer: 2
Layer: 3
EndChar
StartChar: uni030C
Encoding: 780 780 474
Width: 368
Flags: W
HStem: 546 121
VStem: 50 268
AnchorPoint: "Top" 184 477 mark 0
LayerCount: 4
Back
Fore
SplineSet
145 546 m 1
 50 667 l 1
 116 667 l 1
 184 590 l 1
 252 667 l 1
 318 667 l 1
 223 546 l 1
 145 546 l 1
EndSplineSet
Validated: 1
Layer: 2
Layer: 3
EndChar
StartChar: uni0312
Encoding: 786 786 445
Width: 202
VWidth: 0
Flags: W
HStem: 552 167<104 119.973>
VStem: 50 102<564.332 635.44>
AnchorPoint: "Top" 101 477 mark 0
LayerCount: 4
Back
Fore
SplineSet
152 597 m 0
 152 583 146 571 138 564 c 0
 129 556 116 552 101 552 c 0
 86 552 73 556 64 564 c 0
 56 571 50 583 50 597 c 0
 50 613 56 626 62 637 c 2
 104 719 l 1
 149 719 l 1
 120 639 l 1
 127 638 133 635 138 630 c 0
 146 623 152 611 152 597 c 0
EndSplineSet
Validated: 1
Layer: 2
Layer: 3
EndChar
StartChar: dotbelowcomb
Encoding: 803 803 458
Width: 202
VWidth: 0
Flags: W
HStem: -187 102<58.2266 143.773>
VStem: 50 102<-178.773 -93.2266>
LayerCount: 4
Back
Fore
SplineSet
101 -85 m 0
 131 -85 152 -106 152 -136 c 0
 152 -166 131 -187 101 -187 c 0
 71 -187 50 -166 50 -136 c 0
 50 -106 71 -85 101 -85 c 0
EndSplineSet
Validated: 1
Layer: 2
Layer: 3
EndChar
StartChar: uni0326
Encoding: 806 806 447
Width: 202
Flags: W
HStem: -230 167<82.0274 98>
VStem: 50 102<-146.44 -75.3318>
AnchorPoint: "Bottom" 101 0 mark 0
LayerCount: 4
Back
Fore
SplineSet
50 -108 m 0
 50 -94 56 -82 64 -75 c 0
 73 -67 86 -63 101 -63 c 0
 116 -63 129 -67 138 -75 c 0
 146 -82 152 -94 152 -108 c 0
 152 -124 146 -137 140 -148 c 2
 98 -230 l 1
 53 -230 l 1
 82 -150 l 1
 75 -149 69 -146 64 -141 c 0
 56 -134 50 -122 50 -108 c 0
EndSplineSet
Validated: 1
Layer: 2
Layer: 3
EndChar
StartChar: tonos
Encoding: 900 900 510
Width: 213
Flags: W
HStem: 546 121<85 116>
VStem: 50 113
AnchorPoint: "Top" 96 477 mark 0
LayerCount: 4
Back
Fore
SplineSet
163 667 m 25
 116 546 l 1
 50 546 l 1
 85 667 l 25
 163 667 l 25
EndSplineSet
Validated: 1
Layer: 2
Layer: 3
EndChar
StartChar: Alpha
Encoding: 913 913 475
Width: 610
Flags: W
HStem: 0 21G<35 117.909 492.091 575> 165 70<190 420> 647 20G<265.864 344.136>
AnchorPoint: "DoubleTop" 0 0 basechar 0
AnchorPoint: "Apos" 0 0 basechar 0
AnchorPoint: "Center" 0 0 basechar 0
AnchorPoint: "Bottom" 537 0 basechar 0
AnchorPoint: "Top" 305 667 basechar 0
LayerCount: 4
Back
Fore
SplineSet
273 667 m 1
 294 667 316 667 337 667 c 1
 575 0 l 1
 550 -0 524 0 499 0 c 1
 442 165 l 1
 168 165 l 1
 111 0 l 1
 35 0 l 1
 273 667 l 1
305 571 m 1
 190 235 l 1
 420 235 l 1
 305 571 l 1
EndSplineSet
Validated: 1
Layer: 2
Layer: 3
EndChar
StartChar: Epsilon
Encoding: 917 917 479
Width: 500
VWidth: 0
Flags: W
HStem: 0 70<149 435> 308 70<149 385> 597 70<149 435>
VStem: 75 74<70 308 378 597>
AnchorPoint: "DoubleTop" 0 0 basechar 0
AnchorPoint: "Apos" 0 0 basechar 0
AnchorPoint: "Center" 0 0 basechar 0
AnchorPoint: "Bottom" 255 0 basechar 0
AnchorPoint: "Top" 255 667 basechar 0
LayerCount: 4
Back
Fore
SplineSet
75 667 m 1
 435 667 l 1
 435 597 l 1
 149 597 l 1
 149 378 l 1
 385 378 l 1
 385 308 l 1
 149 308 l 1
 149 70 l 1
 435 70 l 1
 435 0 l 1
 75 0 l 1
 75 667 l 1
EndSplineSet
Validated: 1
Layer: 2
Layer: 3
EndChar
StartChar: Zeta
Encoding: 918 918 480
Width: 540
VWidth: 0
Flags: W
HStem: 0 70<147 480> 597 70<70 382>
AnchorPoint: "DoubleTop" 0 0 basechar 0
AnchorPoint: "Apos" 0 0 basechar 0
AnchorPoint: "Center" 5 0 basechar 0
AnchorPoint: "Bottom" 270 0 basechar 0
AnchorPoint: "Top" 270 667 basechar 0
LayerCount: 4
Back
Fore
SplineSet
70 667 m 1
 470 667 l 1
 470 617 l 1
 147 70 l 1
 480 70 l 1
 480 0 l 1
 60 0 l 1
 60 50 l 1
 382 597 l 1
 70 597 l 1
 70 667 l 1
EndSplineSet
Validated: 1
Layer: 2
Layer: 3
EndChar
StartChar: Theta
Encoding: 920 920 497
Width: 660
VWidth: 0
Flags: W
HStem: -6 70<214.893 445.107> 308 70<219 441> 603 70<214.893 445.107>
VStem: 65 74<132.4 534.6> 521 74<132.4 534.6>
LayerCount: 4
Back
Fore
SplineSet
219 378 m 1
 441 378 l 1
 441 308 l 1
 219 308 l 1
 219 378 l 1
65 259 m 2
 65 408 l 2
 65 463 67 504 80 544 c 0
 111 628 190 673 330 673 c 0
 470 673 549 628 580 544 c 0
 593 504 595 463 595 408 c 2
 595 259 l 2
 595 204 593 163 580 123 c 0
 549 39 470 -6 330 -6 c 0
 190 -6 111 39 80 123 c 0
 67 163 65 204 65 259 c 2
139 259 m 2
 139 201 142 159 166 123 c 0
 195 85 248 64 330 64 c 0
 412 64 465 85 494 123 c 0
 518 159 521 201 521 259 c 2
 521 408 l 2
 521 466 518 508 494 544 c 0
 465 582 412 603 330 603 c 0
 248 603 195 582 166 544 c 0
 142 508 139 466 139 408 c 2
 139 259 l 2
EndSplineSet
Validated: 1
Layer: 2
Layer: 3
EndChar
StartChar: Rho
Encoding: 929 929 494
Width: 520
VWidth: 0
Flags: W
HStem: 0 21G<75 148> 257 70<149 341.812> 597 70<149 341.812>
VStem: 75 74<0 257 327 597> 391 74<376.852 547.148>
LayerCount: 4
Back
Fore
SplineSet
149 597 m 1
 149 327 l 1
 260 327 l 2
 341 327 391 366 391 462 c 0
 391 558 341 597 260 597 c 2
 149 597 l 1
75 667 m 1
 260 667 l 2
 378 667 465 606 465 462 c 0
 465 318 378 257 260 257 c 2
 148 257 l 1
 148 0 l 1
 75 0 l 1
 75 667 l 1
EndSplineSet
Validated: 1
Layer: 2
Layer: 3
EndChar
StartChar: Sigma
Encoding: 931 931 489
Width: 500
VWidth: 0
Flags: W
HStem: 0 70<147 440> 597 70<147 439>
LayerCount: 4
Back
Fore
SplineSet
299 328 m 1
 147 70 l 1
 440 70 l 1
 440 0 l 1
 60 0 l 1
 60 50 l 1
 232 342 l 1
 60 617 l 1
 60 667 l 1
 439 667 l 1
 439 597 l 1
 147 597 l 1
 299 358 l 1
 299 328 l 1
EndSplineSet
Validated: 1
Layer: 2
Layer: 3
EndChar
StartChar: Tau
Encoding: 932 932 487
Width: 560
VWidth: 0
Flags: W
HStem: 0 21G<243 317> 597 70<55 243 317 505>
VStem: 243 74<0 597>
AnchorPoint: "DoubleTop" 0 0 basechar 0
AnchorPoint: "Apos" 0 0 basechar 0
AnchorPoint: "Center" 35 0 basechar 0
AnchorPoint: "Bottom" 281 0 basechar 0
AnchorPoint: "Top" 280 667 basechar 0
LayerCount: 4
Back
Fore
SplineSet
55 667 m 1
 505 667 l 1
 505 597 l 1
 317 597 l 1
 317 0 l 1
 243 0 l 1
 243 597 l 1
 55 597 l 1
 55 667 l 1
EndSplineSet
Validated: 1
Layer: 2
Layer: 3
EndChar
StartChar: gamma
Encoding: 947 947 415
Width: 532
VWidth: 0
Flags: W
HStem: -185 21G<257 331> 415 62<45 113.655>
VStem: 257 74<-185 0>
LayerCount: 4
Back
Fore
SplineSet
45 477 m 1
 75 477 l 2
 128 477 164 461 184 404 c 2
 294 81 l 1
 428 477 l 1
 502 477 l 1
 331 0 l 1
 331 -185 l 1
 257 -185 l 1
 257 0 l 1
 119 383 l 2
 111 406 92 415 75 415 c 2
 45 415 l 1
 45 477 l 1
EndSplineSet
Layer: 2
Layer: 3
EndChar
StartChar: epsilon
Encoding: 949 949 509
Width: 425
VWidth: 0
Flags: W
HStem: 0 66<172.252 365> 206 65<125 315> 411 66<172.252 360>
VStem: 55 70<115.356 206 271 361.644>
CounterMasks: 1 e0
AnchorPoint: "DoubleTop" 0 0 basechar 0
AnchorPoint: "Apos" 0 0 basechar 0
AnchorPoint: "Center" 0 0 basechar 0
AnchorPoint: "Bottom" 245 0 basechar 0
AnchorPoint: "Top" 245 477 basechar 0
LayerCount: 4
Back
Fore
SplineSet
245 0 m 2
 150 0 85 50 63 130 c 0
 55 159 55 187 55 225 c 2
 55 252 l 2
 55 290 55 318 63 347 c 0
 85 427 150 477 245 477 c 2
 360 477 l 1
 360 411 l 1
 245 411 l 2
 193 411 156 387 138 347 c 0
 127 324 125 301 125 271 c 1
 315 271 l 1
 315 206 l 1
 125 206 l 1
 125 176 127 153 138 130 c 0
 156 90 193 66 245 66 c 2
 245 66 365 66 365 66 c 1
 365 0 l 1
 245 0 l 2
EndSplineSet
Validated: 1
Layer: 2
Layer: 3
EndChar
StartChar: theta
Encoding: 952 952 517
Width: 500
VWidth: 0
Flags: W
HStem: -6 66<177.226 322.774> 301 66<130 370> 607 66<177.226 322.774>
VStem: 60 70<109.356 301 367 557.644> 370 70<109.356 301 367 557.644>
AnchorPoint: "DoubleTop" 5 0 basechar 0
AnchorPoint: "Apos" 5 0 basechar 0
AnchorPoint: "Center" 5 0 basechar 0
AnchorPoint: "Bottom" 250 0 basechar 0
AnchorPoint: "Top" 250 477 basechar 0
LayerCount: 4
Back
Fore
SplineSet
250 607 m 0
 198 607 161 583 143 543 c 0
 130 516 130 488 130 448 c 2
 130 367 l 1
 370 367 l 1
 370 448 l 2
 370 488 370 516 357 543 c 0
 339 583 302 607 250 607 c 0
250 673 m 0
 345 673 410 623 432 543 c 0
 440 514 440 486 440 448 c 2
 440 219 l 2
 440 181 440 153 432 124 c 0
 410 44 345 -6 250 -6 c 0
 155 -6 90 44 68 124 c 0
 60 153 60 181 60 219 c 2
 60 448 l 2
 60 486 60 514 68 543 c 0
 90 623 155 673 250 673 c 0
130 301 m 1
 130 219 l 2
 130 179 130 151 143 124 c 0
 161 84 198 60 250 60 c 0
 302 60 339 84 357 124 c 0
 370 151 370 179 370 219 c 2
 370 301 l 1
 130 301 l 1
EndSplineSet
Validated: 1
Layer: 2
Layer: 3
EndChar
StartChar: iota
Encoding: 953 953 515
Width: 200
VWidth: 0
Flags: W
HStem: 0 21G<65 135>
VStem: 65 70<0 477>
AnchorPoint: "Center" -7 0 basechar 0
AnchorPoint: "Apos" -7 0 basechar 0
AnchorPoint: "DoubleTop" -7 0 basechar 0
AnchorPoint: "Bottom" 100 0 basechar 0
AnchorPoint: "Top" 100 477 basechar 0
LayerCount: 4
Back
Fore
SplineSet
65 477 m 1
 135 477 l 1
 135 0 l 1
 65 0 l 1
 65 477 l 1
EndSplineSet
Validated: 1
Layer: 2
Layer: 3
EndChar
StartChar: lambda
Encoding: 955 955 514
Width: 480
Flags: W
HStem: 0 21G<30 110.974 369.026 450> 647 20G<134 215.256>
AnchorPoint: "DoubleTop" 0 0 basechar 0
AnchorPoint: "Apos" 0 0 basechar 0
AnchorPoint: "Top" 240 476 basechar 0
AnchorPoint: "Center" -10 0 basechar 0
AnchorPoint: "Bottom" -10 0 basechar 0
LayerCount: 4
Back
Fore
SplineSet
30 0 m 1
 203 477 l 1
 134 667 l 1
 208 667 l 1
 450 0 l 1
 376 0 l 1
 240 390 l 1
 104 0 l 1
 30 0 l 1
EndSplineSet
Validated: 1
Layer: 2
Layer: 3
EndChar
StartChar: uni03BC
Encoding: 956 956 412
Width: 550
VWidth: 0
Flags: HW
HStem: -6 66<187.057 322.92 456.715 505>
VStem: 65 70<-185 55 115.371 477> 375 70<115.865 477>
LayerCount: 4
Back
Fore
SplineSet
65 477 m 1
 135 477 l 1
 135 219 l 2
 135 178.897460938 135.223632812 150.037109375 145.7109375 123 c 0
 161.076171875 83.3857421875 193.32421875 60 245 60 c 0
 296.67578125 60 328.923828125 83.3857421875 344.2890625 123 c 0
 354.776367188 150.037109375 355 178.897460938 355 219 c 2
 355 477 l 1
 425 477 l 1
 425 219 l 1
 425 124 l 2
 425 79 450 60 475 60 c 2
 485 60 l 1
 485 -6 l 1
 475 -6 l 2
 433.501455683 -6 396.255082181 14.4104199166 377.37759142 56.7997832969 c 1
 347.993584925 16.8787003404 302.491085638 -6 245 -6 c 0
 197.296825459 -6 161.054347856 9.7516079257 135 37.9207190196 c 1
 135 -185 l 1
 65 -185 l 1
 65 477 l 1
EndSplineSet
Layer: 2
Layer: 3
EndChar
StartChar: nu
Encoding: 957 957 519
Width: 480
Flags: W
HStem: 0 21G<201.495 278.505>
AnchorPoint: "DoubleTop" 0 0 basechar 0
AnchorPoint: "Apos" 0 0 basechar 0
AnchorPoint: "Bottom" -10 0 basechar 0
AnchorPoint: "Center" -10 0 basechar 0
AnchorPoint: "Top" 240 476 basechar 0
LayerCount: 4
Back
Fore
SplineSet
30 477 m 1
 104 477 l 1
 240 97 l 1
 376 477 l 1
 450 477 l 1
 271 0 l 1
 209 0 l 1
 30 477 l 1
EndSplineSet
Validated: 1
Layer: 2
Layer: 3
EndChar
StartChar: omicron
Encoding: 959 959 500
Width: 490
VWidth: 0
Flags: W
HStem: -6 66<172.226 317.774> 417 66<172.226 317.774>
VStem: 55 70<109.356 367.644> 365 70<109.356 367.644>
AnchorPoint: "DoubleTop" 0 0 basechar 0
AnchorPoint: "Apos" 0 0 basechar 0
AnchorPoint: "Center" 0 0 basechar 0
AnchorPoint: "Bottom" 245 0 basechar 0
AnchorPoint: "Top" 245 477 basechar 0
LayerCount: 4
Back
Fore
SplineSet
245 483 m 0
 340 483 405 433 427 353 c 0
 435 324 435 296 435 258 c 2
 435 219 l 2
 435 181 435 153 427 124 c 0
 405 44 340 -6 245 -6 c 0
 150 -6 85 44 63 124 c 0
 55 153 55 181 55 219 c 2
 55 258 l 2
 55 296 55 324 63 353 c 0
 85 433 150 483 245 483 c 0
245 417 m 0
 193 417 156 393 138 353 c 0
 125 326 125 298 125 258 c 2
 125 219 l 2
 125 179 125 151 138 124 c 0
 156 84 193 60 245 60 c 0
 297 60 334 84 352 124 c 0
 365 151 365 179 365 219 c 2
 365 258 l 2
 365 298 365 326 352 353 c 0
 334 393 297 417 245 417 c 0
EndSplineSet
Validated: 1
Layer: 2
Layer: 3
EndChar
StartChar: pi
Encoding: 960 960 416
Width: 530
VWidth: 0
Flags: HW
HStem: -6 66<436.654 485> 411 66<45 105 175 355 425 475>
VStem: 105 70<0 411> 355 70<72.4111 411>
LayerCount: 4
Back
Fore
SplineSet
425 124 m 2
 425 79 450 60 475 60 c 2
 485 60 l 1
 485 -6 l 1
 475 -6 l 2
 416 -6 355 35 355 124 c 2
 355 411 l 1
 175 411 l 1
 175 0 l 1
 105 0 l 1
 105 411 l 1
 45 411 l 1
 45 477 l 1
 475 477 l 1
 475 411 l 1
 425 411 l 1
 425 124 l 2
EndSplineSet
Layer: 2
Layer: 3
EndChar
StartChar: tau
Encoding: 964 964 518
Width: 420
VWidth: 0
Flags: W
HStem: 1 21G<175 245> 411 66<45 175 245 375>
VStem: 175 70<1 411>
LayerCount: 4
Back
SplineSet
45 477 m 5
 375 477 l 5
 375 411 l 5
 245 411 l 5
 245 124 l 6
 245 79 270 60 295 60 c 6
 305 60 l 5
 305 -6 l 5
 295 -6 l 6
 236 -6 175 35 175 124 c 6
 175 411 l 5
 45 411 l 5
 45 477 l 5
EndSplineSet
Fore
SplineSet
175 1 m 9
 175 411 l 1
 45 411 l 1
 45 477 l 1
 375 477 l 1
 375 411 l 1
 245 411 l 1
 245 1 l 17
 175 1 l 9
EndSplineSet
Validated: 1
Layer: 2
Layer: 3
EndChar
StartChar: upsilon
Encoding: 965 965 520
Width: 480
VWidth: 0
Flags: W
HStem: -6 66<170.932 309.068>
VStem: 60 70<102.333 477> 350 70<102.333 477>
AnchorPoint: "DoubleTop" 0 0 basechar 0
AnchorPoint: "Apos" 0 0 basechar 0
AnchorPoint: "Center" -15 0 basechar 0
AnchorPoint: "Bottom" 240 0 basechar 0
AnchorPoint: "Top" 240 476 basechar 0
LayerCount: 4
Back
Fore
SplineSet
60 477 m 17
 130 477 l 9
 130 219 l 18
 130 179 130 150 141 123 c 0
 156 83 188 60 240 60 c 0
 292 60 324 83 339 123 c 0
 350 150 350 179 350 219 c 10
 350 477 l 17
 420 477 l 9
 420 219 l 18
 420 180 420 152 413 123 c 0
 393 43 334 -6 240 -6 c 0
 146 -6 87 43 67 123 c 0
 60 152 60 180 60 219 c 10
 60 477 l 17
EndSplineSet
Validated: 1
Layer: 2
Layer: 3
EndChar
StartChar: endash
Encoding: 8211 8211 93
Width: 430
Flags: W
HStem: 218 66<80 350>
VStem: 80 270<218 284>
LayerCount: 4
Back
Fore
SplineSet
80 284 m 1
 350 284 l 1
 350 218 l 1
 80 218 l 1
 80 284 l 1
EndSplineSet
Validated: 1
Layer: 2
Layer: 3
EndChar
StartChar: emdash
Encoding: 8212 8212 94
Width: 540
Flags: W
HStem: 218 66<80 460>
LayerCount: 4
Back
Fore
SplineSet
80 284 m 1
 460 284 l 1
 460 218 l 1
 80 218 l 1
 80 284 l 1
EndSplineSet
Validated: 1
Layer: 2
Layer: 3
EndChar
StartChar: quoteleft
Encoding: 8216 8216 87
Width: 202
Flags: W
HStem: 450 217<104 119.516>
VStem: 50 102<458.123 543.949>
LayerCount: 4
Back
Fore
SplineSet
101 450 m 0
 76 450 50 466 50 501 c 0
 50 506 51 524 59 546 c 2
 104 667 l 1
 149 667 l 1
 120 549 l 1
 138 543 152 527 152 501 c 0
 152 466 126 450 101 450 c 0
EndSplineSet
Validated: 1
Layer: 2
Layer: 3
EndChar
StartChar: quotedblbase
Encoding: 8222 8222 108
Width: 362
Flags: W
HStem: -121 217<82.7301 98 242.73 258>
VStem: 50 102<1.95312 88.0371> 210 102<1.95312 88.0371>
LayerCount: 4
Back
Fore
SplineSet
210 45 m 0
 210 76 231 96 261 96 c 0
 291 96 312 76 312 45 c 0
 312 32 308 20 304 8 c 2
 258 -121 l 1
 213 -121 l 1
 242 -3 l 0
 223 3 210 22 210 45 c 0
50 45 m 0
 50 76 71 96 101 96 c 0
 131 96 152 76 152 45 c 0
 152 32 148 20 144 8 c 2
 98 -121 l 1
 53 -121 l 1
 82 -3 l 0
 63 3 50 22 50 45 c 0
EndSplineSet
Validated: 1
Layer: 2
Layer: 3
EndChar
StartChar: ellipsis
Encoding: 8230 8230 110
Width: 542
VWidth: 0
Flags: W
HStem: -6 102<58.2266 143.773 228.227 313.773 398.227 483.773>
VStem: 50 102<2.22656 87.7734> 220 102<2.22656 87.7734> 390 102<2.22656 87.7734>
CounterMasks: 1 70
LayerCount: 4
Back
Fore
SplineSet
101 96 m 0
 131 96 152 75 152 45 c 0
 152 15 131 -6 101 -6 c 0
 71 -6 50 15 50 45 c 0
 50 75 71 96 101 96 c 0
441 96 m 0
 471 96 492 75 492 45 c 0
 492 15 471 -6 441 -6 c 0
 411 -6 390 15 390 45 c 0
 390 75 411 96 441 96 c 0
271 96 m 0
 301 96 322 75 322 45 c 0
 322 15 301 -6 271 -6 c 0
 241 -6 220 15 220 45 c 0
 220 75 241 96 271 96 c 0
EndSplineSet
Validated: 1
Layer: 2
Layer: 3
EndChar
StartChar: perthousand
Encoding: 8240 8240 103
Width: 1022
VWidth: 0
Flags: W
HStem: -6 60<485.218 576.782 795.218 886.782> 237 60<485.218 576.782 795.218 886.782> 370 60<135.218 226.782> 613 60<135.218 226.782>
VStem: 60 62<442.447 600.553> 240 62<442.447 600.553> 410 62<66.4473 224.553> 590 62<66.4473 224.553> 720 62<66.4473 224.553> 900 62<66.4473 224.553>
LayerCount: 4
Back
Fore
SplineSet
784 98 m 0
 790 72 810 54 841 54 c 0
 872 54 892 72 898 98 c 0
 900 107 900 118 900 131 c 0
 900 160 l 0
 900 173 900 184 898 193 c 0
 892 219 872 237 841 237 c 0
 810 237 790 219 784 193 c 0
 782 184 782 173 782 160 c 0
 782 131 l 0
 782 118 782 107 784 98 c 0
724 85 m 0
 720 102 720 117 720 131 c 0
 720 160 l 0
 720 174 720 189 724 206 c 0
 735 257 780 297 841 297 c 0
 902 297 947 257 958 206 c 0
 962 189 962 174 962 160 c 0
 962 131 l 0
 962 117 962 102 958 85 c 0
 947 34 902 -6 841 -6 c 0
 780 -6 735 34 724 85 c 0
124 474 m 0
 130 448 150 430 181 430 c 0
 212 430 232 448 238 474 c 0
 240 483 240 494 240 507 c 0
 240 536 l 0
 240 549 240 560 238 569 c 0
 232 595 212 613 181 613 c 0
 150 613 130 595 124 569 c 0
 122 560 122 549 122 536 c 0
 122 507 l 0
 122 494 122 483 124 474 c 0
64 461 m 0
 60 478 60 493 60 507 c 0
 60 536 l 0
 60 550 60 565 64 582 c 0
 75 633 120 673 181 673 c 0
 242 673 287 633 298 582 c 0
 302 565 302 550 302 536 c 0
 302 507 l 0
 302 493 302 478 298 461 c 0
 287 410 242 370 181 370 c 0
 120 370 75 410 64 461 c 0
474 98 m 0
 480 72 500 54 531 54 c 0
 562 54 582 72 588 98 c 0
 590 107 590 118 590 131 c 0
 590 160 l 0
 590 173 590 184 588 193 c 0
 582 219 562 237 531 237 c 0
 500 237 480 219 474 193 c 0
 472 184 472 173 472 160 c 0
 472 131 l 0
 472 118 472 107 474 98 c 0
414 85 m 0
 410 102 410 117 410 131 c 0
 410 160 l 0
 410 174 410 189 414 206 c 0
 425 257 470 297 531 297 c 0
 592 297 637 257 648 206 c 0
 652 189 652 174 652 160 c 0
 652 131 l 0
 652 117 652 102 648 85 c 0
 637 34 592 -6 531 -6 c 0
 470 -6 425 34 414 85 c 0
496 667 m 1
 570 667 l 1
 210 0 l 1
 136 0 l 1
 496 667 l 1
EndSplineSet
Validated: 1
Layer: 2
Layer: 3
EndChar
StartChar: guilsinglleft
Encoding: 8249 8249 188
Width: 379
Flags: W
VStem: 80 219
LayerCount: 4
Back
Fore
SplineSet
223 437 m 1
 299 437 l 1
 140 250 l 1
 299 63 l 1
 223 63 l 1
 80 227 l 1
 80 273 l 1
 223 437 l 1
EndSplineSet
Validated: 1
Layer: 2
Layer: 3
EndChar
StartChar: guilsinglright
Encoding: 8250 8250 189
Width: 379
Flags: W
VStem: 80 219
LayerCount: 4
Back
Fore
SplineSet
156 437 m 1
 299 273 l 1
 299 227 l 1
 156 63 l 1
 80 63 l 1
 239 250 l 1
 80 437 l 1
 156 437 l 1
EndSplineSet
Validated: 1
Layer: 2
Layer: 3
EndChar
StartChar: Euro
Encoding: 8364 8364 390
Width: 583
VWidth: 0
Flags: W
HStem: -6 70<242.796 428.183> 243 56<60 105 179 380> 368 56<60 105 179 420> 603 70<242.796 426.714>
VStem: 105 74<125.671 243 299 368 424 541.329>
AnchorPoint: "DoubleTop" 20 0 basechar 0
AnchorPoint: "Apos" 20 0 basechar 0
AnchorPoint: "Center" 20 0 basechar 0
AnchorPoint: "Bottom" 310 0 basechar 0
AnchorPoint: "Top" 310 667 basechar 0
LayerCount: 4
Back
Fore
SplineSet
330 -6 m 0
 218 -6 137 53 113 142 c 0
 105 173 105 202 105 229 c 2
 105 243 l 1
 40 243 l 1
 60 299 l 1
 105 299 l 1
 105 368 l 1
 40 368 l 1
 60 424 l 1
 105 424 l 1
 105 438 l 2
 105 465 105 494 113 525 c 0
 137 614 218 673 330 673 c 0
 394 673 460 654 511 611 c 1
 463 559 l 1
 427 588 379 603 330 603 c 0
 254 603 201 568 185 507 c 0
 180 487 179 464 179 438 c 2
 179 424 l 1
 440 424 l 1
 420 368 l 1
 179 368 l 1
 179 299 l 1
 400 299 l 1
 380 243 l 1
 179 243 l 1
 179 229 l 2
 179 203 180 180 185 160 c 0
 201 99 254 64 330 64 c 0
 389 64 438 84 471 114 c 1
 523 64 l 1
 477 22 410 -6 330 -6 c 0
EndSplineSet
Validated: 1
Layer: 2
Layer: 3
EndChar
StartChar: uni20B9
Encoding: 8377 8377 440
Width: 550
VWidth: 0
Flags: W
HStem: 0 21G<294.798 398> 258 67<78 102 186 260.016> 450 67<90 308 387 460> 600 67<90 260.625 334 460>
VStem: 316 71<383.636 450>
LayerCount: 4
Back
Fore
SplineSet
186 258 m 1
 398 0 l 1
 311 0 l 1
 102 258 l 1
 78 258 l 1
 78 325 l 1
 187 325 l 2
 253 325 311 367 316 450 c 1
 60 450 l 1
 90 517 l 1
 308 517 l 1
 289 572 241 600 187 600 c 2
 187 600 102 600 60 600 c 1
 90 667 l 1
 490 667 l 1
 460 600 l 1
 334 600 l 1
 356 578 372 550 380 517 c 1
 490 517 l 1
 460 450 l 1
 387 450 l 1
 381 319 289 258 186 258 c 1
EndSplineSet
Validated: 1
Layer: 2
Layer: 3
EndChar
StartChar: uni20BA
Encoding: 8378 8378 451
Width: 550
VWidth: 0
Flags: W
HStem: 0 70<232 332.625>
VStem: 393 74<132.976 235>
LayerCount: 4
Back
SplineSet
68 423 m 5
 368 573 l 5
 368 512 l 5
 68 362 l 5
 68 423 l 5
68 283 m 5
 368 433 l 5
 368 372 l 5
 68 222 l 5
 68 283 l 5
232 667 m 5
 232 0 l 5
 158 0 l 5
 158 667 l 5
 232 667 l 5
467 308 m 29
 467 228 l 6
 467 62 359 0 232 0 c 13
 232 70 l 21
 322 70 393 110 393 228 c 6
 393 308 l 29
 467 308 l 29
EndSplineSet
Fore
SplineSet
393 235 m 1
 393 203 391 179 383 155 c 0
 364 98 318 70 232 70 c 0
 232 304 l 1
 368 372 l 1
 368 433 l 1
 232 365 l 1
 232 444 l 1
 368 512 l 1
 368 573 l 1
 232 505 l 1
 232 667 l 1
 158 667 l 1
 158 468 l 1
 68 423 l 1
 68 362 l 1
 158 407 l 1
 158 328 l 1
 68 283 l 1
 68 222 l 1
 158 267 l 1
 158 0 l 1
 232 0 l 0
 363 0 438 54 460 156 c 0
 466 181 467 205 467 235 c 1
 467 298 l 1
 393 298 l 1
 393 235 l 1
EndSplineSet
Layer: 2
Layer: 3
EndChar
StartChar: trademark
Encoding: 8482 8482 126
Width: 668
VWidth: 0
Flags: W
HStem: 622 45<60 149 196 285>
VStem: 149 47<334 622> 325 46<334 573> 562 46<334 574>
LayerCount: 4
Back
Fore
SplineSet
60 667 m 1
 285 667 l 1
 285 622 l 1
 196 622 l 1
 196 334 l 1
 149 334 l 1
 149 622 l 1
 60 622 l 1
 60 667 l 1
325 667 m 1
 367 667 l 1
 466 473 l 1
 566 667 l 1
 608 667 l 1
 608 334 l 1
 562 334 l 1
 562 574 l 1
 483 416 l 1
 450 416 l 1
 371 573 l 1
 371 334 l 1
 325 334 l 1
 325 667 l 1
EndSplineSet
Validated: 1
Layer: 2
Layer: 3
EndChar
StartChar: arrowdown
Encoding: 8595 8595 458
Width: 414
Flags: W
VStem: 179 56<124 450>
LayerCount: 4
Back
Fore
SplineSet
334 143 m 1
 227 50 l 1
 187 50 l 1
 80 143 l 1
 80 209 l 1
 179 124 l 1
 179 450 l 1
 235 450 l 1
 235 124 l 1
 334 209 l 1
 334 143 l 1
EndSplineSet
Validated: 1
Layer: 2
Layer: 3
EndChar
StartChar: uni2198
Encoding: 8600 8600 463
Width: 486
Flags: W
HStem: 89 326
VStem: 80 326
LayerCount: 4
Back
Fore
SplineSet
227 89 m 1
 180 135 l 1
 310 145 l 1
 80 376 l 1
 119 415 l 1
 350 185 l 1
 360 315 l 1
 406 268 l 1
 397 127 l 1
 368 98 l 1
 227 89 l 1
EndSplineSet
Validated: 1
Layer: 2
Layer: 3
EndChar
StartChar: uni2199
Encoding: 8601 8601 464
Width: 486
Flags: W
HStem: 89 326
VStem: 80 326
LayerCount: 4
Back
Fore
SplineSet
259 89 m 1
 118 98 l 1
 89 127 l 1
 80 268 l 1
 126 315 l 1
 136 185 l 1
 367 415 l 1
 406 376 l 1
 176 145 l 1
 306 135 l 1
 259 89 l 1
EndSplineSet
Validated: 1
Layer: 2
Layer: 3
EndChar
StartChar: partialdiff
Encoding: 8706 8706 451
Width: 485
VWidth: 0
Flags: W
HStem: -5 66<167.328 312.672> 418 66<168.153 312.22> 603 66<120.57 309.112>
VStem: 55 70<104.462 374.538> 355 70<104.462 375.526 434 558.281>
AnchorPoint: "DoubleTop" 0 0 basechar 0
AnchorPoint: "Apos" 0 0 basechar 0
AnchorPoint: "Center" 0 0 basechar 0
AnchorPoint: "Bottom" 235 -185 basechar 0
AnchorPoint: "Top" 230 477 basechar 0
LayerCount: 4
Back
Fore
SplineSet
240 61 m 0
 298 61 338 92 350 139 c 0
 354 155 355 174 355 195 c 2
 355 284 l 2
 355 305 354 324 350 340 c 0
 338 387 298 418 240 418 c 0
 182 418 142 387 130 340 c 0
 126 324 125 305 125 284 c 2
 125 195 l 2
 125 174 126 155 130 139 c 0
 142 92 182 61 240 61 c 0
425 202 m 2
 425 176 424 150 418 125 c 0
 400 50 336 -5 240 -5 c 0
 144 -5 80 50 62 125 c 0
 56 150 55 176 55 202 c 2
 55 277 l 2
 55 303 56 329 62 354 c 0
 80 429 144 484 235 484 c 0
 287 484 329 464 355 434 c 1
 355 465 l 2
 355 487 354 507 350 524 c 0
 336 576 290 603 225 603 c 0
 183 603 140 593 103 573 c 1
 69 631 l 1
 117 656 171 669 225 669 c 0
 325 669 396 620 417 541 c 0
 425 514 425 488 425 465 c 2
 425 202 l 2
EndSplineSet
Validated: 1
Layer: 2
Layer: 3
EndChar
StartChar: integral
Encoding: 8747 8747 125
Width: 350
VWidth: 0
Flags: W
HStem: -185 57<35 129.603> 600 57<220.397 315>
VStem: 145 60<-115.497 587.756>
LayerCount: 4
Back
Fore
SplineSet
205 -54 m 2
 205 -144 154 -185 95 -185 c 2
 35 -185 l 1
 35 -128 l 1
 95 -128 l 2
 120 -128 145 -103 145 -54 c 2
 145 527 l 2
 145 616 196 657 255 657 c 2
 315 657 l 1
 315 600 l 1
 255 600 l 2
 230 600 205 575 205 527 c 2
 205 -54 l 2
EndSplineSet
Validated: 1
Layer: 2
Layer: 3
EndChar
StartChar: approxequal
Encoding: 8776 8776 426
Width: 520
VWidth: 0
Flags: W
HStem: 119 54<284.989 394.98> 184 54<123.044 238.725> 259 54<284.989 394.98> 324 54<123.044 238.725>
LayerCount: 4
Back
Fore
SplineSet
100 143 m 1
 68 184 l 1
 106 221 144 238 180 238 c 0
 214 238 244 225 274 203 c 0
 298 184 320 173 342 173 c 0
 366 173 390 187 420 217 c 1
 452 175 l 1
 414 137 376 119 340 119 c 0
 310 119 278 132 246 157 c 0
 224 173 204 184 180 184 c 0
 156 184 130 172 100 143 c 1
100 283 m 1
 68 324 l 1
 106 361 144 378 180 378 c 0
 214 378 244 365 274 343 c 0
 298 324 320 313 342 313 c 0
 366 313 390 327 420 357 c 1
 452 315 l 1
 414 277 376 259 340 259 c 0
 310 259 278 272 246 297 c 0
 224 313 204 324 180 324 c 0
 156 324 130 312 100 283 c 1
EndSplineSet
Validated: 1
Layer: 2
Layer: 3
EndChar
StartChar: a.alt
Encoding: 57344 57344 429
Width: 1000
VWidth: 0
LayerCount: 4
Back
SplineSet
334 170 m 6
 334 229 l 5
 308 232 284 233 263 233 c 4
 161 233 113 206 113 140 c 4
 113 92 157 60 223 60 c 4
 300 60 334 96 334 170 c 6
405 176 m 6
 405 59 333 -6 223 -6 c 4
 124 -6 44 55 44 146 c 4
 44 236 122 294 261 294 c 4
 284 294 308 293 334 289 c 5
 334 377 290 413 227 413 c 4
 176 413 74 413 74 413 c 5
 74 477 l 5
 74 477 162 477 227 477 c 4
 323 477 405 425 405 290 c 6
 405 176 l 6
EndSplineSet
Fore
Validated: 1
Layer: 2
Layer: 3
EndChar
